<ttFont>
<head>
    <!-- Most of this table will be recalculated by the compiler -->
    <tableVersion value="1.0"/>
    <fontRevision value="2.201"/>
    <checkSumAdjustment value="0x7d18a4b"/>
    <magicNumber value="0x5f0f3cf5"/>
    <flags value="00000000 00011011"/>
    <unitsPerEm value="1000"/>
    <created value="Sat Jan 23 04:19:28 2016"/>
    <modified value="Thu Mar 10 20:57:09 2016"/>
    <xMin value="-123"/>
    <yMin value="-267"/>
    <xMax value="954"/>
    <yMax value="1046"/>
    <macStyle value="00000000 00000010"/>
    <lowestRecPPEM value="5"/>
    <fontDirectionHint value="2"/>
    <indexToLocFormat value="0"/>
    <glyphDataFormat value="0"/>
  </head>
    <TTGlyph name=".notdef" xMin="0" yMin="-200" xMax="500" yMax="800">
      <contour>
        <pt x="0" y="800" on="1"/>
        <pt x="500" y="800" on="1"/>
        <pt x="500" y="-200" on="1"/>
        <pt x="0" y="-200" on="1"/>
      </contour>
      <contour>
        <pt x="250" y="360" on="1"/>
        <pt x="429" y="750" on="1"/>
        <pt x="71" y="750" on="1"/>
      </contour>
      <contour>
        <pt x="222" y="300" on="1"/>
        <pt x="50" y="676" on="1"/>
        <pt x="50" y="-76" on="1"/>
      </contour>
      <contour>
        <pt x="278" y="300" on="1"/>
        <pt x="450" y="-76" on="1"/>
        <pt x="450" y="676" on="1"/>
      </contour>
      <contour>
        <pt x="71" y="-150" on="1"/>
        <pt x="429" y="-150" on="1"/>
        <pt x="250" y="240" on="1"/>
      </contour>
    </TTGlyph>
    <TTGlyph name="A" xMin="-2" yMin="-7" xMax="540" yMax="728">
      <contour>
        <pt x="415" y="215" on="1"/>
        <pt x="194" y="215" on="1"/>
        <pt x="101" y="0" on="1"/>
        <pt x="-2" y="0" on="1"/>
        <pt x="328" y="728" on="1"/>
        <pt x="429" y="728" on="1"/>
        <pt x="540" y="13" on="1"/>
        <pt x="446" y="-7" on="1"/>
      </contour>
      <contour>
        <pt x="233" y="305" on="1"/>
        <pt x="402" y="305" on="1"/>
        <pt x="362" y="604" on="1"/>
      </contour>
    </TTGlyph>
    <TTGlyph name="A.flat" xMin="-2" yMin="0" xMax="543" yMax="728">
      <contour>
        <pt x="415" y="215" on="1"/>
        <pt x="194" y="215" on="1"/>
        <pt x="101" y="0" on="1"/>
        <pt x="-2" y="0" on="1"/>
        <pt x="328" y="728" on="1"/>
        <pt x="429" y="728" on="1"/>
        <pt x="543" y="0" on="1"/>
        <pt x="445" y="0" on="1"/>
      </contour>
      <contour>
        <pt x="233" y="305" on="1"/>
        <pt x="402" y="305" on="1"/>
        <pt x="362" y="604" on="1"/>
      </contour>
    </TTGlyph>
    <TTGlyph name="AE" xMin="-34" yMin="0" xMax="835" yMax="725">
      <contour>
        <pt x="-34" y="0" on="1"/>
        <pt x="437" y="725" on="1"/>
        <pt x="835" y="725" on="1"/>
        <pt x="821" y="633" on="1"/>
        <pt x="585" y="633" on="1"/>
        <pt x="554" y="425" on="1"/>
        <pt x="736" y="425" on="1"/>
        <pt x="736" y="333" on="1"/>
        <pt x="539" y="333" on="1"/>
        <pt x="502" y="91" on="1"/>
        <pt x="751" y="91" on="1"/>
        <pt x="736" y="0" on="1"/>
        <pt x="391" y="0" on="1"/>
        <pt x="423" y="216" on="1"/>
        <pt x="210" y="216" on="1"/>
        <pt x="71" y="0" on="1"/>
      </contour>
      <contour>
        <pt x="436" y="305" on="1"/>
        <pt x="488" y="650" on="1"/>
        <pt x="267" y="305" on="1"/>
      </contour>
    </TTGlyph>
    <TTGlyph name="AE.flat" xMin="-34" yMin="0" xMax="835" yMax="725">
      <contour>
        <pt x="-34" y="0" on="1"/>
        <pt x="437" y="725" on="1"/>
        <pt x="835" y="725" on="1"/>
        <pt x="821" y="633" on="1"/>
        <pt x="585" y="633" on="1"/>
        <pt x="554" y="425" on="1"/>
        <pt x="742" y="425" on="1"/>
        <pt x="729" y="333" on="1"/>
        <pt x="539" y="333" on="1"/>
        <pt x="502" y="91" on="1"/>
        <pt x="751" y="91" on="1"/>
        <pt x="736" y="0" on="1"/>
        <pt x="391" y="0" on="1"/>
        <pt x="423" y="216" on="1"/>
        <pt x="210" y="216" on="1"/>
        <pt x="71" y="0" on="1"/>
      </contour>
      <contour>
        <pt x="436" y="305" on="1"/>
        <pt x="488" y="650" on="1"/>
        <pt x="267" y="305" on="1"/>
      </contour>
    </TTGlyph>
    <TTGlyph name="AEacute" xMin="-34" yMin="0" xMax="835" yMax="938">
      <component glyphName="acute.cap" x="351" y="213" flags="0x4"/>
      <component glyphName="AE" x="0" y="0" flags="0x4"/>
    </TTGlyph>
    <TTGlyph name="AEacute.flat" xMin="-34" yMin="0" xMax="835" yMax="938">
      <component glyphName="acute.cap" x="351" y="213" flags="0x4"/>
      <component glyphName="AE.flat" x="0" y="0" flags="0x4"/>
    </TTGlyph>
    <TTGlyph name="Aacute" xMin="-2" yMin="-7" xMax="557" yMax="948">
      <component glyphName="A" x="0" y="0" flags="0x204"/>
      <component glyphName="acute.cap" x="168" y="223" flags="0x4"/>
    </TTGlyph>
    <TTGlyph name="Aacute.flat" xMin="-2" yMin="0" xMax="557" yMax="948">
      <component glyphName="acute.cap" x="168" y="223" flags="0x4"/>
      <component glyphName="A.flat" x="0" y="0" flags="0x4"/>
    </TTGlyph>
    <TTGlyph name="Abreve" xMin="-2" yMin="-7" xMax="540" yMax="927">
      <component glyphName="A" x="0" y="0" flags="0x204"/>
      <component glyphName="breve.cap" x="114" y="223" flags="0x4"/>
    </TTGlyph>
    <TTGlyph name="Abreve.flat" xMin="-2" yMin="0" xMax="543" yMax="927">
      <component glyphName="breve.cap" x="113" y="223" flags="0x4"/>
      <component glyphName="A.flat" x="0" y="0" flags="0x4"/>
    </TTGlyph>
    <TTGlyph name="Acircumflex" xMin="-2" yMin="-7" xMax="540" yMax="931">
      <component glyphName="A" x="0" y="0" flags="0x204"/>
      <component glyphName="circumflex.cap" x="116" y="214" flags="0x4"/>
    </TTGlyph>
    <TTGlyph name="Acircumflex.flat" xMin="-2" yMin="0" xMax="543" yMax="931">
      <component glyphName="A.flat" x="0" y="0" flags="0x204"/>
      <component glyphName="circumflex.cap" x="116" y="214" flags="0x4"/>
    </TTGlyph>
    <TTGlyph name="Adieresis" xMin="-2" yMin="-7" xMax="541" yMax="904">
      <component glyphName="A" x="0" y="0" flags="0x204"/>
      <component glyphName="dieresis.cap" x="119" y="223" flags="0x4"/>
    </TTGlyph>
    <TTGlyph name="Adieresis.flat" xMin="-2" yMin="0" xMax="543" yMax="904">
      <component glyphName="dieresis.cap" x="119" y="223" flags="0x4"/>
      <component glyphName="A.flat" x="0" y="0" flags="0x4"/>
    </TTGlyph>
    <TTGlyph name="Agrave" xMin="-2" yMin="-7" xMax="540" yMax="948">
      <component glyphName="A" x="0" y="0" flags="0x204"/>
      <component glyphName="grave.cap" x="63" y="223" flags="0x4"/>
    </TTGlyph>
    <TTGlyph name="Agrave.flat" xMin="-2" yMin="0" xMax="543" yMax="948">
      <component glyphName="grave.cap" x="63" y="223" flags="0x4"/>
      <component glyphName="A.flat" x="0" y="0" flags="0x4"/>
    </TTGlyph>
    <TTGlyph name="Amacron" xMin="-2" yMin="-7" xMax="540" yMax="890">
      <component glyphName="A" x="0" y="0" flags="0x204"/>
      <component glyphName="macron.cap" x="119" y="223" flags="0x4"/>
    </TTGlyph>
    <TTGlyph name="Amacron.flat" xMin="-2" yMin="0" xMax="543" yMax="890">
      <component glyphName="macron.cap" x="119" y="223" flags="0x4"/>
      <component glyphName="A.flat" x="0" y="0" flags="0x4"/>
    </TTGlyph>
    <TTGlyph name="Aogonek" xMin="-2" yMin="-192" xMax="540" yMax="728">
      <contour>
        <pt x="530" y="11" on="1"/>
        <pt x="503" y="-21" on="1"/>
        <pt x="476" y="-53" on="0"/>
        <pt x="456" y="-84" on="0"/>
        <pt x="456" y="-98" on="1"/>
        <pt x="456" y="-124" on="0"/>
        <pt x="494" y="-124" on="1"/>
        <pt x="502" y="-124" on="0"/>
        <pt x="522" y="-122" on="0"/>
        <pt x="532" y="-120" on="1"/>
        <pt x="523" y="-177" on="1"/>
        <pt x="506" y="-183" on="0"/>
        <pt x="470" y="-192" on="0"/>
        <pt x="451" y="-192" on="1"/>
        <pt x="416" y="-192" on="0"/>
        <pt x="376" y="-159" on="0"/>
        <pt x="376" y="-127" on="1"/>
        <pt x="376" y="-101" on="0"/>
        <pt x="407" y="-47" on="0"/>
        <pt x="446" y="-7" on="1"/>
        <pt x="415" y="215" on="1"/>
        <pt x="194" y="215" on="1"/>
        <pt x="101" y="0" on="1"/>
        <pt x="-2" y="0" on="1"/>
        <pt x="328" y="728" on="1"/>
        <pt x="429" y="728" on="1"/>
        <pt x="540" y="13" on="1"/>
      </contour>
      <contour>
        <pt x="233" y="305" on="1"/>
        <pt x="402" y="305" on="1"/>
        <pt x="362" y="604" on="1"/>
      </contour>
    </TTGlyph>
    <TTGlyph name="Aogonek.flat" xMin="-2" yMin="-192" xMax="543" yMax="728">
      <contour>
        <pt x="368" y="-127" on="1"/>
        <pt x="368" y="-100" on="0"/>
        <pt x="401" y="-43" on="0"/>
        <pt x="440" y="-5" on="1"/>
        <pt x="443" y="-2" on="1"/>
        <pt x="445" y="0" on="1"/>
        <pt x="415" y="215" on="1"/>
        <pt x="194" y="215" on="1"/>
        <pt x="101" y="0" on="1"/>
        <pt x="-2" y="0" on="1"/>
        <pt x="328" y="728" on="1"/>
        <pt x="429" y="728" on="1"/>
        <pt x="543" y="0" on="1"/>
        <pt x="513" y="0" on="1"/>
        <pt x="495" y="-21" on="1"/>
        <pt x="468" y="-53" on="0"/>
        <pt x="448" y="-84" on="0"/>
        <pt x="448" y="-98" on="1"/>
        <pt x="448" y="-124" on="0"/>
        <pt x="486" y="-124" on="1"/>
        <pt x="494" y="-124" on="0"/>
        <pt x="514" y="-122" on="0"/>
        <pt x="524" y="-120" on="1"/>
        <pt x="515" y="-177" on="1"/>
        <pt x="498" y="-183" on="0"/>
        <pt x="462" y="-192" on="0"/>
        <pt x="443" y="-192" on="1"/>
        <pt x="408" y="-192" on="0"/>
        <pt x="368" y="-159" on="0"/>
      </contour>
      <contour>
        <pt x="233" y="305" on="1"/>
        <pt x="402" y="305" on="1"/>
        <pt x="362" y="604" on="1"/>
      </contour>
    </TTGlyph>
    <TTGlyph name="Aring" xMin="-2" yMin="-7" xMax="540" yMax="864">
      <contour>
        <pt x="415" y="215" on="1"/>
        <pt x="194" y="215" on="1"/>
        <pt x="101" y="0" on="1"/>
        <pt x="-2" y="0" on="1"/>
        <pt x="308" y="684" on="1"/>
        <pt x="276" y="713" on="0"/>
        <pt x="276" y="761" on="1"/>
        <pt x="276" y="806" on="0"/>
        <pt x="334" y="864" on="0"/>
        <pt x="379" y="864" on="1"/>
        <pt x="425" y="864" on="0"/>
        <pt x="484" y="806" on="0"/>
        <pt x="484" y="761" on="1"/>
        <pt x="484" y="732" on="0"/>
        <pt x="459" y="687" on="0"/>
        <pt x="438" y="673" on="1"/>
        <pt x="540" y="13" on="1"/>
        <pt x="446" y="-7" on="1"/>
      </contour>
      <contour>
        <pt x="233" y="305" on="1"/>
        <pt x="402" y="305" on="1"/>
        <pt x="362" y="604" on="1"/>
      </contour>
      <contour>
        <pt x="379" y="702" on="1"/>
        <pt x="404" y="702" on="0"/>
        <pt x="435" y="735" on="0"/>
        <pt x="435" y="761" on="1"/>
        <pt x="435" y="786" on="0"/>
        <pt x="404" y="819" on="0"/>
        <pt x="379" y="819" on="1"/>
        <pt x="356" y="819" on="0"/>
        <pt x="325" y="786" on="0"/>
        <pt x="325" y="761" on="1"/>
        <pt x="325" y="735" on="0"/>
        <pt x="356" y="702" on="0"/>
      </contour>
    </TTGlyph>
    <TTGlyph name="Aring.flat" xMin="-2" yMin="0" xMax="543" yMax="864">
      <contour>
        <pt x="415" y="215" on="1"/>
        <pt x="194" y="215" on="1"/>
        <pt x="101" y="0" on="1"/>
        <pt x="-2" y="0" on="1"/>
        <pt x="308" y="684" on="1"/>
        <pt x="276" y="713" on="0"/>
        <pt x="276" y="761" on="1"/>
        <pt x="276" y="806" on="0"/>
        <pt x="334" y="864" on="0"/>
        <pt x="379" y="864" on="1"/>
        <pt x="425" y="864" on="0"/>
        <pt x="484" y="806" on="0"/>
        <pt x="484" y="761" on="1"/>
        <pt x="484" y="732" on="0"/>
        <pt x="459" y="687" on="0"/>
        <pt x="438" y="673" on="1"/>
        <pt x="543" y="0" on="1"/>
        <pt x="445" y="0" on="1"/>
      </contour>
      <contour>
        <pt x="233" y="305" on="1"/>
        <pt x="402" y="305" on="1"/>
        <pt x="362" y="604" on="1"/>
      </contour>
      <contour>
        <pt x="379" y="702" on="1"/>
        <pt x="404" y="702" on="0"/>
        <pt x="435" y="735" on="0"/>
        <pt x="435" y="761" on="1"/>
        <pt x="435" y="786" on="0"/>
        <pt x="404" y="819" on="0"/>
        <pt x="379" y="819" on="1"/>
        <pt x="356" y="819" on="0"/>
        <pt x="325" y="786" on="0"/>
        <pt x="325" y="761" on="1"/>
        <pt x="325" y="735" on="0"/>
        <pt x="356" y="702" on="0"/>
      </contour>
    </TTGlyph>
    <TTGlyph name="Aringacute" xMin="-2" yMin="-7" xMax="573" yMax="1046">
      <contour>
        <pt x="415" y="215" on="1"/>
        <pt x="194" y="215" on="1"/>
        <pt x="101" y="0" on="1"/>
        <pt x="-2" y="0" on="1"/>
        <pt x="308" y="684" on="1"/>
        <pt x="276" y="713" on="0"/>
        <pt x="276" y="761" on="1"/>
        <pt x="276" y="806" on="0"/>
        <pt x="334" y="864" on="0"/>
        <pt x="379" y="864" on="1"/>
        <pt x="425" y="864" on="0"/>
        <pt x="484" y="806" on="0"/>
        <pt x="484" y="761" on="1"/>
        <pt x="484" y="732" on="0"/>
        <pt x="459" y="687" on="0"/>
        <pt x="438" y="673" on="1"/>
        <pt x="540" y="13" on="1"/>
        <pt x="446" y="-7" on="1"/>
      </contour>
      <contour>
        <pt x="233" y="305" on="1"/>
        <pt x="402" y="305" on="1"/>
        <pt x="362" y="604" on="1"/>
      </contour>
      <contour>
        <pt x="379" y="702" on="1"/>
        <pt x="404" y="702" on="0"/>
        <pt x="435" y="735" on="0"/>
        <pt x="435" y="761" on="1"/>
        <pt x="435" y="786" on="0"/>
        <pt x="404" y="819" on="0"/>
        <pt x="379" y="819" on="1"/>
        <pt x="356" y="819" on="0"/>
        <pt x="325" y="786" on="0"/>
        <pt x="325" y="761" on="1"/>
        <pt x="325" y="735" on="0"/>
        <pt x="356" y="702" on="0"/>
      </contour>
      <contour>
        <pt x="433" y="892" on="1"/>
        <pt x="363" y="892" on="1"/>
        <pt x="462" y="1046" on="1"/>
        <pt x="573" y="1020" on="1"/>
      </contour>
    </TTGlyph>
    <TTGlyph name="Aringacute.flat" xMin="-2" yMin="0" xMax="573" yMax="1046">
      <contour>
        <pt x="415" y="215" on="1"/>
        <pt x="194" y="215" on="1"/>
        <pt x="101" y="0" on="1"/>
        <pt x="-2" y="0" on="1"/>
        <pt x="308" y="684" on="1"/>
        <pt x="276" y="713" on="0"/>
        <pt x="276" y="761" on="1"/>
        <pt x="276" y="806" on="0"/>
        <pt x="334" y="864" on="0"/>
        <pt x="379" y="864" on="1"/>
        <pt x="425" y="864" on="0"/>
        <pt x="484" y="806" on="0"/>
        <pt x="484" y="761" on="1"/>
        <pt x="484" y="732" on="0"/>
        <pt x="459" y="687" on="0"/>
        <pt x="438" y="673" on="1"/>
        <pt x="543" y="0" on="1"/>
        <pt x="445" y="0" on="1"/>
      </contour>
      <contour>
        <pt x="233" y="305" on="1"/>
        <pt x="402" y="305" on="1"/>
        <pt x="362" y="604" on="1"/>
      </contour>
      <contour>
        <pt x="379" y="702" on="1"/>
        <pt x="404" y="702" on="0"/>
        <pt x="435" y="735" on="0"/>
        <pt x="435" y="761" on="1"/>
        <pt x="435" y="786" on="0"/>
        <pt x="404" y="819" on="0"/>
        <pt x="379" y="819" on="1"/>
        <pt x="356" y="819" on="0"/>
        <pt x="325" y="786" on="0"/>
        <pt x="325" y="761" on="1"/>
        <pt x="325" y="735" on="0"/>
        <pt x="356" y="702" on="0"/>
      </contour>
      <contour>
        <pt x="433" y="892" on="1"/>
        <pt x="363" y="892" on="1"/>
        <pt x="462" y="1046" on="1"/>
        <pt x="573" y="1020" on="1"/>
      </contour>
    </TTGlyph>
    <TTGlyph name="Atilde" xMin="-2" yMin="-7" xMax="562" yMax="927">
      <component glyphName="A" x="0" y="0" flags="0x204"/>
      <component glyphName="tilde.cap" x="120" y="223" flags="0x4"/>
    </TTGlyph>
    <TTGlyph name="Atilde.flat" xMin="-2" yMin="0" xMax="562" yMax="927">
      <component glyphName="tilde.cap" x="120" y="223" flags="0x4"/>
      <component glyphName="A.flat" x="0" y="0" flags="0x4"/>
    </TTGlyph>
    <TTGlyph name="B" xMin="41" yMin="0" xMax="497" yMax="724">
      <contour>
        <pt x="497" y="560" on="1"/>
        <pt x="497" y="525" on="0"/>
        <pt x="477" y="467" on="0"/>
        <pt x="442" y="422" on="0"/>
        <pt x="396" y="390" on="0"/>
        <pt x="371" y="381" on="1"/>
        <pt x="417" y="361" on="0"/>
        <pt x="475" y="283" on="0"/>
        <pt x="475" y="223" on="1"/>
        <pt x="475" y="173" on="0"/>
        <pt x="437" y="90" on="0"/>
        <pt x="363" y="32" on="0"/>
        <pt x="257" y="0" on="0"/>
        <pt x="189" y="0" on="1"/>
        <pt x="41" y="0" on="1"/>
        <pt x="148" y="724" on="1"/>
        <pt x="274" y="724" on="1"/>
        <pt x="335" y="724" on="0"/>
        <pt x="420" y="698" on="0"/>
        <pt x="473" y="653" on="0"/>
        <pt x="497" y="593" on="0"/>
      </contour>
      <contour>
        <pt x="400" y="548" on="1"/>
        <pt x="400" y="566" on="0"/>
        <pt x="388" y="600" on="0"/>
        <pt x="359" y="626" on="0"/>
        <pt x="312" y="641" on="0"/>
        <pt x="276" y="641" on="1"/>
        <pt x="234" y="641" on="1"/>
        <pt x="201" y="420" on="1"/>
        <pt x="251" y="420" on="1"/>
        <pt x="282" y="420" on="0"/>
        <pt x="337" y="437" on="0"/>
        <pt x="377" y="470" on="0"/>
        <pt x="400" y="518" on="0"/>
      </contour>
      <contour>
        <pt x="378" y="222" on="1"/>
        <pt x="378" y="277" on="0"/>
        <pt x="306" y="338" on="0"/>
        <pt x="237" y="338" on="1"/>
        <pt x="189" y="338" on="1"/>
        <pt x="150" y="84" on="1"/>
        <pt x="207" y="84" on="1"/>
        <pt x="287" y="84" on="0"/>
        <pt x="378" y="157" on="0"/>
      </contour>
    </TTGlyph>
    <TTGlyph name="C" xMin="61" yMin="-13" xMax="558" yMax="738">
      <contour>
        <pt x="529" y="581" on="1"/>
        <pt x="503" y="609" on="0"/>
        <pt x="435" y="647" on="0"/>
        <pt x="394" y="647" on="1"/>
        <pt x="344" y="647" on="0"/>
        <pt x="259" y="592" on="0"/>
        <pt x="198" y="497" on="0"/>
        <pt x="163" y="369" on="0"/>
        <pt x="163" y="295" on="1"/>
        <pt x="163" y="237" on="0"/>
        <pt x="186" y="155" on="0"/>
        <pt x="227" y="102" on="0"/>
        <pt x="282" y="77" on="0"/>
        <pt x="314" y="77" on="1"/>
        <pt x="350" y="77" on="0"/>
        <pt x="431" y="110" on="0"/>
        <pt x="471" y="142" on="1"/>
        <pt x="471" y="43" on="1"/>
        <pt x="442" y="22" on="0"/>
        <pt x="354" y="-13" on="0"/>
        <pt x="304" y="-13" on="1"/>
        <pt x="251" y="-13" on="0"/>
        <pt x="162" y="24" on="0"/>
        <pt x="98" y="99" on="0"/>
        <pt x="61" y="212" on="0"/>
        <pt x="61" y="287" on="1"/>
        <pt x="61" y="381" on="0"/>
        <pt x="112" y="546" on="0"/>
        <pt x="201" y="668" on="0"/>
        <pt x="323" y="738" on="0"/>
        <pt x="395" y="738" on="1"/>
        <pt x="446" y="738" on="0"/>
        <pt x="528" y="705" on="0"/>
        <pt x="558" y="679" on="1"/>
      </contour>
    </TTGlyph>
    <TTGlyph name="Cacute" xMin="61" yMin="-13" xMax="566" yMax="948">
      <component glyphName="C" x="0" y="0" flags="0x204"/>
      <component glyphName="acute.cap" x="177" y="223" flags="0x4"/>
    </TTGlyph>
    <TTGlyph name="Ccaron" xMin="61" yMin="-13" xMax="558" yMax="939">
      <component glyphName="C" x="0" y="0" flags="0x204"/>
      <component glyphName="caron.cap" x="128" y="223" flags="0x4"/>
    </TTGlyph>
    <TTGlyph name="Ccedilla" xMin="61" yMin="-203" xMax="558" yMax="738">
      <component glyphName="C" x="0" y="0" flags="0x204"/>
      <component glyphName="cedilla.cap" x="68" y="-3" flags="0x4"/>
    </TTGlyph>
    <TTGlyph name="Cdotaccent" xMin="61" yMin="-13" xMax="558" yMax="904">
      <component glyphName="dotaccent.cap" x="128" y="223" flags="0x4"/>
      <component glyphName="C" x="0" y="0" flags="0x4"/>
    </TTGlyph>
    <TTGlyph name="D" xMin="41" yMin="0" xMax="589" yMax="725">
      <contour>
        <pt x="589" y="429" on="1"/>
        <pt x="589" y="331" on="0"/>
        <pt x="527" y="167" on="0"/>
        <pt x="471" y="111" on="1"/>
        <pt x="419" y="59" on="0"/>
        <pt x="273" y="0" on="0"/>
        <pt x="171" y="0" on="1"/>
        <pt x="41" y="0" on="1"/>
        <pt x="150" y="725" on="1"/>
        <pt x="293" y="725" on="1"/>
        <pt x="362" y="725" on="0"/>
        <pt x="472" y="685" on="0"/>
        <pt x="549" y="609" on="0"/>
        <pt x="589" y="499" on="0"/>
      </contour>
      <contour>
        <pt x="487" y="425" on="1"/>
        <pt x="487" y="530" on="0"/>
        <pt x="385" y="637" on="0"/>
        <pt x="288" y="637" on="1"/>
        <pt x="235" y="637" on="1"/>
        <pt x="153" y="85" on="1"/>
        <pt x="185" y="89" on="1"/>
        <pt x="260" y="89" on="0"/>
        <pt x="359" y="130" on="0"/>
        <pt x="396" y="167" on="1"/>
        <pt x="440" y="209" on="0"/>
        <pt x="487" y="340" on="0"/>
      </contour>
    </TTGlyph>
    <TTGlyph name="Dcaron" xMin="41" yMin="0" xMax="589" yMax="929">
      <component glyphName="caron.cap" x="87" y="213" flags="0x4"/>
      <component glyphName="D" x="0" y="0" flags="0x4"/>
    </TTGlyph>
    <TTGlyph name="Dcroat" xMin="32" yMin="0" xMax="597" yMax="725">
      <component glyphName="Eth" x="0" y="0" flags="0x204"/>
    </TTGlyph>
    <TTGlyph name="Dcroat.flat" xMin="26" yMin="0" xMax="597" yMax="725">
      <component glyphName="Eth.flat" x="0" y="0" flags="0x204"/>
    </TTGlyph>
    <TTGlyph name="E" xMin="41" yMin="0" xMax="484" yMax="725">
      <contour>
        <pt x="471" y="633" on="1"/>
        <pt x="235" y="633" on="1"/>
        <pt x="203" y="425" on="1"/>
        <pt x="386" y="425" on="1"/>
        <pt x="386" y="333" on="1"/>
        <pt x="190" y="333" on="1"/>
        <pt x="153" y="91" on="1"/>
        <pt x="400" y="91" on="1"/>
        <pt x="387" y="0" on="1"/>
        <pt x="41" y="0" on="1"/>
        <pt x="148" y="725" on="1"/>
        <pt x="484" y="725" on="1"/>
      </contour>
    </TTGlyph>
    <TTGlyph name="E.flat" xMin="41" yMin="0" xMax="484" yMax="725">
      <contour>
        <pt x="471" y="633" on="1"/>
        <pt x="235" y="633" on="1"/>
        <pt x="203" y="425" on="1"/>
        <pt x="393" y="425" on="1"/>
        <pt x="378" y="333" on="1"/>
        <pt x="190" y="333" on="1"/>
        <pt x="153" y="91" on="1"/>
        <pt x="400" y="91" on="1"/>
        <pt x="387" y="0" on="1"/>
        <pt x="41" y="0" on="1"/>
        <pt x="148" y="725" on="1"/>
        <pt x="484" y="725" on="1"/>
      </contour>
    </TTGlyph>
    <TTGlyph name="Eacute" xMin="41" yMin="0" xMax="492" yMax="938">
      <component glyphName="acute.cap" x="103" y="213" flags="0x4"/>
      <component glyphName="E" x="0" y="0" flags="0x4"/>
    </TTGlyph>
    <TTGlyph name="Eacute.flat" xMin="41" yMin="0" xMax="492" yMax="938">
      <component glyphName="E.flat" x="0" y="0" flags="0x204"/>
      <component glyphName="acute.cap" x="103" y="213" flags="0x4"/>
    </TTGlyph>
    <TTGlyph name="Ebreve" xMin="41" yMin="0" xMax="484" yMax="917">
      <component glyphName="breve.cap" x="50" y="213" flags="0x4"/>
      <component glyphName="E" x="0" y="0" flags="0x4"/>
    </TTGlyph>
    <TTGlyph name="Ebreve.flat" xMin="41" yMin="0" xMax="484" yMax="917">
      <component glyphName="breve.cap" x="50" y="213" flags="0x4"/>
      <component glyphName="E.flat" x="0" y="0" flags="0x4"/>
    </TTGlyph>
    <TTGlyph name="Ecaron" xMin="41" yMin="0" xMax="484" yMax="929">
      <component glyphName="caron.cap" x="55" y="213" flags="0x4"/>
      <component glyphName="E" x="0" y="0" flags="0x4"/>
    </TTGlyph>
    <TTGlyph name="Ecaron.flat" xMin="41" yMin="0" xMax="484" yMax="929">
      <component glyphName="E.flat" x="0" y="0" flags="0x204"/>
      <component glyphName="caron.cap" x="55" y="213" flags="0x4"/>
    </TTGlyph>
    <TTGlyph name="Ecircumflex" xMin="41" yMin="0" xMax="484" yMax="930">
      <component glyphName="E" x="0" y="0" flags="0x204"/>
      <component glyphName="circumflex.cap" x="52" y="213" flags="0x4"/>
    </TTGlyph>
    <TTGlyph name="Ecircumflex.flat" xMin="41" yMin="0" xMax="484" yMax="930">
      <component glyphName="E.flat" x="0" y="0" flags="0x204"/>
      <component glyphName="circumflex.cap" x="52" y="213" flags="0x4"/>
    </TTGlyph>
    <TTGlyph name="Edieresis" xMin="41" yMin="0" xMax="484" yMax="894">
      <component glyphName="dieresis.cap" x="54" y="213" flags="0x4"/>
      <component glyphName="E" x="0" y="0" flags="0x4"/>
    </TTGlyph>
    <TTGlyph name="Edieresis.flat" xMin="41" yMin="0" xMax="484" yMax="894">
      <component glyphName="E.flat" x="0" y="0" flags="0x204"/>
      <component glyphName="dieresis.cap" x="54" y="213" flags="0x4"/>
    </TTGlyph>
    <TTGlyph name="Edotaccent" xMin="41" yMin="0" xMax="484" yMax="894">
      <component glyphName="dotaccent.cap" x="54" y="213" flags="0x4"/>
      <component glyphName="E" x="0" y="0" flags="0x4"/>
    </TTGlyph>
    <TTGlyph name="Edotaccent.flat" xMin="41" yMin="0" xMax="484" yMax="894">
      <component glyphName="dotaccent.cap" x="54" y="213" flags="0x4"/>
      <component glyphName="E.flat" x="0" y="0" flags="0x4"/>
    </TTGlyph>
    <TTGlyph name="Egrave" xMin="41" yMin="0" xMax="484" yMax="938">
      <component glyphName="grave.cap" x="-3" y="213" flags="0x4"/>
      <component glyphName="E" x="0" y="0" flags="0x4"/>
    </TTGlyph>
    <TTGlyph name="Egrave.flat" xMin="41" yMin="0" xMax="484" yMax="938">
      <component glyphName="grave.cap" x="-3" y="213" flags="0x4"/>
      <component glyphName="E.flat" x="0" y="0" flags="0x4"/>
    </TTGlyph>
    <TTGlyph name="Emacron" xMin="41" yMin="0" xMax="484" yMax="880">
      <component glyphName="macron.cap" x="54" y="213" flags="0x4"/>
      <component glyphName="E" x="0" y="0" flags="0x4"/>
    </TTGlyph>
    <TTGlyph name="Emacron.flat" xMin="41" yMin="0" xMax="484" yMax="880">
      <component glyphName="E.flat" x="0" y="0" flags="0x204"/>
      <component glyphName="macron.cap" x="54" y="213" flags="0x4"/>
    </TTGlyph>
    <TTGlyph name="Eogonek" xMin="41" yMin="-192" xMax="484" yMax="725">
      <contour>
        <pt x="471" y="633" on="1"/>
        <pt x="235" y="633" on="1"/>
        <pt x="203" y="425" on="1"/>
        <pt x="386" y="425" on="1"/>
        <pt x="386" y="333" on="1"/>
        <pt x="190" y="333" on="1"/>
        <pt x="153" y="91" on="1"/>
        <pt x="400" y="91" on="1"/>
        <pt x="387" y="0" on="1"/>
        <pt x="363" y="0" on="1"/>
        <pt x="345" y="-21" on="1"/>
        <pt x="318" y="-53" on="0"/>
        <pt x="298" y="-84" on="0"/>
        <pt x="298" y="-98" on="1"/>
        <pt x="298" y="-124" on="0"/>
        <pt x="336" y="-124" on="1"/>
        <pt x="344" y="-124" on="0"/>
        <pt x="364" y="-122" on="0"/>
        <pt x="374" y="-120" on="1"/>
        <pt x="365" y="-177" on="1"/>
        <pt x="348" y="-183" on="0"/>
        <pt x="312" y="-192" on="0"/>
        <pt x="293" y="-192" on="1"/>
        <pt x="258" y="-192" on="0"/>
        <pt x="218" y="-159" on="0"/>
        <pt x="218" y="-127" on="1"/>
        <pt x="218" y="-101" on="0"/>
        <pt x="248" y="-48" on="0"/>
        <pt x="285" y="-10" on="1"/>
        <pt x="287" y="-8" on="0"/>
        <pt x="292" y="-2" on="0"/>
        <pt x="295" y="0" on="1"/>
        <pt x="41" y="0" on="1"/>
        <pt x="148" y="725" on="1"/>
        <pt x="484" y="725" on="1"/>
      </contour>
    </TTGlyph>
    <TTGlyph name="Eogonek.flat" xMin="41" yMin="-192" xMax="484" yMax="725">
      <contour>
        <pt x="471" y="633" on="1"/>
        <pt x="235" y="633" on="1"/>
        <pt x="203" y="425" on="1"/>
        <pt x="393" y="425" on="1"/>
        <pt x="378" y="333" on="1"/>
        <pt x="190" y="333" on="1"/>
        <pt x="153" y="91" on="1"/>
        <pt x="400" y="91" on="1"/>
        <pt x="387" y="0" on="1"/>
        <pt x="363" y="0" on="1"/>
        <pt x="345" y="-21" on="1"/>
        <pt x="318" y="-53" on="0"/>
        <pt x="298" y="-84" on="0"/>
        <pt x="298" y="-98" on="1"/>
        <pt x="298" y="-124" on="0"/>
        <pt x="336" y="-124" on="1"/>
        <pt x="344" y="-124" on="0"/>
        <pt x="364" y="-122" on="0"/>
        <pt x="374" y="-120" on="1"/>
        <pt x="365" y="-177" on="1"/>
        <pt x="348" y="-183" on="0"/>
        <pt x="312" y="-192" on="0"/>
        <pt x="293" y="-192" on="1"/>
        <pt x="258" y="-192" on="0"/>
        <pt x="218" y="-159" on="0"/>
        <pt x="218" y="-127" on="1"/>
        <pt x="218" y="-101" on="0"/>
        <pt x="247" y="-49" on="0"/>
        <pt x="284" y="-11" on="1"/>
        <pt x="295" y="0" on="1"/>
        <pt x="41" y="0" on="1"/>
        <pt x="148" y="725" on="1"/>
        <pt x="484" y="725" on="1"/>
      </contour>
    </TTGlyph>
    <TTGlyph name="Eth" xMin="32" yMin="0" xMax="597" yMax="725">
      <contour>
        <pt x="597" y="429" on="1"/>
        <pt x="597" y="331" on="0"/>
        <pt x="535" y="167" on="0"/>
        <pt x="479" y="111" on="1"/>
        <pt x="427" y="59" on="0"/>
        <pt x="282" y="0" on="0"/>
        <pt x="179" y="0" on="1"/>
        <pt x="50" y="0" on="1"/>
        <pt x="100" y="334" on="1"/>
        <pt x="32" y="334" on="1"/>
        <pt x="32" y="423" on="1"/>
        <pt x="113" y="423" on="1"/>
        <pt x="158" y="725" on="1"/>
        <pt x="301" y="725" on="1"/>
        <pt x="370" y="725" on="0"/>
        <pt x="480" y="685" on="0"/>
        <pt x="557" y="609" on="0"/>
        <pt x="597" y="499" on="0"/>
      </contour>
      <contour>
        <pt x="198" y="335" on="1"/>
        <pt x="161" y="85" on="1"/>
        <pt x="193" y="89" on="1"/>
        <pt x="268" y="89" on="0"/>
        <pt x="368" y="130" on="0"/>
        <pt x="405" y="167" on="1"/>
        <pt x="448" y="209" on="0"/>
        <pt x="496" y="340" on="0"/>
        <pt x="496" y="425" on="1"/>
        <pt x="496" y="530" on="0"/>
        <pt x="393" y="637" on="0"/>
        <pt x="297" y="637" on="1"/>
        <pt x="243" y="637" on="1"/>
        <pt x="211" y="423" on="1"/>
        <pt x="356" y="423" on="1"/>
        <pt x="341" y="335" on="1"/>
      </contour>
    </TTGlyph>
    <TTGlyph name="Eth.flat" xMin="26" yMin="0" xMax="597" yMax="725">
      <contour>
        <pt x="597" y="429" on="1"/>
        <pt x="597" y="331" on="0"/>
        <pt x="535" y="167" on="0"/>
        <pt x="479" y="111" on="1"/>
        <pt x="427" y="59" on="0"/>
        <pt x="282" y="0" on="0"/>
        <pt x="179" y="0" on="1"/>
        <pt x="50" y="0" on="1"/>
        <pt x="100" y="334" on="1"/>
        <pt x="26" y="334" on="1"/>
        <pt x="39" y="423" on="1"/>
        <pt x="113" y="423" on="1"/>
        <pt x="158" y="725" on="1"/>
        <pt x="301" y="725" on="1"/>
        <pt x="370" y="725" on="0"/>
        <pt x="480" y="685" on="0"/>
        <pt x="557" y="609" on="0"/>
        <pt x="597" y="499" on="0"/>
      </contour>
      <contour>
        <pt x="198" y="335" on="1"/>
        <pt x="161" y="85" on="1"/>
        <pt x="193" y="89" on="1"/>
        <pt x="268" y="89" on="0"/>
        <pt x="368" y="130" on="0"/>
        <pt x="405" y="167" on="1"/>
        <pt x="448" y="209" on="0"/>
        <pt x="496" y="340" on="0"/>
        <pt x="496" y="425" on="1"/>
        <pt x="496" y="530" on="0"/>
        <pt x="393" y="637" on="0"/>
        <pt x="297" y="637" on="1"/>
        <pt x="243" y="637" on="1"/>
        <pt x="211" y="423" on="1"/>
        <pt x="356" y="423" on="1"/>
        <pt x="341" y="335" on="1"/>
      </contour>
    </TTGlyph>
    <TTGlyph name="Euro" xMin="41" yMin="-14" xMax="595" yMax="730">
      <contour>
        <pt x="437" y="235" on="1"/>
        <pt x="220" y="235" on="1"/>
        <pt x="230" y="149" on="0"/>
        <pt x="303" y="71" on="0"/>
        <pt x="359" y="71" on="1"/>
        <pt x="393" y="71" on="0"/>
        <pt x="466" y="100" on="0"/>
        <pt x="505" y="132" on="1"/>
        <pt x="506" y="40" on="1"/>
        <pt x="477" y="19" on="0"/>
        <pt x="400" y="-14" on="0"/>
        <pt x="352" y="-14" on="1"/>
        <pt x="258" y="-14" on="0"/>
        <pt x="137" y="108" on="0"/>
        <pt x="125" y="235" on="1"/>
        <pt x="41" y="235" on="1"/>
        <pt x="41" y="310" on="1"/>
        <pt x="123" y="310" on="1"/>
        <pt x="124" y="336" on="0"/>
        <pt x="129" y="386" on="0"/>
        <pt x="134" y="410" on="1"/>
        <pt x="61" y="410" on="1"/>
        <pt x="72" y="486" on="1"/>
        <pt x="154" y="486" on="1"/>
        <pt x="172" y="540" on="0"/>
        <pt x="228" y="629" on="0"/>
        <pt x="300" y="694" on="0"/>
        <pt x="386" y="730" on="0"/>
        <pt x="435" y="730" on="1"/>
        <pt x="486" y="730" on="0"/>
        <pt x="566" y="699" on="0"/>
        <pt x="595" y="675" on="1"/>
        <pt x="569" y="588" on="1"/>
        <pt x="541" y="614" on="0"/>
        <pt x="473" y="648" on="0"/>
        <pt x="431" y="648" on="1"/>
        <pt x="374" y="648" on="0"/>
        <pt x="279" y="560" on="0"/>
        <pt x="250" y="486" on="1"/>
        <pt x="468" y="486" on="1"/>
        <pt x="468" y="410" on="1"/>
        <pt x="228" y="410" on="1"/>
        <pt x="218" y="361" on="0"/>
        <pt x="217" y="310" on="1"/>
        <pt x="449" y="310" on="1"/>
      </contour>
    </TTGlyph>
    <TTGlyph name="Euro.flat" xMin="36" yMin="-14" xMax="595" yMax="730">
      <contour>
        <pt x="437" y="235" on="1"/>
        <pt x="220" y="235" on="1"/>
        <pt x="230" y="149" on="0"/>
        <pt x="303" y="71" on="0"/>
        <pt x="359" y="71" on="1"/>
        <pt x="393" y="71" on="0"/>
        <pt x="466" y="100" on="0"/>
        <pt x="505" y="132" on="1"/>
        <pt x="506" y="40" on="1"/>
        <pt x="477" y="19" on="0"/>
        <pt x="400" y="-14" on="0"/>
        <pt x="352" y="-14" on="1"/>
        <pt x="258" y="-14" on="0"/>
        <pt x="137" y="108" on="0"/>
        <pt x="125" y="235" on="1"/>
        <pt x="36" y="235" on="1"/>
        <pt x="47" y="310" on="1"/>
        <pt x="123" y="310" on="1"/>
        <pt x="124" y="336" on="0"/>
        <pt x="129" y="386" on="0"/>
        <pt x="134" y="410" on="1"/>
        <pt x="61" y="410" on="1"/>
        <pt x="72" y="486" on="1"/>
        <pt x="154" y="486" on="1"/>
        <pt x="172" y="540" on="0"/>
        <pt x="228" y="629" on="0"/>
        <pt x="300" y="694" on="0"/>
        <pt x="386" y="730" on="0"/>
        <pt x="435" y="730" on="1"/>
        <pt x="486" y="730" on="0"/>
        <pt x="566" y="699" on="0"/>
        <pt x="595" y="675" on="1"/>
        <pt x="569" y="588" on="1"/>
        <pt x="541" y="614" on="0"/>
        <pt x="473" y="648" on="0"/>
        <pt x="431" y="648" on="1"/>
        <pt x="374" y="648" on="0"/>
        <pt x="279" y="560" on="0"/>
        <pt x="250" y="486" on="1"/>
        <pt x="474" y="486" on="1"/>
        <pt x="463" y="410" on="1"/>
        <pt x="228" y="410" on="1"/>
        <pt x="218" y="361" on="0"/>
        <pt x="217" y="310" on="1"/>
        <pt x="449" y="310" on="1"/>
      </contour>
    </TTGlyph>
    <TTGlyph name="Euro.tab" xMin="39" yMin="-13" xMax="557" yMax="731">
      <contour>
        <pt x="213" y="410" on="1"/>
        <pt x="203" y="361" on="0"/>
        <pt x="202" y="310" on="1"/>
        <pt x="410" y="310" on="1"/>
        <pt x="398" y="235" on="1"/>
        <pt x="205" y="235" on="1"/>
        <pt x="213" y="147" on="0"/>
        <pt x="280" y="70" on="0"/>
        <pt x="333" y="70" on="1"/>
        <pt x="364" y="70" on="0"/>
        <pt x="433" y="101" on="0"/>
        <pt x="466" y="128" on="1"/>
        <pt x="466" y="37" on="1"/>
        <pt x="437" y="15" on="0"/>
        <pt x="363" y="-13" on="0"/>
        <pt x="324" y="-13" on="1"/>
        <pt x="234" y="-13" on="0"/>
        <pt x="123" y="115" on="0"/>
        <pt x="113" y="235" on="1"/>
        <pt x="39" y="235" on="1"/>
        <pt x="39" y="310" on="1"/>
        <pt x="112" y="310" on="1"/>
        <pt x="113" y="336" on="0"/>
        <pt x="118" y="386" on="0"/>
        <pt x="123" y="410" on="1"/>
        <pt x="58" y="410" on="1"/>
        <pt x="69" y="486" on="1"/>
        <pt x="142" y="486" on="1"/>
        <pt x="160" y="540" on="0"/>
        <pt x="213" y="630" on="0"/>
        <pt x="281" y="695" on="0"/>
        <pt x="363" y="731" on="0"/>
        <pt x="410" y="731" on="1"/>
        <pt x="455" y="731" on="0"/>
        <pt x="526" y="701" on="0"/>
        <pt x="557" y="673" on="1"/>
        <pt x="529" y="587" on="1"/>
        <pt x="500" y="617" on="0"/>
        <pt x="441" y="650" on="0"/>
        <pt x="405" y="650" on="1"/>
        <pt x="351" y="650" on="0"/>
        <pt x="261" y="561" on="0"/>
        <pt x="234" y="486" on="1"/>
        <pt x="430" y="486" on="1"/>
        <pt x="430" y="410" on="1"/>
      </contour>
    </TTGlyph>
    <TTGlyph name="Euro.tab_flat" xMin="33" yMin="-13" xMax="557" yMax="731">
      <contour>
        <pt x="213" y="410" on="1"/>
        <pt x="203" y="361" on="0"/>
        <pt x="202" y="310" on="1"/>
        <pt x="410" y="310" on="1"/>
        <pt x="398" y="235" on="1"/>
        <pt x="205" y="235" on="1"/>
        <pt x="213" y="147" on="0"/>
        <pt x="280" y="70" on="0"/>
        <pt x="333" y="70" on="1"/>
        <pt x="364" y="70" on="0"/>
        <pt x="433" y="101" on="0"/>
        <pt x="466" y="128" on="1"/>
        <pt x="466" y="37" on="1"/>
        <pt x="437" y="15" on="0"/>
        <pt x="363" y="-13" on="0"/>
        <pt x="324" y="-13" on="1"/>
        <pt x="234" y="-13" on="0"/>
        <pt x="123" y="115" on="0"/>
        <pt x="113" y="235" on="1"/>
        <pt x="33" y="235" on="1"/>
        <pt x="44" y="310" on="1"/>
        <pt x="112" y="310" on="1"/>
        <pt x="113" y="336" on="0"/>
        <pt x="118" y="386" on="0"/>
        <pt x="123" y="410" on="1"/>
        <pt x="58" y="410" on="1"/>
        <pt x="69" y="486" on="1"/>
        <pt x="142" y="486" on="1"/>
        <pt x="160" y="540" on="0"/>
        <pt x="213" y="630" on="0"/>
        <pt x="281" y="695" on="0"/>
        <pt x="363" y="731" on="0"/>
        <pt x="410" y="731" on="1"/>
        <pt x="455" y="731" on="0"/>
        <pt x="526" y="701" on="0"/>
        <pt x="557" y="673" on="1"/>
        <pt x="529" y="587" on="1"/>
        <pt x="500" y="617" on="0"/>
        <pt x="441" y="650" on="0"/>
        <pt x="405" y="650" on="1"/>
        <pt x="351" y="650" on="0"/>
        <pt x="261" y="561" on="0"/>
        <pt x="234" y="486" on="1"/>
        <pt x="435" y="486" on="1"/>
        <pt x="424" y="410" on="1"/>
      </contour>
    </TTGlyph>
    <TTGlyph name="F" xMin="41" yMin="0" xMax="480" yMax="725">
      <contour>
        <pt x="465" y="633" on="1"/>
        <pt x="235" y="633" on="1"/>
        <pt x="202" y="413" on="1"/>
        <pt x="379" y="413" on="1"/>
        <pt x="379" y="322" on="1"/>
        <pt x="188" y="322" on="1"/>
        <pt x="140" y="0" on="1"/>
        <pt x="41" y="0" on="1"/>
        <pt x="148" y="725" on="1"/>
        <pt x="480" y="725" on="1"/>
      </contour>
    </TTGlyph>
    <TTGlyph name="F.flat" xMin="41" yMin="0" xMax="480" yMax="725">
      <contour>
        <pt x="465" y="633" on="1"/>
        <pt x="235" y="633" on="1"/>
        <pt x="202" y="413" on="1"/>
        <pt x="386" y="413" on="1"/>
        <pt x="371" y="322" on="1"/>
        <pt x="188" y="322" on="1"/>
        <pt x="140" y="0" on="1"/>
        <pt x="41" y="0" on="1"/>
        <pt x="148" y="725" on="1"/>
        <pt x="480" y="725" on="1"/>
      </contour>
    </TTGlyph>
    <TTGlyph name="G" xMin="60" yMin="-13" xMax="586" yMax="737">
      <contour>
        <pt x="515" y="50" on="1"/>
        <pt x="480" y="28" on="0"/>
        <pt x="383" y="-13" on="0"/>
        <pt x="320" y="-13" on="1"/>
        <pt x="262" y="-13" on="0"/>
        <pt x="167" y="26" on="0"/>
        <pt x="98" y="102" on="0"/>
        <pt x="60" y="214" on="0"/>
        <pt x="60" y="287" on="1"/>
        <pt x="60" y="381" on="0"/>
        <pt x="113" y="546" on="0"/>
        <pt x="207" y="667" on="0"/>
        <pt x="333" y="737" on="0"/>
        <pt x="407" y="737" on="1"/>
        <pt x="462" y="737" on="0"/>
        <pt x="553" y="707" on="0"/>
        <pt x="586" y="683" on="1"/>
        <pt x="557" y="586" on="1"/>
        <pt x="527" y="612" on="0"/>
        <pt x="451" y="647" on="0"/>
        <pt x="404" y="647" on="1"/>
        <pt x="354" y="647" on="0"/>
        <pt x="266" y="592" on="0"/>
        <pt x="200" y="498" on="0"/>
        <pt x="162" y="371" on="0"/>
        <pt x="162" y="298" on="1"/>
        <pt x="162" y="239" on="0"/>
        <pt x="188" y="155" on="0"/>
        <pt x="233" y="101" on="0"/>
        <pt x="292" y="75" on="0"/>
        <pt x="326" y="75" on="1"/>
        <pt x="358" y="75" on="0"/>
        <pt x="406" y="90" on="0"/>
        <pt x="426" y="101" on="1"/>
        <pt x="457" y="307" on="1"/>
        <pt x="332" y="307" on="1"/>
        <pt x="332" y="398" on="1"/>
        <pt x="565" y="398" on="1"/>
      </contour>
    </TTGlyph>
    <TTGlyph name="G.flat" xMin="60" yMin="-13" xMax="586" yMax="737">
      <contour>
        <pt x="515" y="50" on="1"/>
        <pt x="480" y="28" on="0"/>
        <pt x="383" y="-13" on="0"/>
        <pt x="320" y="-13" on="1"/>
        <pt x="262" y="-13" on="0"/>
        <pt x="167" y="26" on="0"/>
        <pt x="98" y="102" on="0"/>
        <pt x="60" y="214" on="0"/>
        <pt x="60" y="287" on="1"/>
        <pt x="60" y="381" on="0"/>
        <pt x="113" y="546" on="0"/>
        <pt x="207" y="667" on="0"/>
        <pt x="333" y="737" on="0"/>
        <pt x="407" y="737" on="1"/>
        <pt x="462" y="737" on="0"/>
        <pt x="553" y="707" on="0"/>
        <pt x="586" y="683" on="1"/>
        <pt x="557" y="586" on="1"/>
        <pt x="527" y="612" on="0"/>
        <pt x="451" y="647" on="0"/>
        <pt x="404" y="647" on="1"/>
        <pt x="354" y="647" on="0"/>
        <pt x="266" y="592" on="0"/>
        <pt x="200" y="498" on="0"/>
        <pt x="162" y="371" on="0"/>
        <pt x="162" y="298" on="1"/>
        <pt x="162" y="239" on="0"/>
        <pt x="188" y="155" on="0"/>
        <pt x="233" y="101" on="0"/>
        <pt x="292" y="75" on="0"/>
        <pt x="326" y="75" on="1"/>
        <pt x="358" y="75" on="0"/>
        <pt x="406" y="90" on="0"/>
        <pt x="426" y="101" on="1"/>
        <pt x="457" y="307" on="1"/>
        <pt x="325" y="307" on="1"/>
        <pt x="339" y="398" on="1"/>
        <pt x="565" y="398" on="1"/>
      </contour>
    </TTGlyph>
    <TTGlyph name="Gbreve" xMin="60" yMin="-13" xMax="586" yMax="927">
      <component glyphName="breve.cap" x="135" y="223" flags="0x4"/>
      <component glyphName="G" x="0" y="0" flags="0x4"/>
    </TTGlyph>
    <TTGlyph name="Gbreve.flat" xMin="60" yMin="-13" xMax="586" yMax="927">
      <component glyphName="breve.cap" x="135" y="223" flags="0x4"/>
      <component glyphName="G.flat" x="0" y="0" flags="0x4"/>
    </TTGlyph>
    <TTGlyph name="Gcommaaccent" xMin="60" yMin="-261" xMax="586" yMax="737">
      <component glyphName="G" x="0" y="0" flags="0x204"/>
      <component glyphName="commaaccent.cap" x="84" y="-9" flags="0x4"/>
    </TTGlyph>
    <TTGlyph name="Gcommaaccent.flat" xMin="60" yMin="-261" xMax="586" yMax="737">
      <component glyphName="G.flat" x="0" y="0" flags="0x204"/>
      <component glyphName="commaaccent.cap" x="84" y="-9" flags="0x4"/>
    </TTGlyph>
    <TTGlyph name="Gdotaccent" xMin="60" yMin="-13" xMax="586" yMax="904">
      <component glyphName="dotaccent.cap" x="140" y="223" flags="0x4"/>
      <component glyphName="G" x="0" y="0" flags="0x4"/>
    </TTGlyph>
    <TTGlyph name="Gdotaccent.flat" xMin="60" yMin="-13" xMax="586" yMax="904">
      <component glyphName="dotaccent.cap" x="140" y="223" flags="0x4"/>
      <component glyphName="G.flat" x="0" y="0" flags="0x4"/>
    </TTGlyph>
    <TTGlyph name="H" xMin="41" yMin="0" xMax="617" yMax="725">
      <contour>
        <pt x="509" y="0" on="1"/>
        <pt x="410" y="0" on="1"/>
        <pt x="459" y="333" on="1"/>
        <pt x="190" y="333" on="1"/>
        <pt x="140" y="0" on="1"/>
        <pt x="41" y="0" on="1"/>
        <pt x="150" y="725" on="1"/>
        <pt x="248" y="725" on="1"/>
        <pt x="204" y="425" on="1"/>
        <pt x="474" y="425" on="1"/>
        <pt x="518" y="725" on="1"/>
        <pt x="617" y="725" on="1"/>
      </contour>
    </TTGlyph>
    <TTGlyph name="Hbar" xMin="52" yMin="0" xMax="690" yMax="725">
      <contour>
        <pt x="600" y="539" on="1"/>
        <pt x="519" y="0" on="1"/>
        <pt x="421" y="0" on="1"/>
        <pt x="469" y="325" on="1"/>
        <pt x="200" y="325" on="1"/>
        <pt x="151" y="0" on="1"/>
        <pt x="52" y="0" on="1"/>
        <pt x="132" y="539" on="1"/>
        <pt x="64" y="539" on="1"/>
        <pt x="64" y="624" on="1"/>
        <pt x="145" y="624" on="1"/>
        <pt x="160" y="725" on="1"/>
        <pt x="259" y="725" on="1"/>
        <pt x="244" y="624" on="1"/>
        <pt x="514" y="624" on="1"/>
        <pt x="529" y="725" on="1"/>
        <pt x="628" y="725" on="1"/>
        <pt x="613" y="624" on="1"/>
        <pt x="690" y="624" on="1"/>
        <pt x="678" y="539" on="1"/>
      </contour>
      <contour>
        <pt x="483" y="415" on="1"/>
        <pt x="502" y="542" on="1"/>
        <pt x="232" y="542" on="1"/>
        <pt x="213" y="415" on="1"/>
      </contour>
    </TTGlyph>
    <TTGlyph name="Hbar.flat" xMin="52" yMin="0" xMax="690" yMax="725">
      <contour>
        <pt x="600" y="539" on="1"/>
        <pt x="519" y="0" on="1"/>
        <pt x="421" y="0" on="1"/>
        <pt x="469" y="325" on="1"/>
        <pt x="200" y="325" on="1"/>
        <pt x="151" y="0" on="1"/>
        <pt x="52" y="0" on="1"/>
        <pt x="132" y="539" on="1"/>
        <pt x="57" y="539" on="1"/>
        <pt x="69" y="624" on="1"/>
        <pt x="145" y="624" on="1"/>
        <pt x="160" y="725" on="1"/>
        <pt x="259" y="725" on="1"/>
        <pt x="244" y="624" on="1"/>
        <pt x="514" y="624" on="1"/>
        <pt x="529" y="725" on="1"/>
        <pt x="628" y="725" on="1"/>
        <pt x="613" y="624" on="1"/>
        <pt x="690" y="624" on="1"/>
        <pt x="678" y="539" on="1"/>
      </contour>
      <contour>
        <pt x="483" y="415" on="1"/>
        <pt x="502" y="542" on="1"/>
        <pt x="232" y="542" on="1"/>
        <pt x="213" y="415" on="1"/>
      </contour>
    </TTGlyph>
    <TTGlyph name="I" xMin="46" yMin="0" xMax="253" yMax="725">
      <contour>
        <pt x="253" y="725" on="1"/>
        <pt x="253" y="725" on="0"/>
        <pt x="243" y="662" on="0"/>
        <pt x="228" y="560" on="0"/>
        <pt x="209" y="430" on="0"/>
        <pt x="199" y="362" on="1"/>
        <pt x="145" y="0" on="1"/>
        <pt x="46" y="0" on="1"/>
        <pt x="100" y="362" on="1"/>
        <pt x="110" y="430" on="0"/>
        <pt x="129" y="560" on="0"/>
        <pt x="137" y="611" on="1"/>
        <pt x="146" y="671" on="0"/>
        <pt x="153" y="725" on="1"/>
        <pt x="253" y="725" on="1"/>
      </contour>
    </TTGlyph>
    <TTGlyph name="Iacute" xMin="46" yMin="0" xMax="380" yMax="938">
      <component glyphName="I" x="0" y="0" flags="0x204"/>
      <component glyphName="acute.cap" x="-9" y="213" flags="0x4"/>
    </TTGlyph>
    <TTGlyph name="Ibreve" xMin="46" yMin="0" xMax="358" yMax="917">
      <component glyphName="I" x="0" y="0" flags="0x204"/>
      <component glyphName="breve.cap" x="-64" y="213" flags="0x4"/>
    </TTGlyph>
    <TTGlyph name="Icircumflex" xMin="46" yMin="0" xMax="346" yMax="930">
      <component glyphName="I" x="0" y="0" flags="0x204"/>
      <component glyphName="circumflex.cap" x="-61" y="213" flags="0x4"/>
    </TTGlyph>
    <TTGlyph name="Idieresis" xMin="46" yMin="0" xMax="364" yMax="894">
      <component glyphName="I" x="0" y="0" flags="0x204"/>
      <component glyphName="dieresis.cap" x="-58" y="213" flags="0x4"/>
    </TTGlyph>
    <TTGlyph name="Idotaccent" xMin="46" yMin="0" xMax="280" yMax="894">
      <component glyphName="I" x="0" y="0" flags="0x204"/>
      <component glyphName="dotaccent.cap" x="-58" y="213" flags="0x4"/>
    </TTGlyph>
    <TTGlyph name="Igrave" xMin="46" yMin="0" xMax="253" yMax="938">
      <component glyphName="I" x="0" y="0" flags="0x204"/>
      <component glyphName="grave.cap" x="-115" y="213" flags="0x4"/>
    </TTGlyph>
    <TTGlyph name="Imacron" xMin="46" yMin="0" xMax="361" yMax="880">
      <component glyphName="I" x="0" y="0" flags="0x204"/>
      <component glyphName="macron.cap" x="-58" y="213" flags="0x4"/>
    </TTGlyph>
    <TTGlyph name="Iogonek" xMin="-14" yMin="-192" xMax="253" yMax="725">
      <contour>
        <pt x="253" y="725" on="1"/>
        <pt x="253" y="725" on="0"/>
        <pt x="243" y="662" on="0"/>
        <pt x="228" y="560" on="0"/>
        <pt x="209" y="430" on="0"/>
        <pt x="199" y="362" on="1"/>
        <pt x="145" y="0" on="1"/>
        <pt x="131" y="0" on="1"/>
        <pt x="113" y="-21" on="1"/>
        <pt x="86" y="-53" on="0"/>
        <pt x="66" y="-84" on="0"/>
        <pt x="66" y="-98" on="1"/>
        <pt x="66" y="-124" on="0"/>
        <pt x="104" y="-124" on="1"/>
        <pt x="112" y="-124" on="0"/>
        <pt x="132" y="-122" on="0"/>
        <pt x="142" y="-120" on="1"/>
        <pt x="133" y="-177" on="1"/>
        <pt x="116" y="-183" on="0"/>
        <pt x="80" y="-192" on="0"/>
        <pt x="61" y="-192" on="1"/>
        <pt x="26" y="-192" on="0"/>
        <pt x="-14" y="-159" on="0"/>
        <pt x="-14" y="-127" on="1"/>
        <pt x="-14" y="-101" on="0"/>
        <pt x="16" y="-48" on="0"/>
        <pt x="53" y="-10" on="1"/>
        <pt x="63" y="0" on="1"/>
        <pt x="46" y="0" on="1"/>
        <pt x="100" y="362" on="1"/>
        <pt x="110" y="430" on="0"/>
        <pt x="129" y="560" on="0"/>
        <pt x="137" y="611" on="1"/>
        <pt x="146" y="671" on="0"/>
        <pt x="153" y="725" on="1"/>
        <pt x="253" y="725" on="1"/>
      </contour>
    </TTGlyph>
    <TTGlyph name="J" xMin="5" yMin="-7" xMax="357" yMax="725">
      <contour>
        <pt x="275" y="170" on="1"/>
        <pt x="261" y="77" on="0"/>
        <pt x="160" y="-7" on="0"/>
        <pt x="78" y="-7" on="1"/>
        <pt x="34" y="-7" on="0"/>
        <pt x="5" y="1" on="1"/>
        <pt x="5" y="93" on="1"/>
        <pt x="22" y="88" on="0"/>
        <pt x="57" y="82" on="0"/>
        <pt x="75" y="82" on="1"/>
        <pt x="114" y="82" on="0"/>
        <pt x="167" y="122" on="0"/>
        <pt x="176" y="175" on="1"/>
        <pt x="258" y="725" on="1"/>
        <pt x="357" y="725" on="1"/>
      </contour>
    </TTGlyph>
    <TTGlyph name="K" xMin="40" yMin="-7" xMax="589" yMax="725">
      <contour>
        <pt x="293" y="376" on="1"/>
        <pt x="496" y="16" on="1"/>
        <pt x="400" y="-7" on="1"/>
        <pt x="194" y="365" on="1"/>
        <pt x="140" y="0" on="1"/>
        <pt x="40" y="0" on="1"/>
        <pt x="71" y="203" on="0"/>
        <pt x="95" y="362" on="1"/>
        <pt x="105" y="430" on="0"/>
        <pt x="124" y="560" on="0"/>
        <pt x="139" y="662" on="0"/>
        <pt x="148" y="725" on="0"/>
        <pt x="148" y="725" on="1"/>
        <pt x="248" y="725" on="1"/>
        <pt x="198" y="393" on="1"/>
        <pt x="470" y="725" on="1"/>
        <pt x="589" y="725" on="1"/>
      </contour>
    </TTGlyph>
    <TTGlyph name="K.flat" xMin="40" yMin="0" xMax="589" yMax="725">
      <contour>
        <pt x="293" y="376" on="1"/>
        <pt x="505" y="0" on="1"/>
        <pt x="396" y="0" on="1"/>
        <pt x="194" y="365" on="1"/>
        <pt x="140" y="0" on="1"/>
        <pt x="40" y="0" on="1"/>
        <pt x="71" y="203" on="0"/>
        <pt x="95" y="362" on="1"/>
        <pt x="105" y="430" on="0"/>
        <pt x="124" y="560" on="0"/>
        <pt x="139" y="662" on="0"/>
        <pt x="148" y="725" on="0"/>
        <pt x="148" y="725" on="1"/>
        <pt x="248" y="725" on="1"/>
        <pt x="198" y="393" on="1"/>
        <pt x="470" y="725" on="1"/>
        <pt x="589" y="725" on="1"/>
      </contour>
    </TTGlyph>
    <TTGlyph name="Kcommaaccent" xMin="40" yMin="-243" xMax="589" yMax="725">
      <component glyphName="K" x="0" y="0" flags="0x204"/>
      <component glyphName="commaaccent.cap" x="49" y="9" flags="0x4"/>
    </TTGlyph>
    <TTGlyph name="Kcommaaccent.flat" xMin="40" yMin="-243" xMax="589" yMax="725">
      <component glyphName="K.flat" x="0" y="0" flags="0x204"/>
      <component glyphName="commaaccent.cap" x="49" y="9" flags="0x4"/>
    </TTGlyph>
    <TTGlyph name="L" xMin="41" yMin="0" xMax="369" yMax="725">
      <contour>
        <pt x="41" y="0" on="1"/>
        <pt x="150" y="725" on="1"/>
        <pt x="248" y="725" on="1"/>
        <pt x="153" y="92" on="1"/>
        <pt x="369" y="92" on="1"/>
        <pt x="369" y="0" on="1"/>
      </contour>
    </TTGlyph>
    <TTGlyph name="L.flat" xMin="41" yMin="0" xMax="376" yMax="725">
      <contour>
        <pt x="41" y="0" on="1"/>
        <pt x="150" y="725" on="1"/>
        <pt x="248" y="725" on="1"/>
        <pt x="153" y="92" on="1"/>
        <pt x="376" y="92" on="1"/>
        <pt x="362" y="0" on="1"/>
      </contour>
    </TTGlyph>
    <TTGlyph name="Lacute" xMin="41" yMin="0" xMax="384" yMax="941">
      <component glyphName="acute.cap" x="-5" y="216" flags="0x4"/>
      <component glyphName="L" x="0" y="0" flags="0x4"/>
    </TTGlyph>
    <TTGlyph name="Lacute.flat" xMin="41" yMin="0" xMax="384" yMax="941">
      <component glyphName="acute.cap" x="-5" y="216" flags="0x4"/>
      <component glyphName="L.flat" x="0" y="0" flags="0x4"/>
    </TTGlyph>
    <TTGlyph name="Lcaron" xMin="41" yMin="0" xMax="407" yMax="731">
      <component glyphName="L" x="0" y="0" flags="0x204"/>
      <component glyphName="caron.alt.cap" x="53" y="-27" flags="0x4"/>
    </TTGlyph>
    <TTGlyph name="Lcaron.flat" xMin="41" yMin="0" xMax="407" yMax="731">
      <component glyphName="L.flat" x="0" y="0" flags="0x204"/>
      <component glyphName="caron.alt.cap" x="53" y="-27" flags="0x4"/>
    </TTGlyph>
    <TTGlyph name="Lcommaaccent" xMin="41" yMin="-252" xMax="369" yMax="725">
      <component glyphName="L" x="0" y="0" flags="0x204"/>
      <component glyphName="commaaccent.cap" x="-3" y="0" flags="0x4"/>
    </TTGlyph>
    <TTGlyph name="Lcommaaccent.flat" xMin="41" yMin="-252" xMax="376" yMax="725">
      <component glyphName="L.flat" x="0" y="0" flags="0x204"/>
      <component glyphName="commaaccent.cap" x="-3" y="0" flags="0x4"/>
    </TTGlyph>
    <TTGlyph name="Ldot" xMin="41" yMin="0" xMax="415" yMax="725">
      <contour>
        <pt x="299" y="323" on="1"/>
        <pt x="314" y="428" on="1"/>
        <pt x="415" y="428" on="1"/>
        <pt x="399" y="323" on="1"/>
      </contour>
      <contour>
        <pt x="41" y="0" on="1"/>
        <pt x="150" y="725" on="1"/>
        <pt x="248" y="725" on="1"/>
        <pt x="153" y="92" on="1"/>
        <pt x="369" y="92" on="1"/>
        <pt x="369" y="0" on="1"/>
      </contour>
    </TTGlyph>
    <TTGlyph name="Ldot.flat" xMin="41" yMin="0" xMax="415" yMax="725">
      <contour>
        <pt x="299" y="323" on="1"/>
        <pt x="314" y="428" on="1"/>
        <pt x="415" y="428" on="1"/>
        <pt x="399" y="323" on="1"/>
      </contour>
      <contour>
        <pt x="41" y="0" on="1"/>
        <pt x="150" y="725" on="1"/>
        <pt x="248" y="725" on="1"/>
        <pt x="153" y="92" on="1"/>
        <pt x="376" y="92" on="1"/>
        <pt x="362" y="0" on="1"/>
      </contour>
    </TTGlyph>
    <TTGlyph name="Lslash" xMin="38" yMin="0" xMax="389" yMax="725">
      <contour>
        <pt x="61" y="0" on="1"/>
        <pt x="102" y="272" on="1"/>
        <pt x="38" y="238" on="1"/>
        <pt x="38" y="330" on="1"/>
        <pt x="116" y="371" on="1"/>
        <pt x="169" y="725" on="1"/>
        <pt x="268" y="725" on="1"/>
        <pt x="223" y="424" on="1"/>
        <pt x="366" y="498" on="1"/>
        <pt x="351" y="397" on="1"/>
        <pt x="208" y="325" on="1"/>
        <pt x="173" y="92" on="1"/>
        <pt x="389" y="92" on="1"/>
        <pt x="389" y="0" on="1"/>
      </contour>
    </TTGlyph>
    <TTGlyph name="Lslash.flat" xMin="30" yMin="0" xMax="392" yMax="725">
      <contour>
        <pt x="61" y="0" on="1"/>
        <pt x="102" y="272" on="1"/>
        <pt x="30" y="234" on="1"/>
        <pt x="45" y="333" on="1"/>
        <pt x="116" y="371" on="1"/>
        <pt x="169" y="725" on="1"/>
        <pt x="268" y="725" on="1"/>
        <pt x="223" y="424" on="1"/>
        <pt x="366" y="498" on="1"/>
        <pt x="351" y="397" on="1"/>
        <pt x="208" y="325" on="1"/>
        <pt x="173" y="92" on="1"/>
        <pt x="392" y="92" on="1"/>
        <pt x="385" y="0" on="1"/>
      </contour>
    </TTGlyph>
    <TTGlyph name="M" xMin="23" yMin="-3" xMax="781" yMax="725">
      <contour>
        <pt x="722" y="0" on="1"/>
        <pt x="625" y="0" on="1"/>
        <pt x="676" y="574" on="1"/>
        <pt x="410" y="-3" on="1"/>
        <pt x="329" y="-3" on="1"/>
        <pt x="236" y="573" on="1"/>
        <pt x="117" y="0" on="1"/>
        <pt x="23" y="0" on="1"/>
        <pt x="179" y="725" on="1"/>
        <pt x="300" y="725" on="1"/>
        <pt x="392" y="138" on="1"/>
        <pt x="657" y="725" on="1"/>
        <pt x="781" y="725" on="1"/>
      </contour>
    </TTGlyph>
    <TTGlyph name="M.alt" xMin="41" yMin="-3" xMax="794" yMax="725">
      <contour>
        <pt x="593" y="0" on="1"/>
        <pt x="677" y="564" on="1"/>
        <pt x="403" y="-3" on="1"/>
        <pt x="319" y="-3" on="1"/>
        <pt x="214" y="564" on="1"/>
        <pt x="130" y="0" on="1"/>
        <pt x="41" y="0" on="1"/>
        <pt x="150" y="725" on="1"/>
        <pt x="271" y="725" on="1"/>
        <pt x="382" y="131" on="1"/>
        <pt x="665" y="725" on="1"/>
        <pt x="794" y="725" on="1"/>
        <pt x="686" y="0" on="1"/>
      </contour>
    </TTGlyph>
    <TTGlyph name="N" xMin="40" yMin="0" xMax="618" yMax="725">
      <contour>
        <pt x="618" y="725" on="1"/>
        <pt x="618" y="725" on="0"/>
        <pt x="608" y="662" on="0"/>
        <pt x="593" y="560" on="0"/>
        <pt x="574" y="430" on="0"/>
        <pt x="564" y="362" on="1"/>
        <pt x="510" y="0" on="1"/>
        <pt x="435" y="0" on="1"/>
        <pt x="214" y="564" on="1"/>
        <pt x="131" y="0" on="1"/>
        <pt x="40" y="0" on="1"/>
        <pt x="71" y="203" on="0"/>
        <pt x="95" y="362" on="1"/>
        <pt x="105" y="430" on="0"/>
        <pt x="124" y="560" on="0"/>
        <pt x="139" y="662" on="0"/>
        <pt x="148" y="725" on="0"/>
        <pt x="148" y="725" on="1"/>
        <pt x="246" y="725" on="1"/>
        <pt x="451" y="199" on="1"/>
        <pt x="527" y="725" on="1"/>
        <pt x="618" y="725" on="1"/>
      </contour>
    </TTGlyph>
    <TTGlyph name="Nacute" xMin="40" yMin="0" xMax="618" yMax="927">
      <component glyphName="acute.cap" x="171" y="202" flags="0x4"/>
      <component glyphName="N" x="0" y="0" flags="0x4"/>
    </TTGlyph>
    <TTGlyph name="Ncaron" xMin="40" yMin="0" xMax="618" yMax="918">
      <component glyphName="caron.cap" x="121" y="202" flags="0x4"/>
      <component glyphName="N" x="0" y="0" flags="0x4"/>
    </TTGlyph>
    <TTGlyph name="Ncommaaccent" xMin="40" yMin="-243" xMax="618" yMax="725">
      <component glyphName="commaaccent.cap" x="72" y="9" flags="0x4"/>
      <component glyphName="N" x="0" y="0" flags="0x4"/>
    </TTGlyph>
    <TTGlyph name="Ntilde" xMin="40" yMin="0" xMax="618" yMax="906">
      <component glyphName="tilde.cap" x="123" y="202" flags="0x4"/>
      <component glyphName="N" x="0" y="0" flags="0x4"/>
    </TTGlyph>
    <TTGlyph name="O" xMin="61" yMin="-14" xMax="619" yMax="738">
      <contour>
        <pt x="301" y="-14" on="1"/>
        <pt x="242" y="-14" on="0"/>
        <pt x="153" y="29" on="0"/>
        <pt x="92" y="108" on="0"/>
        <pt x="61" y="218" on="0"/>
        <pt x="61" y="284" on="1"/>
        <pt x="61" y="339" on="0"/>
        <pt x="79" y="447" on="0"/>
        <pt x="112" y="544" on="0"/>
        <pt x="161" y="628" on="0"/>
        <pt x="193" y="659" on="1"/>
        <pt x="229" y="696" on="0"/>
        <pt x="319" y="738" on="0"/>
        <pt x="379" y="738" on="1"/>
        <pt x="438" y="738" on="0"/>
        <pt x="528" y="695" on="0"/>
        <pt x="588" y="617" on="0"/>
        <pt x="619" y="508" on="0"/>
        <pt x="619" y="442" on="1"/>
        <pt x="619" y="386" on="0"/>
        <pt x="601" y="278" on="0"/>
        <pt x="568" y="180" on="0"/>
        <pt x="519" y="97" on="0"/>
        <pt x="488" y="66" on="1"/>
        <pt x="451" y="30" on="0"/>
        <pt x="361" y="-14" on="0"/>
      </contour>
      <contour>
        <pt x="303" y="73" on="1"/>
        <pt x="335" y="73" on="0"/>
        <pt x="390" y="99" on="0"/>
        <pt x="413" y="122" on="1"/>
        <pt x="437" y="146" on="0"/>
        <pt x="477" y="215" on="0"/>
        <pt x="504" y="298" on="0"/>
        <pt x="519" y="391" on="0"/>
        <pt x="519" y="441" on="1"/>
        <pt x="519" y="544" on="0"/>
        <pt x="446" y="652" on="0"/>
        <pt x="377" y="652" on="1"/>
        <pt x="314" y="652" on="0"/>
        <pt x="267" y="603" on="1"/>
        <pt x="218" y="553" on="0"/>
        <pt x="161" y="385" on="0"/>
        <pt x="161" y="285" on="1"/>
        <pt x="161" y="182" on="0"/>
        <pt x="234" y="73" on="0"/>
      </contour>
    </TTGlyph>
    <TTGlyph name="OE" xMin="63" yMin="0" xMax="818" yMax="725">
      <contour>
        <pt x="165" y="300" on="1"/>
        <pt x="165" y="195" on="0"/>
        <pt x="268" y="89" on="0"/>
        <pt x="365" y="89" on="1"/>
        <pt x="388" y="89" on="1"/>
        <pt x="470" y="636" on="1"/>
        <pt x="463" y="636" on="1"/>
        <pt x="390" y="634" on="0"/>
        <pt x="292" y="594" on="0"/>
        <pt x="256" y="559" on="1"/>
        <pt x="212" y="515" on="0"/>
        <pt x="165" y="385" on="0"/>
      </contour>
      <contour>
        <pt x="818" y="725" on="1"/>
        <pt x="804" y="633" on="1"/>
        <pt x="568" y="633" on="1"/>
        <pt x="536" y="425" on="1"/>
        <pt x="719" y="425" on="1"/>
        <pt x="719" y="333" on="1"/>
        <pt x="522" y="333" on="1"/>
        <pt x="485" y="91" on="1"/>
        <pt x="733" y="91" on="1"/>
        <pt x="719" y="0" on="1"/>
        <pt x="361" y="0" on="1"/>
        <pt x="291" y="0" on="0"/>
        <pt x="181" y="40" on="0"/>
        <pt x="104" y="117" on="0"/>
        <pt x="63" y="226" on="0"/>
        <pt x="63" y="295" on="1"/>
        <pt x="63" y="393" on="0"/>
        <pt x="125" y="557" on="0"/>
        <pt x="181" y="613" on="1"/>
        <pt x="233" y="666" on="0"/>
        <pt x="379" y="725" on="0"/>
        <pt x="482" y="725" on="1"/>
      </contour>
    </TTGlyph>
    <TTGlyph name="OE.flat" xMin="63" yMin="0" xMax="818" yMax="725">
      <contour>
        <pt x="165" y="300" on="1"/>
        <pt x="165" y="195" on="0"/>
        <pt x="268" y="89" on="0"/>
        <pt x="365" y="89" on="1"/>
        <pt x="388" y="89" on="1"/>
        <pt x="470" y="636" on="1"/>
        <pt x="463" y="636" on="1"/>
        <pt x="390" y="635" on="0"/>
        <pt x="292" y="594" on="0"/>
        <pt x="256" y="559" on="1"/>
        <pt x="212" y="515" on="0"/>
        <pt x="165" y="385" on="0"/>
      </contour>
      <contour>
        <pt x="818" y="725" on="1"/>
        <pt x="804" y="633" on="1"/>
        <pt x="568" y="633" on="1"/>
        <pt x="536" y="425" on="1"/>
        <pt x="725" y="425" on="1"/>
        <pt x="712" y="333" on="1"/>
        <pt x="522" y="333" on="1"/>
        <pt x="485" y="91" on="1"/>
        <pt x="733" y="91" on="1"/>
        <pt x="719" y="0" on="1"/>
        <pt x="361" y="0" on="1"/>
        <pt x="291" y="0" on="0"/>
        <pt x="181" y="40" on="0"/>
        <pt x="104" y="117" on="0"/>
        <pt x="63" y="226" on="0"/>
        <pt x="63" y="295" on="1"/>
        <pt x="63" y="393" on="0"/>
        <pt x="125" y="557" on="0"/>
        <pt x="181" y="613" on="1"/>
        <pt x="233" y="666" on="0"/>
        <pt x="379" y="725" on="0"/>
        <pt x="482" y="725" on="1"/>
      </contour>
    </TTGlyph>
    <TTGlyph name="Oacute" xMin="61" yMin="-14" xMax="619" yMax="948">
      <component glyphName="acute.cap" x="182" y="223" flags="0x4"/>
      <component glyphName="O" x="0" y="0" flags="0x4"/>
    </TTGlyph>
    <TTGlyph name="Obreve" xMin="61" yMin="-14" xMax="619" yMax="927">
      <component glyphName="breve.cap" x="127" y="223" flags="0x4"/>
      <component glyphName="O" x="0" y="0" flags="0x4"/>
    </TTGlyph>
    <TTGlyph name="Ocircumflex" xMin="61" yMin="-14" xMax="619" yMax="940">
      <component glyphName="O" x="0" y="0" flags="0x204"/>
      <component glyphName="circumflex.cap" x="130" y="223" flags="0x4"/>
    </TTGlyph>
    <TTGlyph name="Odieresis" xMin="61" yMin="-14" xMax="619" yMax="904">
      <component glyphName="dieresis.cap" x="133" y="223" flags="0x4"/>
      <component glyphName="O" x="0" y="0" flags="0x4"/>
    </TTGlyph>
    <TTGlyph name="Ograve" xMin="61" yMin="-14" xMax="619" yMax="948">
      <component glyphName="grave.cap" x="77" y="223" flags="0x4"/>
      <component glyphName="O" x="0" y="0" flags="0x4"/>
    </TTGlyph>
    <TTGlyph name="Ohungarumlaut" xMin="61" yMin="-14" xMax="632" yMax="947">
      <component glyphName="O" x="0" y="0" flags="0x204"/>
      <component glyphName="hungarumlaut.cap" x="179" y="223" flags="0x4"/>
    </TTGlyph>
    <TTGlyph name="Omacron" xMin="61" yMin="-14" xMax="619" yMax="890">
      <component glyphName="macron.cap" x="133" y="223" flags="0x4"/>
      <component glyphName="O" x="0" y="0" flags="0x4"/>
    </TTGlyph>
    <TTGlyph name="Oslash" xMin="-3" yMin="-14" xMax="683" yMax="738">
      <contour>
        <pt x="301" y="-14" on="1"/>
        <pt x="247" y="-14" on="0"/>
        <pt x="164" y="22" on="0"/>
        <pt x="134" y="55" on="1"/>
        <pt x="80" y="-11" on="1"/>
        <pt x="-3" y="11" on="1"/>
        <pt x="91" y="123" on="1"/>
        <pt x="61" y="190" on="0"/>
        <pt x="61" y="284" on="1"/>
        <pt x="61" y="339" on="0"/>
        <pt x="79" y="447" on="0"/>
        <pt x="112" y="544" on="0"/>
        <pt x="161" y="628" on="0"/>
        <pt x="193" y="660" on="1"/>
        <pt x="229" y="696" on="0"/>
        <pt x="319" y="738" on="0"/>
        <pt x="379" y="738" on="1"/>
        <pt x="433" y="738" on="0"/>
        <pt x="517" y="702" on="0"/>
        <pt x="547" y="669" on="1"/>
        <pt x="601" y="735" on="1"/>
        <pt x="683" y="713" on="1"/>
        <pt x="590" y="602" on="1"/>
        <pt x="619" y="533" on="0"/>
        <pt x="619" y="442" on="1"/>
        <pt x="619" y="386" on="0"/>
        <pt x="601" y="278" on="0"/>
        <pt x="568" y="181" on="0"/>
        <pt x="518" y="97" on="0"/>
        <pt x="487" y="66" on="1"/>
        <pt x="451" y="30" on="0"/>
        <pt x="361" y="-14" on="0"/>
      </contour>
      <contour>
        <pt x="159" y="285" on="1"/>
        <pt x="159" y="239" on="0"/>
        <pt x="166" y="205" on="1"/>
        <pt x="487" y="595" on="1"/>
        <pt x="450" y="654" on="0"/>
        <pt x="377" y="654" on="1"/>
        <pt x="315" y="654" on="0"/>
        <pt x="266" y="605" on="1"/>
        <pt x="216" y="555" on="0"/>
        <pt x="159" y="384" on="0"/>
      </contour>
      <contour>
        <pt x="303" y="70" on="1"/>
        <pt x="335" y="70" on="0"/>
        <pt x="390" y="97" on="0"/>
        <pt x="414" y="121" on="1"/>
        <pt x="439" y="145" on="0"/>
        <pt x="479" y="214" on="0"/>
        <pt x="506" y="297" on="0"/>
        <pt x="521" y="391" on="0"/>
        <pt x="521" y="441" on="1"/>
        <pt x="521" y="483" on="0"/>
        <pt x="515" y="519" on="1"/>
        <pt x="193" y="130" on="1"/>
        <pt x="231" y="70" on="0"/>
      </contour>
    </TTGlyph>
    <TTGlyph name="Oslashacute" xMin="-3" yMin="-14" xMax="683" yMax="948">
      <component glyphName="Oslash" x="0" y="0" flags="0x204"/>
      <component glyphName="acute.cap" x="183" y="223" flags="0x4"/>
    </TTGlyph>
    <TTGlyph name="Otilde" xMin="61" yMin="-14" xMax="619" yMax="927">
      <component glyphName="tilde.cap" x="134" y="223" flags="0x4"/>
      <component glyphName="O" x="0" y="0" flags="0x4"/>
    </TTGlyph>
    <TTGlyph name="P" xMin="41" yMin="0" xMax="514" yMax="725">
      <contour>
        <pt x="514" y="524" on="1"/>
        <pt x="514" y="466" on="0"/>
        <pt x="473" y="375" on="0"/>
        <pt x="398" y="312" on="0"/>
        <pt x="294" y="278" on="0"/>
        <pt x="230" y="278" on="1"/>
        <pt x="182" y="278" on="1"/>
        <pt x="140" y="0" on="1"/>
        <pt x="41" y="0" on="1"/>
        <pt x="150" y="725" on="1"/>
        <pt x="272" y="725" on="1"/>
        <pt x="393" y="725" on="0"/>
        <pt x="514" y="618" on="0"/>
      </contour>
      <contour>
        <pt x="415" y="521" on="1"/>
        <pt x="415" y="581" on="0"/>
        <pt x="340" y="638" on="0"/>
        <pt x="272" y="638" on="1"/>
        <pt x="235" y="638" on="1"/>
        <pt x="196" y="366" on="1"/>
        <pt x="240" y="366" on="1"/>
        <pt x="327" y="366" on="0"/>
        <pt x="415" y="451" on="0"/>
      </contour>
    </TTGlyph>
    <TTGlyph name="Q" xMin="61" yMin="-151" xMax="619" yMax="738">
      <contour>
        <pt x="252" y="-24" on="1"/>
        <pt x="202" y="0" on="0"/>
        <pt x="129" y="57" on="0"/>
        <pt x="83" y="130" on="0"/>
        <pt x="61" y="223" on="0"/>
        <pt x="61" y="283" on="1"/>
        <pt x="61" y="339" on="0"/>
        <pt x="79" y="447" on="0"/>
        <pt x="112" y="544" on="0"/>
        <pt x="161" y="628" on="0"/>
        <pt x="193" y="659" on="1"/>
        <pt x="229" y="696" on="0"/>
        <pt x="319" y="738" on="0"/>
        <pt x="379" y="738" on="1"/>
        <pt x="438" y="738" on="0"/>
        <pt x="528" y="694" on="0"/>
        <pt x="588" y="616" on="0"/>
        <pt x="619" y="507" on="0"/>
        <pt x="619" y="443" on="1"/>
        <pt x="619" y="387" on="0"/>
        <pt x="602" y="280" on="0"/>
        <pt x="569" y="183" on="0"/>
        <pt x="521" y="101" on="0"/>
        <pt x="491" y="70" on="1"/>
        <pt x="471" y="50" on="0"/>
        <pt x="425" y="18" on="0"/>
        <pt x="398" y="6" on="1"/>
        <pt x="560" y="-61" on="1"/>
        <pt x="527" y="-151" on="1"/>
      </contour>
      <contour>
        <pt x="303" y="73" on="1"/>
        <pt x="335" y="73" on="0"/>
        <pt x="390" y="99" on="0"/>
        <pt x="413" y="122" on="1"/>
        <pt x="437" y="146" on="0"/>
        <pt x="477" y="215" on="0"/>
        <pt x="504" y="298" on="0"/>
        <pt x="519" y="391" on="0"/>
        <pt x="519" y="441" on="1"/>
        <pt x="519" y="544" on="0"/>
        <pt x="446" y="652" on="0"/>
        <pt x="377" y="652" on="1"/>
        <pt x="314" y="652" on="0"/>
        <pt x="267" y="603" on="1"/>
        <pt x="218" y="553" on="0"/>
        <pt x="161" y="384" on="0"/>
        <pt x="161" y="285" on="1"/>
        <pt x="161" y="182" on="0"/>
        <pt x="234" y="73" on="0"/>
      </contour>
    </TTGlyph>
    <TTGlyph name="Q.alt" xMin="61" yMin="-15" xMax="619" yMax="738">
      <contour>
        <pt x="481" y="62" on="1"/>
        <pt x="479" y="60" on="0"/>
        <pt x="473" y="55" on="0"/>
        <pt x="471" y="52" on="1"/>
        <pt x="437" y="22" on="0"/>
        <pt x="355" y="-14" on="0"/>
        <pt x="301" y="-14" on="1"/>
        <pt x="242" y="-14" on="0"/>
        <pt x="153" y="29" on="0"/>
        <pt x="92" y="108" on="0"/>
        <pt x="61" y="218" on="0"/>
        <pt x="61" y="284" on="1"/>
        <pt x="61" y="339" on="0"/>
        <pt x="79" y="447" on="0"/>
        <pt x="112" y="544" on="0"/>
        <pt x="161" y="628" on="0"/>
        <pt x="193" y="659" on="1"/>
        <pt x="229" y="696" on="0"/>
        <pt x="319" y="738" on="0"/>
        <pt x="379" y="738" on="1"/>
        <pt x="438" y="738" on="0"/>
        <pt x="528" y="695" on="0"/>
        <pt x="588" y="617" on="0"/>
        <pt x="619" y="508" on="0"/>
        <pt x="619" y="442" on="1"/>
        <pt x="619" y="355" on="0"/>
        <pt x="577" y="194" on="0"/>
        <pt x="537" y="131" on="1"/>
        <pt x="586" y="82" on="1"/>
        <pt x="554" y="-15" on="1"/>
      </contour>
      <contour>
        <pt x="303" y="73" on="1"/>
        <pt x="335" y="73" on="0"/>
        <pt x="390" y="99" on="0"/>
        <pt x="414" y="122" on="1"/>
        <pt x="418" y="126" on="1"/>
        <pt x="290" y="254" on="1"/>
        <pt x="396" y="278" on="1"/>
        <pt x="469" y="201" on="1"/>
        <pt x="493" y="251" on="0"/>
        <pt x="519" y="374" on="0"/>
        <pt x="519" y="441" on="1"/>
        <pt x="519" y="544" on="0"/>
        <pt x="446" y="652" on="0"/>
        <pt x="377" y="652" on="1"/>
        <pt x="314" y="652" on="0"/>
        <pt x="267" y="603" on="1"/>
        <pt x="218" y="553" on="0"/>
        <pt x="161" y="385" on="0"/>
        <pt x="161" y="285" on="1"/>
        <pt x="161" y="182" on="0"/>
        <pt x="234" y="73" on="0"/>
      </contour>
    </TTGlyph>
    <TTGlyph name="Q.alt_flat" xMin="61" yMin="-16" xMax="619" yMax="738">
      <contour>
        <pt x="485" y="65" on="1"/>
        <pt x="476" y="56" on="1"/>
        <pt x="441" y="24" on="0"/>
        <pt x="358" y="-14" on="0"/>
        <pt x="301" y="-14" on="1"/>
        <pt x="242" y="-14" on="0"/>
        <pt x="153" y="29" on="0"/>
        <pt x="92" y="108" on="0"/>
        <pt x="61" y="218" on="0"/>
        <pt x="61" y="284" on="1"/>
        <pt x="61" y="339" on="0"/>
        <pt x="79" y="447" on="0"/>
        <pt x="112" y="544" on="0"/>
        <pt x="161" y="628" on="0"/>
        <pt x="193" y="659" on="1"/>
        <pt x="229" y="696" on="0"/>
        <pt x="319" y="738" on="0"/>
        <pt x="379" y="738" on="1"/>
        <pt x="438" y="738" on="0"/>
        <pt x="528" y="695" on="0"/>
        <pt x="588" y="617" on="0"/>
        <pt x="619" y="508" on="0"/>
        <pt x="619" y="442" on="1"/>
        <pt x="619" y="357" on="0"/>
        <pt x="579" y="199" on="0"/>
        <pt x="541" y="136" on="1"/>
        <pt x="596" y="85" on="1"/>
        <pt x="571" y="-16" on="1"/>
      </contour>
      <contour>
        <pt x="303" y="73" on="1"/>
        <pt x="335" y="73" on="0"/>
        <pt x="390" y="99" on="0"/>
        <pt x="414" y="122" on="1"/>
        <pt x="419" y="127" on="1"/>
        <pt x="336" y="204" on="1"/>
        <pt x="360" y="306" on="1"/>
        <pt x="470" y="203" on="1"/>
        <pt x="493" y="252" on="0"/>
        <pt x="519" y="374" on="0"/>
        <pt x="519" y="441" on="1"/>
        <pt x="519" y="544" on="0"/>
        <pt x="446" y="652" on="0"/>
        <pt x="377" y="652" on="1"/>
        <pt x="314" y="652" on="0"/>
        <pt x="267" y="603" on="1"/>
        <pt x="218" y="553" on="0"/>
        <pt x="161" y="385" on="0"/>
        <pt x="161" y="285" on="1"/>
        <pt x="161" y="182" on="0"/>
        <pt x="234" y="73" on="0"/>
      </contour>
    </TTGlyph>
    <TTGlyph name="R" xMin="40" yMin="-7" xMax="510" yMax="725">
      <contour>
        <pt x="510" y="538" on="1"/>
        <pt x="510" y="491" on="0"/>
        <pt x="482" y="416" on="0"/>
        <pt x="434" y="361" on="0"/>
        <pt x="370" y="325" on="0"/>
        <pt x="334" y="317" on="1"/>
        <pt x="479" y="16" on="1"/>
        <pt x="381" y="-7" on="1"/>
        <pt x="234" y="307" on="1"/>
        <pt x="185" y="307" on="1"/>
        <pt x="139" y="0" on="1"/>
        <pt x="40" y="0" on="1"/>
        <pt x="71" y="203" on="0"/>
        <pt x="95" y="362" on="1"/>
        <pt x="105" y="430" on="0"/>
        <pt x="124" y="560" on="0"/>
        <pt x="139" y="662" on="0"/>
        <pt x="148" y="725" on="0"/>
        <pt x="148" y="725" on="1"/>
        <pt x="277" y="725" on="1"/>
        <pt x="391" y="725" on="0"/>
        <pt x="510" y="629" on="0"/>
      </contour>
      <contour>
        <pt x="411" y="530" on="1"/>
        <pt x="411" y="552" on="0"/>
        <pt x="397" y="592" on="0"/>
        <pt x="366" y="621" on="0"/>
        <pt x="314" y="638" on="0"/>
        <pt x="275" y="638" on="1"/>
        <pt x="234" y="638" on="1"/>
        <pt x="197" y="390" on="1"/>
        <pt x="262" y="390" on="1"/>
        <pt x="299" y="390" on="0"/>
        <pt x="355" y="412" on="0"/>
        <pt x="393" y="450" on="0"/>
        <pt x="411" y="501" on="0"/>
      </contour>
    </TTGlyph>
    <TTGlyph name="R.flat" xMin="40" yMin="0" xMax="510" yMax="725">
      <contour>
        <pt x="510" y="538" on="1"/>
        <pt x="510" y="491" on="0"/>
        <pt x="482" y="416" on="0"/>
        <pt x="434" y="361" on="0"/>
        <pt x="370" y="325" on="0"/>
        <pt x="334" y="317" on="1"/>
        <pt x="487" y="0" on="1"/>
        <pt x="377" y="0" on="1"/>
        <pt x="234" y="307" on="1"/>
        <pt x="185" y="307" on="1"/>
        <pt x="139" y="0" on="1"/>
        <pt x="40" y="0" on="1"/>
        <pt x="71" y="203" on="0"/>
        <pt x="95" y="362" on="1"/>
        <pt x="105" y="430" on="0"/>
        <pt x="124" y="560" on="0"/>
        <pt x="139" y="662" on="0"/>
        <pt x="148" y="725" on="0"/>
        <pt x="148" y="725" on="1"/>
        <pt x="277" y="725" on="1"/>
        <pt x="391" y="725" on="0"/>
        <pt x="510" y="629" on="0"/>
      </contour>
      <contour>
        <pt x="411" y="530" on="1"/>
        <pt x="411" y="552" on="0"/>
        <pt x="397" y="592" on="0"/>
        <pt x="366" y="621" on="0"/>
        <pt x="314" y="638" on="0"/>
        <pt x="275" y="638" on="1"/>
        <pt x="234" y="638" on="1"/>
        <pt x="197" y="390" on="1"/>
        <pt x="262" y="390" on="1"/>
        <pt x="299" y="390" on="0"/>
        <pt x="355" y="412" on="0"/>
        <pt x="393" y="450" on="0"/>
        <pt x="411" y="501" on="0"/>
      </contour>
    </TTGlyph>
    <TTGlyph name="R_p" xMin="44" yMin="-197" xMax="938" yMax="717">
      <contour>
        <pt x="229" y="304" on="1"/>
        <pt x="183" y="304" on="1"/>
        <pt x="138" y="0" on="1"/>
        <pt x="44" y="0" on="1"/>
        <pt x="151" y="717" on="1"/>
        <pt x="269" y="717" on="1"/>
        <pt x="381" y="717" on="0"/>
        <pt x="500" y="622" on="0"/>
        <pt x="500" y="533" on="1"/>
        <pt x="500" y="486" on="0"/>
        <pt x="472" y="412" on="0"/>
        <pt x="424" y="357" on="0"/>
        <pt x="361" y="322" on="0"/>
        <pt x="325" y="313" on="1"/>
        <pt x="466" y="16" on="1"/>
        <pt x="372" y="-7" on="1"/>
      </contour>
      <contour>
        <pt x="403" y="525" on="1"/>
        <pt x="403" y="548" on="0"/>
        <pt x="390" y="588" on="0"/>
        <pt x="359" y="617" on="0"/>
        <pt x="308" y="634" on="0"/>
        <pt x="270" y="634" on="1"/>
        <pt x="232" y="634" on="1"/>
        <pt x="195" y="385" on="1"/>
        <pt x="257" y="385" on="1"/>
        <pt x="294" y="385" on="0"/>
        <pt x="349" y="407" on="0"/>
        <pt x="385" y="444" on="0"/>
        <pt x="403" y="495" on="0"/>
      </contour>
      <contour>
        <pt x="619" y="88" on="1"/>
        <pt x="635" y="80" on="0"/>
        <pt x="662" y="73" on="0"/>
        <pt x="682" y="73" on="1"/>
        <pt x="712" y="73" on="0"/>
        <pt x="770" y="109" on="0"/>
        <pt x="816" y="177" on="0"/>
        <pt x="844" y="272" on="0"/>
        <pt x="844" y="332" on="1"/>
        <pt x="844" y="378" on="0"/>
        <pt x="814" y="435" on="0"/>
        <pt x="781" y="435" on="1"/>
        <pt x="750" y="435" on="0"/>
        <pt x="692" y="390" on="0"/>
        <pt x="659" y="355" on="1"/>
      </contour>
      <contour>
        <pt x="571" y="385" on="1"/>
        <pt x="571" y="507" on="1"/>
        <pt x="653" y="507" on="1"/>
        <pt x="659" y="438" on="1"/>
        <pt x="687" y="470" on="0"/>
        <pt x="759" y="518" on="0"/>
        <pt x="800" y="518" on="1"/>
        <pt x="828" y="518" on="0"/>
        <pt x="879" y="495" on="0"/>
        <pt x="916" y="450" on="0"/>
        <pt x="938" y="382" on="0"/>
        <pt x="938" y="338" on="1"/>
        <pt x="938" y="260" on="0"/>
        <pt x="895" y="133" on="0"/>
        <pt x="823" y="43" on="0"/>
        <pt x="729" y="-6" on="0"/>
        <pt x="679" y="-6" on="1"/>
        <pt x="658" y="-6" on="0"/>
        <pt x="621" y="1" on="0"/>
        <pt x="606" y="6" on="1"/>
        <pt x="592" y="-88" on="1"/>
        <pt x="578" y="-182" on="1"/>
        <pt x="483" y="-197" on="1"/>
      </contour>
    </TTGlyph>
    <TTGlyph name="R_p.flat" xMin="44" yMin="-197" xMax="938" yMax="717">
      <contour>
        <pt x="229" y="304" on="1"/>
        <pt x="183" y="304" on="1"/>
        <pt x="138" y="0" on="1"/>
        <pt x="44" y="0" on="1"/>
        <pt x="151" y="717" on="1"/>
        <pt x="269" y="717" on="1"/>
        <pt x="381" y="717" on="0"/>
        <pt x="500" y="622" on="0"/>
        <pt x="500" y="533" on="1"/>
        <pt x="500" y="486" on="0"/>
        <pt x="472" y="412" on="0"/>
        <pt x="424" y="357" on="0"/>
        <pt x="361" y="322" on="0"/>
        <pt x="325" y="313" on="1"/>
        <pt x="474" y="0" on="1"/>
        <pt x="369" y="0" on="1"/>
      </contour>
      <contour>
        <pt x="571" y="385" on="1"/>
        <pt x="571" y="507" on="1"/>
        <pt x="653" y="507" on="1"/>
        <pt x="659" y="438" on="1"/>
        <pt x="687" y="470" on="0"/>
        <pt x="759" y="518" on="0"/>
        <pt x="800" y="518" on="1"/>
        <pt x="828" y="518" on="0"/>
        <pt x="879" y="495" on="0"/>
        <pt x="916" y="450" on="0"/>
        <pt x="938" y="382" on="0"/>
        <pt x="938" y="338" on="1"/>
        <pt x="938" y="260" on="0"/>
        <pt x="895" y="133" on="0"/>
        <pt x="823" y="43" on="0"/>
        <pt x="729" y="-6" on="0"/>
        <pt x="679" y="-6" on="1"/>
        <pt x="658" y="-6" on="0"/>
        <pt x="621" y="1" on="0"/>
        <pt x="606" y="6" on="1"/>
        <pt x="592" y="-88" on="1"/>
        <pt x="578" y="-182" on="1"/>
        <pt x="483" y="-197" on="1"/>
      </contour>
      <contour>
        <pt x="619" y="88" on="1"/>
        <pt x="635" y="80" on="0"/>
        <pt x="662" y="73" on="0"/>
        <pt x="682" y="73" on="1"/>
        <pt x="712" y="73" on="0"/>
        <pt x="770" y="109" on="0"/>
        <pt x="816" y="177" on="0"/>
        <pt x="844" y="272" on="0"/>
        <pt x="844" y="332" on="1"/>
        <pt x="844" y="378" on="0"/>
        <pt x="814" y="435" on="0"/>
        <pt x="781" y="435" on="1"/>
        <pt x="750" y="435" on="0"/>
        <pt x="692" y="390" on="0"/>
        <pt x="659" y="355" on="1"/>
      </contour>
      <contour>
        <pt x="403" y="525" on="1"/>
        <pt x="403" y="548" on="0"/>
        <pt x="390" y="588" on="0"/>
        <pt x="359" y="617" on="0"/>
        <pt x="308" y="634" on="0"/>
        <pt x="270" y="634" on="1"/>
        <pt x="232" y="634" on="1"/>
        <pt x="195" y="385" on="1"/>
        <pt x="257" y="385" on="1"/>
        <pt x="294" y="385" on="0"/>
        <pt x="349" y="407" on="0"/>
        <pt x="385" y="444" on="0"/>
        <pt x="403" y="495" on="0"/>
      </contour>
    </TTGlyph>
    <TTGlyph name="Racute" xMin="40" yMin="-7" xMax="510" yMax="938">
      <component glyphName="R" x="0" y="0" flags="0x204"/>
      <component glyphName="acute.cap" x="108" y="213" flags="0x4"/>
    </TTGlyph>
    <TTGlyph name="Racute.flat" xMin="40" yMin="0" xMax="510" yMax="938">
      <component glyphName="acute.cap" x="108" y="213" flags="0x4"/>
      <component glyphName="R.flat" x="0" y="0" flags="0x4"/>
    </TTGlyph>
    <TTGlyph name="Rcaron" xMin="40" yMin="-7" xMax="510" yMax="929">
      <component glyphName="caron.cap" x="58" y="213" flags="0x4"/>
      <component glyphName="R" x="0" y="0" flags="0x4"/>
    </TTGlyph>
    <TTGlyph name="Rcaron.flat" xMin="40" yMin="0" xMax="510" yMax="929">
      <component glyphName="caron.cap" x="58" y="213" flags="0x4"/>
      <component glyphName="R.flat" x="0" y="0" flags="0x4"/>
    </TTGlyph>
    <TTGlyph name="Rcommaaccent" xMin="40" yMin="-243" xMax="510" yMax="725">
      <component glyphName="R" x="0" y="0" flags="0x204"/>
      <component glyphName="commaaccent.cap" x="40" y="9" flags="0x4"/>
    </TTGlyph>
    <TTGlyph name="Rcommaaccent.flat" xMin="40" yMin="-243" xMax="510" yMax="725">
      <component glyphName="R.flat" x="0" y="0" flags="0x4"/>
      <component glyphName="commaaccent.cap" x="40" y="9" flags="0x4"/>
    </TTGlyph>
    <TTGlyph name="S" xMin="20" yMin="-11" xMax="469" yMax="734">
      <contour>
        <pt x="440" y="594" on="1"/>
        <pt x="408" y="616" on="0"/>
        <pt x="341" y="646" on="0"/>
        <pt x="301" y="646" on="1"/>
        <pt x="250" y="646" on="0"/>
        <pt x="199" y="589" on="0"/>
        <pt x="199" y="551" on="1"/>
        <pt x="199" y="516" on="0"/>
        <pt x="244" y="458" on="0"/>
        <pt x="297" y="414" on="1"/>
        <pt x="332" y="385" on="0"/>
        <pt x="381" y="334" on="0"/>
        <pt x="412" y="283" on="0"/>
        <pt x="426" y="230" on="0"/>
        <pt x="426" y="200" on="1"/>
        <pt x="426" y="150" on="0"/>
        <pt x="391" y="71" on="0"/>
        <pt x="331" y="17" on="0"/>
        <pt x="252" y="-11" on="0"/>
        <pt x="207" y="-11" on="1"/>
        <pt x="153" y="-11" on="0"/>
        <pt x="54" y="24" on="0"/>
        <pt x="20" y="46" on="1"/>
        <pt x="48" y="140" on="1"/>
        <pt x="82" y="115" on="0"/>
        <pt x="164" y="78" on="0"/>
        <pt x="209" y="78" on="1"/>
        <pt x="260" y="78" on="0"/>
        <pt x="327" y="139" on="0"/>
        <pt x="327" y="192" on="1"/>
        <pt x="327" y="229" on="0"/>
        <pt x="286" y="290" on="0"/>
        <pt x="236" y="331" on="1"/>
        <pt x="202" y="358" on="0"/>
        <pt x="152" y="407" on="0"/>
        <pt x="118" y="456" on="0"/>
        <pt x="101" y="509" on="0"/>
        <pt x="101" y="541" on="1"/>
        <pt x="101" y="583" on="0"/>
        <pt x="131" y="653" on="0"/>
        <pt x="185" y="705" on="0"/>
        <pt x="261" y="734" on="0"/>
        <pt x="307" y="734" on="1"/>
        <pt x="355" y="734" on="0"/>
        <pt x="441" y="705" on="0"/>
        <pt x="469" y="687" on="1"/>
      </contour>
    </TTGlyph>
    <TTGlyph name="Sacute" xMin="20" yMin="-11" xMax="485" yMax="948">
      <component glyphName="S" x="0" y="0" flags="0x204"/>
      <component glyphName="acute.cap" x="96" y="223" flags="0x4"/>
    </TTGlyph>
    <TTGlyph name="Scaron" xMin="20" yMin="-11" xMax="475" yMax="939">
      <component glyphName="S" x="0" y="0" flags="0x204"/>
      <component glyphName="caron.cap" x="46" y="223" flags="0x4"/>
    </TTGlyph>
    <TTGlyph name="Scedilla" xMin="20" yMin="-203" xMax="469" yMax="734">
      <component glyphName="S" x="0" y="0" flags="0x204"/>
      <component glyphName="cedilla.cap" x="-2" y="-3" flags="0x4"/>
    </TTGlyph>
    <TTGlyph name="Scommaaccent" xMin="20" yMin="-261" xMax="469" yMax="734">
      <component glyphName="S" x="0" y="0" flags="0x204"/>
      <component glyphName="commaaccent.cap" x="-10" y="-9" flags="0x4"/>
    </TTGlyph>
    <TTGlyph name="T" xMin="89" yMin="0" xMax="555" yMax="725">
      <contour>
        <pt x="370" y="635" on="1"/>
        <pt x="275" y="0" on="1"/>
        <pt x="176" y="0" on="1"/>
        <pt x="270" y="635" on="1"/>
        <pt x="89" y="635" on="1"/>
        <pt x="104" y="725" on="1"/>
        <pt x="555" y="725" on="1"/>
        <pt x="555" y="635" on="1"/>
      </contour>
    </TTGlyph>
    <TTGlyph name="T.flat" xMin="89" yMin="0" xMax="562" yMax="725">
      <contour>
        <pt x="370" y="635" on="1"/>
        <pt x="275" y="0" on="1"/>
        <pt x="176" y="0" on="1"/>
        <pt x="270" y="635" on="1"/>
        <pt x="89" y="635" on="1"/>
        <pt x="104" y="725" on="1"/>
        <pt x="562" y="725" on="1"/>
        <pt x="549" y="635" on="1"/>
      </contour>
    </TTGlyph>
    <TTGlyph name="Tcaron" xMin="89" yMin="0" xMax="555" yMax="929">
      <component glyphName="caron.cap" x="73" y="213" flags="0x4"/>
      <component glyphName="T" x="0" y="0" flags="0x4"/>
    </TTGlyph>
    <TTGlyph name="Tcaron.flat" xMin="89" yMin="0" xMax="562" yMax="929">
      <component glyphName="caron.cap" x="73" y="213" flags="0x4"/>
      <component glyphName="T.flat" x="0" y="0" flags="0x4"/>
    </TTGlyph>
    <TTGlyph name="Tcommaaccent" xMin="89" yMin="-252" xMax="555" yMax="725">
      <component glyphName="T" x="0" y="0" flags="0x204"/>
      <component glyphName="commaaccent.cap" x="19" y="0" flags="0x4"/>
    </TTGlyph>
    <TTGlyph name="Tcommaaccent.flat" xMin="89" yMin="-252" xMax="562" yMax="725">
      <component glyphName="T.flat" x="0" y="0" flags="0x204"/>
      <component glyphName="commaaccent.cap" x="19" y="0" flags="0x4"/>
    </TTGlyph>
    <TTGlyph name="Thorn" xMin="41" yMin="0" xMax="491" yMax="725">
      <contour>
        <pt x="491" y="394" on="1"/>
        <pt x="491" y="340" on="0"/>
        <pt x="452" y="252" on="0"/>
        <pt x="380" y="190" on="0"/>
        <pt x="278" y="156" on="0"/>
        <pt x="215" y="156" on="1"/>
        <pt x="163" y="156" on="1"/>
        <pt x="140" y="0" on="1"/>
        <pt x="41" y="0" on="1"/>
        <pt x="150" y="725" on="1"/>
        <pt x="248" y="725" on="1"/>
        <pt x="228" y="589" on="1"/>
        <pt x="261" y="589" on="1"/>
        <pt x="377" y="589" on="0"/>
        <pt x="491" y="483" on="0"/>
      </contour>
      <contour>
        <pt x="392" y="388" on="1"/>
        <pt x="392" y="445" on="0"/>
        <pt x="322" y="503" on="0"/>
        <pt x="256" y="503" on="1"/>
        <pt x="215" y="503" on="1"/>
        <pt x="177" y="242" on="1"/>
        <pt x="224" y="242" on="1"/>
        <pt x="310" y="242" on="0"/>
        <pt x="392" y="325" on="0"/>
      </contour>
    </TTGlyph>
    <TTGlyph name="U" xMin="66" yMin="-14" xMax="607" yMax="725">
      <contour>
        <pt x="533" y="231" on="1"/>
        <pt x="515" y="109" on="0"/>
        <pt x="382" y="-14" on="0"/>
        <pt x="278" y="-14" on="1"/>
        <pt x="177" y="-14" on="0"/>
        <pt x="66" y="93" on="0"/>
        <pt x="66" y="191" on="1"/>
        <pt x="66" y="205" on="0"/>
        <pt x="69" y="238" on="0"/>
        <pt x="71" y="254" on="1"/>
        <pt x="141" y="725" on="1"/>
        <pt x="241" y="725" on="1"/>
        <pt x="171" y="252" on="1"/>
        <pt x="169" y="241" on="0"/>
        <pt x="167" y="214" on="0"/>
        <pt x="167" y="203" on="1"/>
        <pt x="167" y="143" on="0"/>
        <pt x="226" y="76" on="0"/>
        <pt x="285" y="76" on="1"/>
        <pt x="350" y="76" on="0"/>
        <pt x="424" y="163" on="0"/>
        <pt x="436" y="241" on="1"/>
        <pt x="508" y="725" on="1"/>
        <pt x="607" y="725" on="1"/>
      </contour>
    </TTGlyph>
    <TTGlyph name="U.alt" xMin="64" yMin="-8" xMax="605" yMax="725">
      <contour>
        <pt x="497" y="0" on="1"/>
        <pt x="418" y="0" on="1"/>
        <pt x="418" y="69" on="1"/>
        <pt x="371" y="36" on="0"/>
        <pt x="282" y="-8" on="0"/>
        <pt x="224" y="-8" on="1"/>
        <pt x="149" y="-8" on="0"/>
        <pt x="64" y="61" on="0"/>
        <pt x="64" y="139" on="1"/>
        <pt x="64" y="151" on="0"/>
        <pt x="66" y="177" on="0"/>
        <pt x="68" y="191" on="1"/>
        <pt x="147" y="725" on="1"/>
        <pt x="247" y="725" on="1"/>
        <pt x="168" y="198" on="1"/>
        <pt x="165" y="180" on="0"/>
        <pt x="165" y="162" on="1"/>
        <pt x="165" y="80" on="0"/>
        <pt x="249" y="80" on="1"/>
        <pt x="294" y="80" on="0"/>
        <pt x="374" y="123" on="0"/>
        <pt x="422" y="160" on="1"/>
        <pt x="507" y="725" on="1"/>
        <pt x="605" y="725" on="1"/>
      </contour>
    </TTGlyph>
    <TTGlyph name="Uacute" xMin="66" yMin="-14" xMax="607" yMax="927">
      <component glyphName="acute.cap" x="160" y="202" flags="0x4"/>
      <component glyphName="U" x="0" y="0" flags="0x4"/>
    </TTGlyph>
    <TTGlyph name="Uacute.alt" xMin="64" yMin="-8" xMax="605" yMax="927">
      <component glyphName="acute.cap" x="160" y="202" flags="0x4"/>
      <component glyphName="U.alt" x="0" y="0" flags="0x4"/>
    </TTGlyph>
    <TTGlyph name="Ubreve" xMin="66" yMin="-14" xMax="607" yMax="903">
      <component glyphName="breve.cap" x="105" y="199" flags="0x4"/>
      <component glyphName="U" x="0" y="0" flags="0x4"/>
    </TTGlyph>
    <TTGlyph name="Ubreve.alt" xMin="64" yMin="-8" xMax="605" yMax="903">
      <component glyphName="breve.cap" x="107" y="199" flags="0x4"/>
      <component glyphName="U.alt" x="0" y="0" flags="0x4"/>
    </TTGlyph>
    <TTGlyph name="Ucircumflex" xMin="66" yMin="-14" xMax="607" yMax="919">
      <component glyphName="U" x="0" y="0" flags="0x204"/>
      <component glyphName="circumflex.cap" x="109" y="202" flags="0x4"/>
    </TTGlyph>
    <TTGlyph name="Ucircumflex.alt" xMin="64" yMin="-8" xMax="605" yMax="919">
      <component glyphName="circumflex.cap" x="109" y="202" flags="0x4"/>
      <component glyphName="U.alt" x="0" y="0" flags="0x4"/>
    </TTGlyph>
    <TTGlyph name="Udieresis" xMin="66" yMin="-14" xMax="607" yMax="883">
      <component glyphName="dieresis.cap" x="110" y="202" flags="0x4"/>
      <component glyphName="U" x="0" y="0" flags="0x4"/>
    </TTGlyph>
    <TTGlyph name="Udieresis.alt" xMin="64" yMin="-8" xMax="605" yMax="883">
      <component glyphName="dieresis.cap" x="112" y="202" flags="0x4"/>
      <component glyphName="U.alt" x="0" y="0" flags="0x4"/>
    </TTGlyph>
    <TTGlyph name="Ugrave" xMin="66" yMin="-14" xMax="607" yMax="927">
      <component glyphName="grave.cap" x="55" y="202" flags="0x4"/>
      <component glyphName="U" x="0" y="0" flags="0x4"/>
    </TTGlyph>
    <TTGlyph name="Ugrave.alt" xMin="64" yMin="-8" xMax="605" yMax="927">
      <component glyphName="grave.cap" x="55" y="202" flags="0x4"/>
      <component glyphName="U.alt" x="0" y="0" flags="0x4"/>
    </TTGlyph>
    <TTGlyph name="Uhungarumlaut" xMin="66" yMin="-14" xMax="610" yMax="926">
      <component glyphName="U" x="0" y="0" flags="0x204"/>
      <component glyphName="hungarumlaut.cap" x="157" y="202" flags="0x4"/>
    </TTGlyph>
    <TTGlyph name="Uhungarumlaut.alt" xMin="64" yMin="-8" xMax="611" yMax="926">
      <component glyphName="U.alt" x="0" y="0" flags="0x204"/>
      <component glyphName="hungarumlaut.cap" x="158" y="202" flags="0x4"/>
    </TTGlyph>
    <TTGlyph name="Umacron" xMin="66" yMin="-14" xMax="607" yMax="869">
      <component glyphName="macron.cap" x="111" y="202" flags="0x4"/>
      <component glyphName="U" x="0" y="0" flags="0x4"/>
    </TTGlyph>
    <TTGlyph name="Umacron.alt" xMin="64" yMin="-8" xMax="605" yMax="869">
      <component glyphName="macron.cap" x="113" y="202" flags="0x4"/>
      <component glyphName="U.alt" x="0" y="0" flags="0x4"/>
    </TTGlyph>
    <TTGlyph name="Uogonek" xMin="66" yMin="-192" xMax="607" yMax="725">
      <contour>
        <pt x="533" y="231" on="1"/>
        <pt x="516" y="116" on="0"/>
        <pt x="396" y="-6" on="0"/>
        <pt x="302" y="-13" on="1"/>
        <pt x="295" y="-21" on="1"/>
        <pt x="268" y="-53" on="0"/>
        <pt x="248" y="-84" on="0"/>
        <pt x="248" y="-98" on="1"/>
        <pt x="248" y="-124" on="0"/>
        <pt x="286" y="-124" on="1"/>
        <pt x="294" y="-124" on="0"/>
        <pt x="314" y="-122" on="0"/>
        <pt x="324" y="-120" on="1"/>
        <pt x="315" y="-177" on="1"/>
        <pt x="298" y="-183" on="0"/>
        <pt x="262" y="-192" on="0"/>
        <pt x="243" y="-192" on="1"/>
        <pt x="208" y="-192" on="0"/>
        <pt x="168" y="-159" on="0"/>
        <pt x="168" y="-127" on="1"/>
        <pt x="168" y="-104" on="0"/>
        <pt x="193" y="-56" on="0"/>
        <pt x="224" y="-22" on="1"/>
        <pt x="227" y="-18" on="0"/>
        <pt x="234" y="-11" on="1"/>
        <pt x="153" y="0" on="0"/>
        <pt x="66" y="104" on="0"/>
        <pt x="66" y="191" on="1"/>
        <pt x="66" y="205" on="0"/>
        <pt x="69" y="238" on="0"/>
        <pt x="71" y="254" on="1"/>
        <pt x="141" y="725" on="1"/>
        <pt x="241" y="725" on="1"/>
        <pt x="171" y="252" on="1"/>
        <pt x="169" y="241" on="0"/>
        <pt x="167" y="214" on="0"/>
        <pt x="167" y="203" on="1"/>
        <pt x="167" y="143" on="0"/>
        <pt x="226" y="76" on="0"/>
        <pt x="285" y="76" on="1"/>
        <pt x="350" y="76" on="0"/>
        <pt x="424" y="163" on="0"/>
        <pt x="436" y="241" on="1"/>
        <pt x="508" y="725" on="1"/>
        <pt x="607" y="725" on="1"/>
      </contour>
    </TTGlyph>
    <TTGlyph name="Uogonek.alt" xMin="64" yMin="-192" xMax="605" yMax="725">
      <contour>
        <pt x="487" y="-177" on="1"/>
        <pt x="470" y="-183" on="0"/>
        <pt x="434" y="-192" on="0"/>
        <pt x="415" y="-192" on="1"/>
        <pt x="380" y="-192" on="0"/>
        <pt x="340" y="-159" on="0"/>
        <pt x="340" y="-127" on="1"/>
        <pt x="340" y="-100" on="0"/>
        <pt x="374" y="-42" on="0"/>
        <pt x="418" y="1" on="1"/>
        <pt x="418" y="69" on="1"/>
        <pt x="371" y="36" on="0"/>
        <pt x="282" y="-8" on="0"/>
        <pt x="224" y="-8" on="1"/>
        <pt x="149" y="-8" on="0"/>
        <pt x="64" y="61" on="0"/>
        <pt x="64" y="139" on="1"/>
        <pt x="64" y="151" on="0"/>
        <pt x="66" y="177" on="0"/>
        <pt x="68" y="191" on="1"/>
        <pt x="147" y="725" on="1"/>
        <pt x="247" y="725" on="1"/>
        <pt x="168" y="198" on="1"/>
        <pt x="165" y="180" on="0"/>
        <pt x="165" y="162" on="1"/>
        <pt x="165" y="80" on="0"/>
        <pt x="249" y="80" on="1"/>
        <pt x="294" y="80" on="0"/>
        <pt x="374" y="123" on="0"/>
        <pt x="422" y="160" on="1"/>
        <pt x="507" y="725" on="1"/>
        <pt x="605" y="725" on="1"/>
        <pt x="497" y="0" on="1"/>
        <pt x="485" y="0" on="1"/>
        <pt x="467" y="-21" on="1"/>
        <pt x="440" y="-53" on="0"/>
        <pt x="420" y="-84" on="0"/>
        <pt x="420" y="-98" on="1"/>
        <pt x="420" y="-124" on="0"/>
        <pt x="458" y="-124" on="1"/>
        <pt x="466" y="-124" on="0"/>
        <pt x="486" y="-122" on="0"/>
        <pt x="496" y="-120" on="1"/>
        <pt x="487" y="-177" on="1"/>
      </contour>
    </TTGlyph>
    <TTGlyph name="Uring" xMin="66" yMin="-14" xMax="607" yMax="972">
      <component glyphName="U" x="0" y="0" flags="0x204"/>
      <component glyphName="ring.cap" x="111" y="197" flags="0x4"/>
    </TTGlyph>
    <TTGlyph name="Uring.alt" xMin="64" yMin="-8" xMax="605" yMax="971">
      <component glyphName="ring.cap" x="112" y="196" flags="0x4"/>
      <component glyphName="U.alt" x="0" y="0" flags="0x4"/>
    </TTGlyph>
    <TTGlyph name="V" xMin="100" yMin="-3" xMax="631" yMax="732">
      <contour>
        <pt x="303" y="-3" on="1"/>
        <pt x="210" y="-3" on="1"/>
        <pt x="100" y="710" on="1"/>
        <pt x="201" y="732" on="1"/>
        <pt x="277" y="140" on="1"/>
        <pt x="526" y="725" on="1"/>
        <pt x="631" y="725" on="1"/>
      </contour>
    </TTGlyph>
    <TTGlyph name="V.flat" xMin="98" yMin="-3" xMax="630" yMax="725">
      <contour>
        <pt x="302" y="-3" on="1"/>
        <pt x="210" y="-3" on="1"/>
        <pt x="98" y="725" on="1"/>
        <pt x="201" y="725" on="1"/>
        <pt x="277" y="140" on="1"/>
        <pt x="526" y="725" on="1"/>
        <pt x="630" y="725" on="1"/>
      </contour>
    </TTGlyph>
    <TTGlyph name="W" xMin="110" yMin="0" xMax="950" yMax="732">
      <contour>
        <pt x="663" y="0" on="1"/>
        <pt x="573" y="0" on="1"/>
        <pt x="506" y="578" on="1"/>
        <pt x="269" y="0" on="1"/>
        <pt x="177" y="0" on="1"/>
        <pt x="110" y="710" on="1"/>
        <pt x="210" y="732" on="1"/>
        <pt x="251" y="169" on="1"/>
        <pt x="477" y="724" on="1"/>
        <pt x="580" y="724" on="1"/>
        <pt x="642" y="168" on="1"/>
        <pt x="848" y="725" on="1"/>
        <pt x="950" y="725" on="1"/>
      </contour>
    </TTGlyph>
    <TTGlyph name="W.alt" xMin="100" yMin="-3" xMax="954" yMax="732">
      <contour>
        <pt x="611" y="141" on="1"/>
        <pt x="850" y="725" on="1"/>
        <pt x="954" y="725" on="1"/>
        <pt x="633" y="-3" on="1"/>
        <pt x="544" y="-3" on="1"/>
        <pt x="481" y="384" on="1"/>
        <pt x="300" y="-3" on="1"/>
        <pt x="211" y="-3" on="1"/>
        <pt x="100" y="710" on="1"/>
        <pt x="200" y="732" on="1"/>
        <pt x="280" y="141" on="1"/>
        <pt x="458" y="529" on="1"/>
        <pt x="430" y="710" on="1"/>
        <pt x="528" y="732" on="1"/>
      </contour>
    </TTGlyph>
    <TTGlyph name="W.alt_flat" xMin="98" yMin="-3" xMax="954" yMax="725">
      <contour>
        <pt x="611" y="141" on="1"/>
        <pt x="850" y="725" on="1"/>
        <pt x="954" y="725" on="1"/>
        <pt x="633" y="-3" on="1"/>
        <pt x="544" y="-3" on="1"/>
        <pt x="481" y="384" on="1"/>
        <pt x="300" y="-3" on="1"/>
        <pt x="211" y="-3" on="1"/>
        <pt x="98" y="725" on="1"/>
        <pt x="200" y="725" on="1"/>
        <pt x="280" y="141" on="1"/>
        <pt x="458" y="530" on="1"/>
        <pt x="428" y="725" on="1"/>
        <pt x="529" y="725" on="1"/>
      </contour>
    </TTGlyph>
    <TTGlyph name="W.flat" xMin="109" yMin="0" xMax="950" yMax="725">
      <contour>
        <pt x="663" y="0" on="1"/>
        <pt x="573" y="0" on="1"/>
        <pt x="506" y="578" on="1"/>
        <pt x="269" y="0" on="1"/>
        <pt x="177" y="0" on="1"/>
        <pt x="109" y="725" on="1"/>
        <pt x="210" y="725" on="1"/>
        <pt x="251" y="169" on="1"/>
        <pt x="477" y="724" on="1"/>
        <pt x="580" y="724" on="1"/>
        <pt x="642" y="168" on="1"/>
        <pt x="848" y="725" on="1"/>
        <pt x="950" y="725" on="1"/>
      </contour>
    </TTGlyph>
    <TTGlyph name="Wacute" xMin="110" yMin="0" xMax="950" yMax="938">
      <component glyphName="acute.cap" x="316" y="213" flags="0x4"/>
      <component glyphName="W" x="0" y="0" flags="0x4"/>
    </TTGlyph>
    <TTGlyph name="Wacute.alt" xMin="100" yMin="-3" xMax="954" yMax="938">
      <component glyphName="acute.cap" x="302" y="213" flags="0x4"/>
      <component glyphName="W.alt" x="0" y="0" flags="0x4"/>
    </TTGlyph>
    <TTGlyph name="Wacute.alt_flat" xMin="98" yMin="-3" xMax="954" yMax="938">
      <component glyphName="acute.cap" x="302" y="213" flags="0x4"/>
      <component glyphName="W.alt_flat" x="0" y="0" flags="0x4"/>
    </TTGlyph>
    <TTGlyph name="Wacute.flat" xMin="109" yMin="0" xMax="950" yMax="938">
      <component glyphName="acute.cap" x="316" y="213" flags="0x4"/>
      <component glyphName="W.flat" x="0" y="0" flags="0x4"/>
    </TTGlyph>
    <TTGlyph name="Wcircumflex" xMin="110" yMin="0" xMax="950" yMax="930">
      <component glyphName="W" x="0" y="0" flags="0x204"/>
      <component glyphName="circumflex.cap" x="265" y="213" flags="0x4"/>
    </TTGlyph>
    <TTGlyph name="Wcircumflex.alt" xMin="100" yMin="-3" xMax="954" yMax="930">
      <component glyphName="W.alt" x="0" y="0" flags="0x204"/>
      <component glyphName="circumflex.cap" x="251" y="213" flags="0x4"/>
    </TTGlyph>
    <TTGlyph name="Wcircumflex.alt_flat" xMin="98" yMin="-3" xMax="954" yMax="930">
      <component glyphName="W.alt_flat" x="0" y="0" flags="0x204"/>
      <component glyphName="circumflex.cap" x="251" y="213" flags="0x4"/>
    </TTGlyph>
    <TTGlyph name="Wcircumflex.flat" xMin="109" yMin="0" xMax="950" yMax="930">
      <component glyphName="W.flat" x="0" y="0" flags="0x204"/>
      <component glyphName="circumflex.cap" x="265" y="213" flags="0x4"/>
    </TTGlyph>
    <TTGlyph name="Wdieresis" xMin="110" yMin="0" xMax="950" yMax="894">
      <component glyphName="dieresis.cap" x="266" y="213" flags="0x4"/>
      <component glyphName="W" x="0" y="0" flags="0x4"/>
    </TTGlyph>
    <TTGlyph name="Wdieresis.alt" xMin="100" yMin="-3" xMax="954" yMax="894">
      <component glyphName="dieresis.cap" x="254" y="213" flags="0x4"/>
      <component glyphName="W.alt" x="0" y="0" flags="0x4"/>
    </TTGlyph>
    <TTGlyph name="Wdieresis.alt_flat" xMin="98" yMin="-3" xMax="954" yMax="894">
      <component glyphName="dieresis.cap" x="254" y="213" flags="0x4"/>
      <component glyphName="W.alt_flat" x="0" y="0" flags="0x4"/>
    </TTGlyph>
    <TTGlyph name="Wdieresis.flat" xMin="109" yMin="0" xMax="950" yMax="894">
      <component glyphName="dieresis.cap" x="266" y="213" flags="0x4"/>
      <component glyphName="W.flat" x="0" y="0" flags="0x4"/>
    </TTGlyph>
    <TTGlyph name="Wgrave" xMin="110" yMin="0" xMax="950" yMax="938">
      <component glyphName="grave.cap" x="211" y="213" flags="0x4"/>
      <component glyphName="W" x="0" y="0" flags="0x4"/>
    </TTGlyph>
    <TTGlyph name="Wgrave.alt" xMin="100" yMin="-3" xMax="954" yMax="938">
      <component glyphName="grave.cap" x="197" y="213" flags="0x4"/>
      <component glyphName="W.alt" x="0" y="0" flags="0x4"/>
    </TTGlyph>
    <TTGlyph name="Wgrave.alt_flat" xMin="98" yMin="-3" xMax="954" yMax="938">
      <component glyphName="grave.cap" x="197" y="213" flags="0x4"/>
      <component glyphName="W.alt_flat" x="0" y="0" flags="0x4"/>
    </TTGlyph>
    <TTGlyph name="Wgrave.flat" xMin="109" yMin="0" xMax="950" yMax="938">
      <component glyphName="grave.cap" x="211" y="213" flags="0x4"/>
      <component glyphName="W.flat" x="0" y="0" flags="0x4"/>
    </TTGlyph>
    <TTGlyph name="X" xMin="-13" yMin="-8" xMax="594" yMax="732">
      <contour>
        <pt x="355" y="373" on="1"/>
        <pt x="501" y="14" on="1"/>
        <pt x="403" y="-8" on="1"/>
        <pt x="290" y="292" on="1"/>
        <pt x="97" y="0" on="1"/>
        <pt x="-13" y="0" on="1"/>
        <pt x="250" y="382" on="1"/>
        <pt x="116" y="711" on="1"/>
        <pt x="215" y="732" on="1"/>
        <pt x="315" y="465" on="1"/>
        <pt x="484" y="725" on="1"/>
        <pt x="594" y="725" on="1"/>
      </contour>
    </TTGlyph>
    <TTGlyph name="X.flat" xMin="-13" yMin="0" xMax="596" yMax="725">
      <contour>
        <pt x="356" y="371" on="1"/>
        <pt x="506" y="0" on="1"/>
        <pt x="398" y="0" on="1"/>
        <pt x="290" y="291" on="1"/>
        <pt x="97" y="0" on="1"/>
        <pt x="-13" y="0" on="1"/>
        <pt x="250" y="381" on="1"/>
        <pt x="111" y="725" on="1"/>
        <pt x="217" y="725" on="1"/>
        <pt x="315" y="462" on="1"/>
        <pt x="487" y="725" on="1"/>
        <pt x="596" y="725" on="1"/>
      </contour>
    </TTGlyph>
    <TTGlyph name="Y" xMin="92" yMin="0" xMax="620" yMax="732">
      <contour>
        <pt x="336" y="281" on="1"/>
        <pt x="294" y="0" on="1"/>
        <pt x="195" y="0" on="1"/>
        <pt x="238" y="284" on="1"/>
        <pt x="92" y="711" on="1"/>
        <pt x="190" y="732" on="1"/>
        <pt x="302" y="381" on="1"/>
        <pt x="508" y="725" on="1"/>
        <pt x="620" y="725" on="1"/>
      </contour>
    </TTGlyph>
    <TTGlyph name="Y.flat" xMin="87" yMin="0" xMax="620" yMax="725">
      <contour>
        <pt x="336" y="281" on="1"/>
        <pt x="294" y="0" on="1"/>
        <pt x="195" y="0" on="1"/>
        <pt x="238" y="284" on="1"/>
        <pt x="87" y="725" on="1"/>
        <pt x="194" y="725" on="1"/>
        <pt x="302" y="381" on="1"/>
        <pt x="508" y="725" on="1"/>
        <pt x="620" y="725" on="1"/>
      </contour>
    </TTGlyph>
    <TTGlyph name="Yacute" xMin="92" yMin="0" xMax="620" yMax="927">
      <component glyphName="Y" x="0" y="0" flags="0x204"/>
      <component glyphName="acute.cap" x="137" y="202" flags="0x4"/>
    </TTGlyph>
    <TTGlyph name="Yacute.flat" xMin="87" yMin="0" xMax="620" yMax="927">
      <component glyphName="acute.cap" x="137" y="202" flags="0x4"/>
      <component glyphName="Y.flat" x="0" y="0" flags="0x4"/>
    </TTGlyph>
    <TTGlyph name="Ycircumflex" xMin="92" yMin="0" xMax="620" yMax="919">
      <component glyphName="Y" x="0" y="0" flags="0x204"/>
      <component glyphName="circumflex.cap" x="86" y="202" flags="0x4"/>
    </TTGlyph>
    <TTGlyph name="Ycircumflex.flat" xMin="87" yMin="0" xMax="620" yMax="919">
      <component glyphName="Y.flat" x="0" y="0" flags="0x204"/>
      <component glyphName="circumflex.cap" x="86" y="202" flags="0x4"/>
    </TTGlyph>
    <TTGlyph name="Ydieresis" xMin="92" yMin="0" xMax="620" yMax="883">
      <component glyphName="Y" x="0" y="0" flags="0x204"/>
      <component glyphName="dieresis.cap" x="89" y="202" flags="0x4"/>
    </TTGlyph>
    <TTGlyph name="Ydieresis.flat" xMin="87" yMin="0" xMax="620" yMax="883">
      <component glyphName="dieresis.cap" x="89" y="202" flags="0x4"/>
      <component glyphName="Y.flat" x="0" y="0" flags="0x4"/>
    </TTGlyph>
    <TTGlyph name="Ygrave" xMin="92" yMin="0" xMax="620" yMax="927">
      <component glyphName="Y" x="0" y="0" flags="0x204"/>
      <component glyphName="grave.cap" x="32" y="202" flags="0x4"/>
    </TTGlyph>
    <TTGlyph name="Ygrave.flat" xMin="87" yMin="0" xMax="620" yMax="927">
      <component glyphName="grave.cap" x="32" y="202" flags="0x4"/>
      <component glyphName="Y.flat" x="0" y="0" flags="0x4"/>
    </TTGlyph>
    <TTGlyph name="Z" xMin="10" yMin="0" xMax="549" yMax="725">
      <contour>
        <pt x="537" y="650" on="1"/>
        <pt x="138" y="85" on="1"/>
        <pt x="452" y="85" on="1"/>
        <pt x="452" y="0" on="1"/>
        <pt x="10" y="0" on="1"/>
        <pt x="22" y="75" on="1"/>
        <pt x="421" y="639" on="1"/>
        <pt x="130" y="639" on="1"/>
        <pt x="130" y="725" on="1"/>
        <pt x="549" y="725" on="1"/>
      </contour>
    </TTGlyph>
    <TTGlyph name="Z.flat" xMin="10" yMin="0" xMax="549" yMax="725">
      <contour>
        <pt x="537" y="650" on="1"/>
        <pt x="138" y="85" on="1"/>
        <pt x="458" y="85" on="1"/>
        <pt x="446" y="0" on="1"/>
        <pt x="10" y="0" on="1"/>
        <pt x="22" y="75" on="1"/>
        <pt x="421" y="639" on="1"/>
        <pt x="124" y="639" on="1"/>
        <pt x="136" y="725" on="1"/>
        <pt x="549" y="725" on="1"/>
      </contour>
    </TTGlyph>
    <TTGlyph name="Zacute" xMin="10" yMin="0" xMax="549" yMax="938">
      <component glyphName="Z" x="0" y="0" flags="0x204"/>
      <component glyphName="acute.cap" x="120" y="213" flags="0x4"/>
    </TTGlyph>
    <TTGlyph name="Zacute.flat" xMin="10" yMin="0" xMax="549" yMax="938">
      <component glyphName="acute.cap" x="120" y="213" flags="0x4"/>
      <component glyphName="Z.flat" x="0" y="0" flags="0x4"/>
    </TTGlyph>
    <TTGlyph name="Zcaron" xMin="10" yMin="0" xMax="549" yMax="929">
      <component glyphName="caron.cap" x="71" y="213" flags="0x4"/>
      <component glyphName="Z" x="0" y="0" flags="0x4"/>
    </TTGlyph>
    <TTGlyph name="Zcaron.flat" xMin="10" yMin="0" xMax="549" yMax="929">
      <component glyphName="caron.cap" x="71" y="213" flags="0x4"/>
      <component glyphName="Z.flat" x="0" y="0" flags="0x4"/>
    </TTGlyph>
    <TTGlyph name="Zdotaccent" xMin="10" yMin="0" xMax="549" yMax="894">
      <component glyphName="dotaccent.cap" x="71" y="213" flags="0x4"/>
      <component glyphName="Z" x="0" y="0" flags="0x4"/>
    </TTGlyph>
    <TTGlyph name="Zdotaccent.flat" xMin="10" yMin="0" xMax="549" yMax="894">
      <component glyphName="dotaccent.cap" x="71" y="213" flags="0x4"/>
      <component glyphName="Z.flat" x="0" y="0" flags="0x4"/>
    </TTGlyph>
    <TTGlyph name="a" xMin="40" yMin="-11" xMax="486" yMax="547">
      <contour>
        <pt x="339" y="82" on="1"/>
        <pt x="304" y="40" on="0"/>
        <pt x="226" y="-11" on="0"/>
        <pt x="184" y="-11" on="1"/>
        <pt x="153" y="-11" on="0"/>
        <pt x="101" y="12" on="0"/>
        <pt x="62" y="59" on="0"/>
        <pt x="40" y="129" on="0"/>
        <pt x="40" y="176" on="1"/>
        <pt x="40" y="260" on="0"/>
        <pt x="87" y="396" on="0"/>
        <pt x="166" y="494" on="0"/>
        <pt x="268" y="547" on="0"/>
        <pt x="323" y="547" on="1"/>
        <pt x="364" y="547" on="0"/>
        <pt x="439" y="530" on="0"/>
        <pt x="486" y="511" on="1"/>
        <pt x="430" y="135" on="1"/>
        <pt x="430" y="0" on="1"/>
        <pt x="345" y="0" on="1"/>
      </contour>
      <contour>
        <pt x="380" y="451" on="1"/>
        <pt x="365" y="459" on="0"/>
        <pt x="336" y="465" on="0"/>
        <pt x="316" y="465" on="1"/>
        <pt x="283" y="465" on="0"/>
        <pt x="219" y="423" on="0"/>
        <pt x="169" y="348" on="0"/>
        <pt x="138" y="245" on="0"/>
        <pt x="138" y="183" on="1"/>
        <pt x="138" y="132" on="0"/>
        <pt x="170" y="75" on="0"/>
        <pt x="204" y="75" on="1"/>
        <pt x="236" y="75" on="0"/>
        <pt x="304" y="129" on="0"/>
        <pt x="340" y="171" on="1"/>
      </contour>
    </TTGlyph>
    <TTGlyph name="a.alt" xMin="21" yMin="-11" xMax="442" yMax="551">
      <contour>
        <pt x="344" y="381" on="1"/>
        <pt x="345" y="386" on="0"/>
        <pt x="346" y="396" on="0"/>
        <pt x="346" y="401" on="1"/>
        <pt x="346" y="465" on="0"/>
        <pt x="274" y="465" on="1"/>
        <pt x="237" y="465" on="0"/>
        <pt x="155" y="439" on="0"/>
        <pt x="111" y="417" on="1"/>
        <pt x="111" y="505" on="1"/>
        <pt x="148" y="523" on="0"/>
        <pt x="237" y="551" on="0"/>
        <pt x="289" y="551" on="1"/>
        <pt x="368" y="551" on="0"/>
        <pt x="442" y="482" on="0"/>
        <pt x="442" y="419" on="1"/>
        <pt x="442" y="408" on="0"/>
        <pt x="440" y="387" on="0"/>
        <pt x="438" y="376" on="1"/>
        <pt x="396" y="102" on="1"/>
        <pt x="396" y="0" on="1"/>
        <pt x="311" y="0" on="1"/>
        <pt x="305" y="68" on="1"/>
        <pt x="270" y="35" on="0"/>
        <pt x="193" y="-11" on="0"/>
        <pt x="147" y="-11" on="1"/>
        <pt x="89" y="-11" on="0"/>
        <pt x="21" y="60" on="0"/>
        <pt x="21" y="121" on="1"/>
        <pt x="21" y="214" on="0"/>
        <pt x="174" y="330" on="0"/>
        <pt x="338" y="345" on="1"/>
      </contour>
      <contour>
        <pt x="172" y="73" on="1"/>
        <pt x="204" y="73" on="0"/>
        <pt x="268" y="111" on="0"/>
        <pt x="306" y="144" on="1"/>
        <pt x="327" y="273" on="1"/>
        <pt x="268" y="265" on="0"/>
        <pt x="188" y="237" on="0"/>
        <pt x="139" y="201" on="0"/>
        <pt x="118" y="158" on="0"/>
        <pt x="118" y="134" on="1"/>
        <pt x="118" y="105" on="0"/>
        <pt x="146" y="73" on="0"/>
      </contour>
    </TTGlyph>
    <TTGlyph name="aacute" xMin="40" yMin="-11" xMax="516" yMax="772">
      <component glyphName="a" x="0" y="0" flags="0x204"/>
      <component glyphName="acute" x="102" y="0" flags="0x4"/>
    </TTGlyph>
    <TTGlyph name="aacute.alt" xMin="21" yMin="-11" xMax="473" yMax="772">
      <component glyphName="acute" x="59" y="0" flags="0x4"/>
      <component glyphName="a.alt" x="0" y="0" flags="0x4"/>
    </TTGlyph>
    <TTGlyph name="abreve" xMin="40" yMin="-11" xMax="494" yMax="750">
      <component glyphName="a" x="0" y="0" flags="0x204"/>
      <component glyphName="breve" x="45" y="0" flags="0x4"/>
    </TTGlyph>
    <TTGlyph name="abreve.alt" xMin="21" yMin="-11" xMax="450" yMax="750">
      <component glyphName="a.alt" x="0" y="0" flags="0x204"/>
      <component glyphName="breve" x="1" y="0" flags="0x4"/>
    </TTGlyph>
    <TTGlyph name="acircumflex" xMin="40" yMin="-11" xMax="486" yMax="764">
      <component glyphName="a" x="0" y="0" flags="0x204"/>
      <component glyphName="circumflex" x="48" y="0" flags="0x4"/>
    </TTGlyph>
    <TTGlyph name="acircumflex.alt" xMin="21" yMin="-11" xMax="442" yMax="764">
      <component glyphName="circumflex" x="5" y="0" flags="0x4"/>
      <component glyphName="a.alt" x="0" y="0" flags="0x4"/>
    </TTGlyph>
    <TTGlyph name="acute" xMin="191" yMin="608" xMax="414" yMax="772">
      <contour>
        <pt x="264" y="608" on="1"/>
        <pt x="191" y="608" on="1"/>
        <pt x="298" y="772" on="1"/>
        <pt x="414" y="745" on="1"/>
      </contour>
    </TTGlyph>
    <TTGlyph name="acute.cap" xMin="179" yMin="571" xMax="389" yMax="725">
      <contour>
        <pt x="249" y="571" on="1"/>
        <pt x="179" y="571" on="1"/>
        <pt x="278" y="725" on="1"/>
        <pt x="389" y="699" on="1"/>
      </contour>
    </TTGlyph>
    <TTGlyph name="adieresis" xMin="40" yMin="-11" xMax="498" yMax="724">
      <component glyphName="a" x="0" y="0" flags="0x204"/>
      <component glyphName="dieresis" x="50" y="0" flags="0x4"/>
    </TTGlyph>
    <TTGlyph name="adieresis.alt" xMin="21" yMin="-11" xMax="454" yMax="724">
      <component glyphName="dieresis" x="6" y="0" flags="0x4"/>
      <component glyphName="a.alt" x="0" y="0" flags="0x4"/>
    </TTGlyph>
    <TTGlyph name="ae" xMin="21" yMin="-11" xMax="725" yMax="551">
      <contour>
        <pt x="725" y="356" on="1"/>
        <pt x="725" y="300" on="0"/>
        <pt x="714" y="251" on="1"/>
        <pt x="417" y="251" on="1"/>
        <pt x="416" y="243" on="0"/>
        <pt x="416" y="223" on="0"/>
        <pt x="416" y="213" on="1"/>
        <pt x="416" y="147" on="0"/>
        <pt x="471" y="73" on="0"/>
        <pt x="522" y="73" on="1"/>
        <pt x="564" y="73" on="0"/>
        <pt x="638" y="107" on="0"/>
        <pt x="676" y="137" on="1"/>
        <pt x="676" y="44" on="1"/>
        <pt x="638" y="18" on="0"/>
        <pt x="560" y="-11" on="0"/>
        <pt x="512" y="-11" on="1"/>
        <pt x="397" y="-11" on="0"/>
        <pt x="348" y="80" on="1"/>
        <pt x="303" y="41" on="0"/>
        <pt x="208" y="-11" on="0"/>
        <pt x="156" y="-11" on="1"/>
        <pt x="98" y="-11" on="0"/>
        <pt x="21" y="58" on="0"/>
        <pt x="21" y="123" on="1"/>
        <pt x="21" y="168" on="0"/>
        <pt x="56" y="241" on="0"/>
        <pt x="132" y="298" on="0"/>
        <pt x="250" y="337" on="0"/>
        <pt x="333" y="347" on="1"/>
        <pt x="337" y="374" on="1"/>
        <pt x="338" y="381" on="0"/>
        <pt x="339" y="393" on="0"/>
        <pt x="339" y="399" on="1"/>
        <pt x="339" y="434" on="0"/>
        <pt x="302" y="465" on="0"/>
        <pt x="269" y="465" on="1"/>
        <pt x="234" y="465" on="0"/>
        <pt x="154" y="439" on="0"/>
        <pt x="111" y="417" on="1"/>
        <pt x="111" y="505" on="1"/>
        <pt x="148" y="523" on="0"/>
        <pt x="234" y="551" on="0"/>
        <pt x="284" y="551" on="1"/>
        <pt x="385" y="551" on="0"/>
        <pt x="414" y="479" on="1"/>
        <pt x="444" y="514" on="0"/>
        <pt x="519" y="551" on="0"/>
        <pt x="563" y="551" on="1"/>
        <pt x="604" y="551" on="0"/>
        <pt x="665" y="521" on="0"/>
        <pt x="705" y="469" on="0"/>
        <pt x="725" y="398" on="0"/>
      </contour>
      <contour>
        <pt x="630" y="327" on="1"/>
        <pt x="631" y="335" on="0"/>
        <pt x="631" y="350" on="0"/>
        <pt x="631" y="358" on="1"/>
        <pt x="631" y="412" on="0"/>
        <pt x="598" y="475" on="0"/>
        <pt x="556" y="475" on="1"/>
        <pt x="517" y="475" on="0"/>
        <pt x="449" y="395" on="0"/>
        <pt x="431" y="327" on="1"/>
      </contour>
      <contour>
        <pt x="324" y="152" on="1"/>
        <pt x="322" y="166" on="0"/>
        <pt x="320" y="196" on="0"/>
        <pt x="320" y="213" on="1"/>
        <pt x="320" y="241" on="0"/>
        <pt x="323" y="273" on="1"/>
        <pt x="261" y="264" on="0"/>
        <pt x="182" y="234" on="0"/>
        <pt x="136" y="197" on="0"/>
        <pt x="118" y="156" on="0"/>
        <pt x="118" y="135" on="1"/>
        <pt x="118" y="104" on="0"/>
        <pt x="151" y="73" on="0"/>
        <pt x="180" y="73" on="1"/>
        <pt x="208" y="73" on="0"/>
        <pt x="276" y="108" on="0"/>
      </contour>
    </TTGlyph>
    <TTGlyph name="aeacute" xMin="21" yMin="-11" xMax="725" yMax="772">
      <component glyphName="acute" x="215" y="0" flags="0x4"/>
      <component glyphName="ae" x="0" y="0" flags="0x4"/>
    </TTGlyph>
    <TTGlyph name="agrave" xMin="40" yMin="-11" xMax="486" yMax="772">
      <component glyphName="a" x="0" y="0" flags="0x204"/>
      <component glyphName="grave" x="-10" y="0" flags="0x4"/>
    </TTGlyph>
    <TTGlyph name="agrave.alt" xMin="21" yMin="-11" xMax="442" yMax="772">
      <component glyphName="a.alt" x="0" y="0" flags="0x204"/>
      <component glyphName="grave" x="-53" y="0" flags="0x4"/>
    </TTGlyph>
    <TTGlyph name="amacron" xMin="40" yMin="-11" xMax="496" yMax="710">
      <component glyphName="a" x="0" y="0" flags="0x204"/>
      <component glyphName="macron" x="51" y="0" flags="0x4"/>
    </TTGlyph>
    <TTGlyph name="amacron.alt" xMin="21" yMin="-11" xMax="452" yMax="710">
      <component glyphName="a.alt" x="0" y="0" flags="0x204"/>
      <component glyphName="macron" x="7" y="0" flags="0x4"/>
    </TTGlyph>
    <TTGlyph name="ampersand" xMin="26" yMin="-13" xMax="584" yMax="738">
      <contour>
        <pt x="213" y="-13" on="1"/>
        <pt x="169" y="-13" on="0"/>
        <pt x="100" y="15" on="0"/>
        <pt x="52" y="64" on="0"/>
        <pt x="26" y="129" on="0"/>
        <pt x="26" y="167" on="1"/>
        <pt x="26" y="210" on="0"/>
        <pt x="55" y="284" on="0"/>
        <pt x="106" y="346" on="0"/>
        <pt x="175" y="395" on="0"/>
        <pt x="216" y="415" on="1"/>
        <pt x="196" y="448" on="0"/>
        <pt x="170" y="516" on="0"/>
        <pt x="170" y="552" on="1"/>
        <pt x="170" y="591" on="0"/>
        <pt x="198" y="659" on="0"/>
        <pt x="249" y="709" on="0"/>
        <pt x="320" y="738" on="0"/>
        <pt x="363" y="738" on="1"/>
        <pt x="412" y="738" on="0"/>
        <pt x="485" y="712" on="0"/>
        <pt x="516" y="693" on="1"/>
        <pt x="487" y="607" on="1"/>
        <pt x="458" y="627" on="0"/>
        <pt x="397" y="654" on="0"/>
        <pt x="363" y="654" on="1"/>
        <pt x="318" y="654" on="0"/>
        <pt x="266" y="601" on="0"/>
        <pt x="266" y="558" on="1"/>
        <pt x="266" y="523" on="0"/>
        <pt x="293" y="461" on="0"/>
        <pt x="317" y="426" on="1"/>
        <pt x="426" y="259" on="1"/>
        <pt x="461" y="327" on="0"/>
        <pt x="489" y="422" on="1"/>
        <pt x="572" y="401" on="1"/>
        <pt x="552" y="338" on="0"/>
        <pt x="504" y="228" on="0"/>
        <pt x="477" y="181" on="1"/>
        <pt x="584" y="18" on="1"/>
        <pt x="493" y="-7" on="1"/>
        <pt x="423" y="101" on="1"/>
        <pt x="378" y="46" on="0"/>
        <pt x="273" y="-13" on="0"/>
      </contour>
      <contour>
        <pt x="223" y="71" on="1"/>
        <pt x="301" y="71" on="0"/>
        <pt x="375" y="174" on="1"/>
        <pt x="259" y="347" on="1"/>
        <pt x="195" y="319" on="0"/>
        <pt x="124" y="231" on="0"/>
        <pt x="124" y="174" on="1"/>
        <pt x="124" y="132" on="0"/>
        <pt x="175" y="71" on="0"/>
      </contour>
    </TTGlyph>
    <TTGlyph name="ampersand.flat" xMin="26" yMin="-13" xMax="596" yMax="738">
      <contour>
        <pt x="213" y="-13" on="1"/>
        <pt x="169" y="-13" on="0"/>
        <pt x="100" y="15" on="0"/>
        <pt x="52" y="64" on="0"/>
        <pt x="26" y="129" on="0"/>
        <pt x="26" y="167" on="1"/>
        <pt x="26" y="210" on="0"/>
        <pt x="55" y="284" on="0"/>
        <pt x="106" y="346" on="0"/>
        <pt x="175" y="395" on="0"/>
        <pt x="216" y="415" on="1"/>
        <pt x="196" y="448" on="0"/>
        <pt x="170" y="516" on="0"/>
        <pt x="170" y="552" on="1"/>
        <pt x="170" y="591" on="0"/>
        <pt x="198" y="659" on="0"/>
        <pt x="249" y="709" on="0"/>
        <pt x="320" y="738" on="0"/>
        <pt x="363" y="738" on="1"/>
        <pt x="412" y="738" on="0"/>
        <pt x="485" y="712" on="0"/>
        <pt x="516" y="693" on="1"/>
        <pt x="487" y="607" on="1"/>
        <pt x="458" y="627" on="0"/>
        <pt x="397" y="654" on="0"/>
        <pt x="363" y="654" on="1"/>
        <pt x="318" y="654" on="0"/>
        <pt x="266" y="601" on="0"/>
        <pt x="266" y="558" on="1"/>
        <pt x="266" y="523" on="0"/>
        <pt x="293" y="461" on="0"/>
        <pt x="317" y="426" on="1"/>
        <pt x="426" y="259" on="1"/>
        <pt x="461" y="327" on="0"/>
        <pt x="489" y="422" on="1"/>
        <pt x="572" y="401" on="1"/>
        <pt x="552" y="338" on="0"/>
        <pt x="504" y="228" on="0"/>
        <pt x="477" y="181" on="1"/>
        <pt x="596" y="0" on="1"/>
        <pt x="489" y="0" on="1"/>
        <pt x="423" y="101" on="1"/>
        <pt x="378" y="46" on="0"/>
        <pt x="273" y="-13" on="0"/>
      </contour>
      <contour>
        <pt x="223" y="71" on="1"/>
        <pt x="301" y="71" on="0"/>
        <pt x="375" y="174" on="1"/>
        <pt x="259" y="347" on="1"/>
        <pt x="195" y="319" on="0"/>
        <pt x="124" y="231" on="0"/>
        <pt x="124" y="174" on="1"/>
        <pt x="124" y="132" on="0"/>
        <pt x="175" y="71" on="0"/>
      </contour>
    </TTGlyph>
    <TTGlyph name="aogonek" xMin="40" yMin="-203" xMax="486" yMax="547">
      <contour>
        <pt x="339" y="82" on="1"/>
        <pt x="304" y="40" on="0"/>
        <pt x="226" y="-11" on="0"/>
        <pt x="184" y="-11" on="1"/>
        <pt x="153" y="-11" on="0"/>
        <pt x="101" y="12" on="0"/>
        <pt x="62" y="59" on="0"/>
        <pt x="40" y="129" on="0"/>
        <pt x="40" y="176" on="1"/>
        <pt x="40" y="260" on="0"/>
        <pt x="87" y="396" on="0"/>
        <pt x="166" y="494" on="0"/>
        <pt x="268" y="547" on="0"/>
        <pt x="323" y="547" on="1"/>
        <pt x="364" y="547" on="0"/>
        <pt x="439" y="530" on="0"/>
        <pt x="486" y="511" on="1"/>
        <pt x="430" y="135" on="1"/>
        <pt x="430" y="0" on="1"/>
        <pt x="412" y="0" on="1"/>
        <pt x="392" y="-22" on="1"/>
        <pt x="363" y="-56" on="0"/>
        <pt x="342" y="-90" on="0"/>
        <pt x="342" y="-105" on="1"/>
        <pt x="342" y="-133" on="0"/>
        <pt x="382" y="-133" on="1"/>
        <pt x="391" y="-133" on="0"/>
        <pt x="412" y="-131" on="0"/>
        <pt x="423" y="-129" on="1"/>
        <pt x="414" y="-188" on="1"/>
        <pt x="397" y="-195" on="0"/>
        <pt x="359" y="-203" on="0"/>
        <pt x="339" y="-203" on="1"/>
        <pt x="301" y="-203" on="0"/>
        <pt x="259" y="-169" on="0"/>
        <pt x="259" y="-135" on="1"/>
        <pt x="259" y="-107" on="0"/>
        <pt x="292" y="-48" on="0"/>
        <pt x="336" y="-3" on="1"/>
        <pt x="343" y="4" on="1"/>
        <pt x="345" y="6" on="1"/>
      </contour>
      <contour>
        <pt x="380" y="451" on="1"/>
        <pt x="365" y="459" on="0"/>
        <pt x="336" y="465" on="0"/>
        <pt x="316" y="465" on="1"/>
        <pt x="283" y="465" on="0"/>
        <pt x="219" y="423" on="0"/>
        <pt x="169" y="348" on="0"/>
        <pt x="138" y="245" on="0"/>
        <pt x="138" y="183" on="1"/>
        <pt x="138" y="132" on="0"/>
        <pt x="170" y="75" on="0"/>
        <pt x="204" y="75" on="1"/>
        <pt x="236" y="75" on="0"/>
        <pt x="304" y="129" on="0"/>
        <pt x="340" y="171" on="1"/>
      </contour>
    </TTGlyph>
    <TTGlyph name="aogonek.alt" xMin="21" yMin="-203" xMax="442" yMax="551">
      <contour>
        <pt x="344" y="381" on="1"/>
        <pt x="345" y="386" on="0"/>
        <pt x="346" y="396" on="0"/>
        <pt x="346" y="401" on="1"/>
        <pt x="346" y="465" on="0"/>
        <pt x="274" y="465" on="1"/>
        <pt x="237" y="465" on="0"/>
        <pt x="155" y="439" on="0"/>
        <pt x="111" y="417" on="1"/>
        <pt x="111" y="505" on="1"/>
        <pt x="148" y="523" on="0"/>
        <pt x="237" y="551" on="0"/>
        <pt x="289" y="551" on="1"/>
        <pt x="368" y="551" on="0"/>
        <pt x="442" y="482" on="0"/>
        <pt x="442" y="419" on="1"/>
        <pt x="442" y="408" on="0"/>
        <pt x="440" y="387" on="0"/>
        <pt x="438" y="376" on="1"/>
        <pt x="396" y="102" on="1"/>
        <pt x="396" y="0" on="1"/>
        <pt x="377" y="0" on="1"/>
        <pt x="357" y="-22" on="1"/>
        <pt x="328" y="-56" on="0"/>
        <pt x="307" y="-90" on="0"/>
        <pt x="307" y="-105" on="1"/>
        <pt x="307" y="-133" on="0"/>
        <pt x="347" y="-133" on="1"/>
        <pt x="356" y="-133" on="0"/>
        <pt x="377" y="-131" on="0"/>
        <pt x="388" y="-129" on="1"/>
        <pt x="379" y="-188" on="1"/>
        <pt x="362" y="-195" on="0"/>
        <pt x="324" y="-203" on="0"/>
        <pt x="304" y="-203" on="1"/>
        <pt x="266" y="-203" on="0"/>
        <pt x="224" y="-169" on="0"/>
        <pt x="224" y="-135" on="1"/>
        <pt x="224" y="-107" on="0"/>
        <pt x="261" y="-44" on="0"/>
        <pt x="308" y="4" on="1"/>
        <pt x="310" y="6" on="1"/>
        <pt x="305" y="68" on="1"/>
        <pt x="270" y="35" on="0"/>
        <pt x="193" y="-11" on="0"/>
        <pt x="147" y="-11" on="1"/>
        <pt x="89" y="-11" on="0"/>
        <pt x="21" y="60" on="0"/>
        <pt x="21" y="121" on="1"/>
        <pt x="21" y="214" on="0"/>
        <pt x="174" y="330" on="0"/>
        <pt x="338" y="345" on="1"/>
      </contour>
      <contour>
        <pt x="172" y="73" on="1"/>
        <pt x="204" y="73" on="0"/>
        <pt x="268" y="111" on="0"/>
        <pt x="306" y="144" on="1"/>
        <pt x="327" y="273" on="1"/>
        <pt x="268" y="265" on="0"/>
        <pt x="188" y="237" on="0"/>
        <pt x="139" y="201" on="0"/>
        <pt x="118" y="158" on="0"/>
        <pt x="118" y="134" on="1"/>
        <pt x="118" y="105" on="0"/>
        <pt x="146" y="73" on="0"/>
      </contour>
    </TTGlyph>
    <TTGlyph name="aring" xMin="40" yMin="-11" xMax="486" yMax="825">
      <component glyphName="a" x="0" y="0" flags="0x204"/>
      <component glyphName="ring" x="51" y="0" flags="0x4"/>
    </TTGlyph>
    <TTGlyph name="aring.alt" xMin="21" yMin="-11" xMax="442" yMax="825">
      <component glyphName="ring" x="8" y="0" flags="0x4"/>
      <component glyphName="a.alt" x="0" y="0" flags="0x4"/>
    </TTGlyph>
    <TTGlyph name="aringacute" xMin="40" yMin="-11" xMax="551" yMax="1043">
      <contour>
        <pt x="339" y="82" on="1"/>
        <pt x="304" y="40" on="0"/>
        <pt x="226" y="-11" on="0"/>
        <pt x="184" y="-11" on="1"/>
        <pt x="153" y="-11" on="0"/>
        <pt x="101" y="12" on="0"/>
        <pt x="62" y="59" on="0"/>
        <pt x="40" y="129" on="0"/>
        <pt x="40" y="176" on="1"/>
        <pt x="40" y="260" on="0"/>
        <pt x="87" y="396" on="0"/>
        <pt x="166" y="494" on="0"/>
        <pt x="268" y="547" on="0"/>
        <pt x="323" y="547" on="1"/>
        <pt x="364" y="547" on="0"/>
        <pt x="439" y="530" on="0"/>
        <pt x="486" y="511" on="1"/>
        <pt x="430" y="135" on="1"/>
        <pt x="430" y="0" on="1"/>
        <pt x="345" y="0" on="1"/>
      </contour>
      <contour>
        <pt x="380" y="451" on="1"/>
        <pt x="365" y="459" on="0"/>
        <pt x="336" y="465" on="0"/>
        <pt x="316" y="465" on="1"/>
        <pt x="283" y="465" on="0"/>
        <pt x="219" y="423" on="0"/>
        <pt x="169" y="348" on="0"/>
        <pt x="138" y="245" on="0"/>
        <pt x="138" y="183" on="1"/>
        <pt x="138" y="132" on="0"/>
        <pt x="170" y="75" on="0"/>
        <pt x="204" y="75" on="1"/>
        <pt x="236" y="75" on="0"/>
        <pt x="304" y="129" on="0"/>
        <pt x="340" y="171" on="1"/>
      </contour>
      <contour>
        <pt x="401" y="879" on="1"/>
        <pt x="328" y="879" on="1"/>
        <pt x="435" y="1043" on="1"/>
        <pt x="551" y="1016" on="1"/>
      </contour>
      <contour>
        <pt x="355" y="652" on="1"/>
        <pt x="380" y="652" on="0"/>
        <pt x="413" y="688" on="0"/>
        <pt x="413" y="715" on="1"/>
        <pt x="413" y="742" on="0"/>
        <pt x="380" y="778" on="0"/>
        <pt x="355" y="778" on="1"/>
        <pt x="329" y="778" on="0"/>
        <pt x="295" y="742" on="0"/>
        <pt x="295" y="715" on="1"/>
        <pt x="295" y="688" on="0"/>
        <pt x="329" y="652" on="0"/>
      </contour>
      <contour>
        <pt x="355" y="605" on="1"/>
        <pt x="307" y="605" on="0"/>
        <pt x="243" y="667" on="0"/>
        <pt x="243" y="715" on="1"/>
        <pt x="243" y="739" on="0"/>
        <pt x="260" y="779" on="0"/>
        <pt x="290" y="808" on="0"/>
        <pt x="331" y="825" on="0"/>
        <pt x="355" y="825" on="1"/>
        <pt x="403" y="825" on="0"/>
        <pt x="465" y="763" on="0"/>
        <pt x="465" y="715" on="1"/>
        <pt x="465" y="691" on="0"/>
        <pt x="448" y="651" on="0"/>
        <pt x="419" y="621" on="0"/>
        <pt x="379" y="605" on="0"/>
      </contour>
    </TTGlyph>
    <TTGlyph name="aringacute.alt" xMin="21" yMin="-11" xMax="501" yMax="1038">
      <contour>
        <pt x="351" y="874" on="1"/>
        <pt x="278" y="874" on="1"/>
        <pt x="385" y="1038" on="1"/>
        <pt x="501" y="1011" on="1"/>
      </contour>
      <contour>
        <pt x="312" y="652" on="1"/>
        <pt x="337" y="652" on="0"/>
        <pt x="370" y="688" on="0"/>
        <pt x="370" y="715" on="1"/>
        <pt x="370" y="742" on="0"/>
        <pt x="337" y="778" on="0"/>
        <pt x="312" y="778" on="1"/>
        <pt x="286" y="778" on="0"/>
        <pt x="252" y="742" on="0"/>
        <pt x="252" y="715" on="1"/>
        <pt x="252" y="688" on="0"/>
        <pt x="286" y="652" on="0"/>
      </contour>
      <contour>
        <pt x="312" y="605" on="1"/>
        <pt x="264" y="605" on="0"/>
        <pt x="200" y="667" on="0"/>
        <pt x="200" y="715" on="1"/>
        <pt x="200" y="739" on="0"/>
        <pt x="217" y="779" on="0"/>
        <pt x="247" y="808" on="0"/>
        <pt x="288" y="825" on="0"/>
        <pt x="312" y="825" on="1"/>
        <pt x="360" y="825" on="0"/>
        <pt x="422" y="763" on="0"/>
        <pt x="422" y="715" on="1"/>
        <pt x="422" y="691" on="0"/>
        <pt x="405" y="651" on="0"/>
        <pt x="376" y="621" on="0"/>
        <pt x="336" y="605" on="0"/>
      </contour>
      <contour>
        <pt x="344" y="381" on="1"/>
        <pt x="345" y="386" on="0"/>
        <pt x="346" y="396" on="0"/>
        <pt x="346" y="401" on="1"/>
        <pt x="346" y="465" on="0"/>
        <pt x="274" y="465" on="1"/>
        <pt x="237" y="465" on="0"/>
        <pt x="155" y="439" on="0"/>
        <pt x="111" y="417" on="1"/>
        <pt x="111" y="505" on="1"/>
        <pt x="148" y="523" on="0"/>
        <pt x="237" y="551" on="0"/>
        <pt x="289" y="551" on="1"/>
        <pt x="368" y="551" on="0"/>
        <pt x="442" y="482" on="0"/>
        <pt x="442" y="419" on="1"/>
        <pt x="442" y="408" on="0"/>
        <pt x="440" y="387" on="0"/>
        <pt x="438" y="376" on="1"/>
        <pt x="396" y="102" on="1"/>
        <pt x="396" y="0" on="1"/>
        <pt x="311" y="0" on="1"/>
        <pt x="305" y="68" on="1"/>
        <pt x="270" y="35" on="0"/>
        <pt x="193" y="-11" on="0"/>
        <pt x="147" y="-11" on="1"/>
        <pt x="89" y="-11" on="0"/>
        <pt x="21" y="60" on="0"/>
        <pt x="21" y="121" on="1"/>
        <pt x="21" y="214" on="0"/>
        <pt x="174" y="330" on="0"/>
        <pt x="338" y="345" on="1"/>
      </contour>
      <contour>
        <pt x="172" y="73" on="1"/>
        <pt x="204" y="73" on="0"/>
        <pt x="268" y="111" on="0"/>
        <pt x="306" y="144" on="1"/>
        <pt x="327" y="273" on="1"/>
        <pt x="268" y="265" on="0"/>
        <pt x="188" y="237" on="0"/>
        <pt x="139" y="201" on="0"/>
        <pt x="118" y="158" on="0"/>
        <pt x="118" y="134" on="1"/>
        <pt x="118" y="105" on="0"/>
        <pt x="146" y="73" on="0"/>
      </contour>
    </TTGlyph>
    <TTGlyph name="asciicircum" xMin="113" yMin="538" xMax="413" yMax="727">
      <contour>
        <pt x="340" y="538" on="1"/>
        <pt x="282" y="645" on="1"/>
        <pt x="190" y="538" on="1"/>
        <pt x="113" y="538" on="1"/>
        <pt x="251" y="727" on="1"/>
        <pt x="332" y="727" on="1"/>
        <pt x="413" y="538" on="1"/>
      </contour>
    </TTGlyph>
    <TTGlyph name="asciitilde" xMin="58" yMin="255" xMax="413" yMax="406">
      <contour>
        <pt x="413" y="395" on="1"/>
        <pt x="396" y="323" on="0"/>
        <pt x="340" y="260" on="0"/>
        <pt x="305" y="260" on="1"/>
        <pt x="282" y="260" on="0"/>
        <pt x="246" y="278" on="0"/>
        <pt x="227" y="290" on="1"/>
        <pt x="202" y="304" on="0"/>
        <pt x="175" y="317" on="0"/>
        <pt x="164" y="317" on="1"/>
        <pt x="151" y="317" on="0"/>
        <pt x="133" y="293" on="0"/>
        <pt x="123" y="255" on="1"/>
        <pt x="58" y="267" on="1"/>
        <pt x="74" y="339" on="0"/>
        <pt x="131" y="402" on="0"/>
        <pt x="166" y="402" on="1"/>
        <pt x="188" y="402" on="0"/>
        <pt x="225" y="384" on="0"/>
        <pt x="244" y="373" on="1"/>
        <pt x="267" y="359" on="0"/>
        <pt x="296" y="345" on="0"/>
        <pt x="307" y="345" on="1"/>
        <pt x="319" y="345" on="0"/>
        <pt x="337" y="369" on="0"/>
        <pt x="348" y="406" on="1"/>
      </contour>
    </TTGlyph>
    <TTGlyph name="asterisk" xMin="88" yMin="465" xMax="418" yMax="778">
      <contour>
        <pt x="306" y="594" on="1"/>
        <pt x="365" y="483" on="1"/>
        <pt x="338" y="465" on="1"/>
        <pt x="253" y="556" on="1"/>
        <pt x="168" y="465" on="1"/>
        <pt x="141" y="483" on="1"/>
        <pt x="200" y="594" on="1"/>
        <pt x="88" y="648" on="1"/>
        <pt x="98" y="679" on="1"/>
        <pt x="221" y="657" on="1"/>
        <pt x="236" y="778" on="1"/>
        <pt x="270" y="778" on="1"/>
        <pt x="285" y="657" on="1"/>
        <pt x="408" y="679" on="1"/>
        <pt x="418" y="648" on="1"/>
      </contour>
    </TTGlyph>
    <TTGlyph name="at" xMin="50" yMin="-155" xMax="811" yMax="702">
      <contour>
        <pt x="616" y="50" on="1"/>
        <pt x="564" y="50" on="0"/>
        <pt x="501" y="103" on="0"/>
        <pt x="496" y="150" on="1"/>
        <pt x="476" y="126" on="0"/>
        <pt x="440" y="88" on="0"/>
        <pt x="405" y="63" on="0"/>
        <pt x="369" y="50" on="0"/>
        <pt x="348" y="50" on="1"/>
        <pt x="301" y="50" on="0"/>
        <pt x="235" y="123" on="0"/>
        <pt x="235" y="194" on="1"/>
        <pt x="235" y="258" on="0"/>
        <pt x="277" y="371" on="0"/>
        <pt x="347" y="455" on="0"/>
        <pt x="441" y="504" on="0"/>
        <pt x="493" y="504" on="1"/>
        <pt x="532" y="504" on="0"/>
        <pt x="590" y="488" on="0"/>
        <pt x="619" y="475" on="1"/>
        <pt x="576" y="207" on="1"/>
        <pt x="575" y="199" on="0"/>
        <pt x="572" y="175" on="0"/>
        <pt x="572" y="165" on="1"/>
        <pt x="572" y="136" on="0"/>
        <pt x="601" y="105" on="0"/>
        <pt x="628" y="105" on="1"/>
        <pt x="656" y="105" on="0"/>
        <pt x="705" y="143" on="0"/>
        <pt x="742" y="212" on="0"/>
        <pt x="763" y="305" on="0"/>
        <pt x="763" y="361" on="1"/>
        <pt x="763" y="436" on="0"/>
        <pt x="721" y="548" on="0"/>
        <pt x="647" y="624" on="0"/>
        <pt x="546" y="662" on="0"/>
        <pt x="486" y="662" on="1"/>
        <pt x="408" y="662" on="0"/>
        <pt x="268" y="590" on="0"/>
        <pt x="162" y="464" on="0"/>
        <pt x="99" y="294" on="0"/>
        <pt x="99" y="197" on="1"/>
        <pt x="99" y="119" on="0"/>
        <pt x="142" y="3" on="0"/>
        <pt x="218" y="-75" on="0"/>
        <pt x="322" y="-114" on="0"/>
        <pt x="383" y="-114" on="1"/>
        <pt x="449" y="-114" on="0"/>
        <pt x="557" y="-85" on="0"/>
        <pt x="605" y="-59" on="1"/>
        <pt x="612" y="-101" on="1"/>
        <pt x="564" y="-124" on="0"/>
        <pt x="452" y="-155" on="0"/>
        <pt x="382" y="-155" on="1"/>
        <pt x="306" y="-155" on="0"/>
        <pt x="183" y="-107" on="0"/>
        <pt x="97" y="-16" on="0"/>
        <pt x="50" y="114" on="0"/>
        <pt x="50" y="196" on="1"/>
        <pt x="50" y="300" on="0"/>
        <pt x="120" y="484" on="0"/>
        <pt x="240" y="622" on="0"/>
        <pt x="399" y="702" on="0"/>
        <pt x="488" y="702" on="1"/>
        <pt x="559" y="702" on="0"/>
        <pt x="678" y="657" on="0"/>
        <pt x="763" y="570" on="0"/>
        <pt x="811" y="444" on="0"/>
        <pt x="811" y="363" on="1"/>
        <pt x="811" y="296" on="0"/>
        <pt x="783" y="181" on="0"/>
        <pt x="732" y="97" on="0"/>
        <pt x="660" y="50" on="0"/>
      </contour>
      <contour>
        <pt x="371" y="125" on="1"/>
        <pt x="397" y="125" on="0"/>
        <pt x="459" y="181" on="0"/>
        <pt x="494" y="227" on="1"/>
        <pt x="527" y="425" on="1"/>
        <pt x="515" y="428" on="0"/>
        <pt x="497" y="432" on="0"/>
        <pt x="484" y="432" on="1"/>
        <pt x="450" y="432" on="0"/>
        <pt x="389" y="393" on="0"/>
        <pt x="344" y="330" on="0"/>
        <pt x="318" y="248" on="0"/>
        <pt x="318" y="205" on="1"/>
        <pt x="318" y="163" on="0"/>
        <pt x="345" y="125" on="0"/>
      </contour>
    </TTGlyph>
    <TTGlyph name="atilde" xMin="40" yMin="-11" xMax="521" yMax="749">
      <component glyphName="a" x="0" y="0" flags="0x204"/>
      <component glyphName="tilde" x="51" y="0" flags="0x4"/>
    </TTGlyph>
    <TTGlyph name="atilde.alt" xMin="21" yMin="-11" xMax="478" yMax="749">
      <component glyphName="a.alt" x="0" y="0" flags="0x204"/>
      <component glyphName="tilde" x="8" y="0" flags="0x4"/>
    </TTGlyph>
    <TTGlyph name="b" xMin="40" yMin="-7" xMax="489" yMax="809">
      <contour>
        <pt x="153" y="793" on="1"/>
        <pt x="252" y="809" on="1"/>
        <pt x="202" y="480" on="1"/>
        <pt x="230" y="509" on="0"/>
        <pt x="299" y="551" on="0"/>
        <pt x="341" y="551" on="1"/>
        <pt x="372" y="551" on="0"/>
        <pt x="426" y="526" on="0"/>
        <pt x="466" y="478" on="0"/>
        <pt x="489" y="406" on="0"/>
        <pt x="489" y="359" on="1"/>
        <pt x="489" y="276" on="0"/>
        <pt x="443" y="141" on="0"/>
        <pt x="366" y="45" on="0"/>
        <pt x="265" y="-7" on="0"/>
        <pt x="210" y="-7" on="1"/>
        <pt x="168" y="-7" on="0"/>
        <pt x="86" y="11" on="0"/>
        <pt x="40" y="30" on="1"/>
      </contour>
      <contour>
        <pt x="145" y="92" on="1"/>
        <pt x="163" y="84" on="0"/>
        <pt x="195" y="76" on="0"/>
        <pt x="217" y="76" on="1"/>
        <pt x="250" y="76" on="0"/>
        <pt x="312" y="115" on="0"/>
        <pt x="362" y="187" on="0"/>
        <pt x="392" y="289" on="0"/>
        <pt x="392" y="353" on="1"/>
        <pt x="392" y="403" on="0"/>
        <pt x="359" y="465" on="0"/>
        <pt x="323" y="465" on="1"/>
        <pt x="289" y="465" on="0"/>
        <pt x="225" y="417" on="0"/>
        <pt x="187" y="378" on="1"/>
      </contour>
    </TTGlyph>
    <TTGlyph name="backslash" xMin="61" yMin="-141" xMax="474" yMax="782">
      <contour>
        <pt x="394" y="-141" on="1"/>
        <pt x="61" y="765" on="1"/>
        <pt x="141" y="782" on="1"/>
        <pt x="474" y="-124" on="1"/>
      </contour>
    </TTGlyph>
    <TTGlyph name="baht" xMin="-53" yMin="-131" xMax="556" yMax="789">
      <contour>
        <pt x="303" y="717" on="1"/>
        <pt x="368" y="717" on="0"/>
        <pt x="416" y="694" on="1"/>
        <pt x="477" y="789" on="1"/>
        <pt x="556" y="770" on="1"/>
        <pt x="474" y="644" on="1"/>
        <pt x="501" y="606" on="0"/>
        <pt x="501" y="552" on="1"/>
        <pt x="501" y="486" on="0"/>
        <pt x="430" y="395" on="0"/>
        <pt x="371" y="376" on="1"/>
        <pt x="422" y="356" on="0"/>
        <pt x="477" y="274" on="0"/>
        <pt x="477" y="220" on="1"/>
        <pt x="477" y="170" on="0"/>
        <pt x="439" y="89" on="0"/>
        <pt x="368" y="32" on="0"/>
        <pt x="266" y="0" on="0"/>
        <pt x="203" y="0" on="1"/>
        <pt x="102" y="0" on="1"/>
        <pt x="25" y="-131" on="1"/>
        <pt x="-53" y="-114" on="1"/>
        <pt x="58" y="79" on="1"/>
        <pt x="152" y="717" on="1"/>
      </contour>
      <contour>
        <pt x="383" y="219" on="1"/>
        <pt x="383" y="274" on="0"/>
        <pt x="312" y="334" on="0"/>
        <pt x="243" y="334" on="1"/>
        <pt x="188" y="334" on="1"/>
        <pt x="150" y="82" on="1"/>
        <pt x="215" y="82" on="1"/>
        <pt x="294" y="82" on="0"/>
        <pt x="383" y="155" on="0"/>
      </contour>
      <contour>
        <pt x="407" y="542" on="1"/>
        <pt x="407" y="584" on="0"/>
        <pt x="354" y="635" on="0"/>
        <pt x="297" y="635" on="1"/>
        <pt x="233" y="635" on="1"/>
        <pt x="200" y="415" on="1"/>
        <pt x="259" y="415" on="1"/>
        <pt x="323" y="415" on="0"/>
        <pt x="407" y="482" on="0"/>
      </contour>
    </TTGlyph>
    <TTGlyph name="bar" xMin="31" yMin="-217" xMax="267" yMax="813">
      <contour>
        <pt x="31" y="-217" on="1"/>
        <pt x="183" y="801" on="1"/>
        <pt x="267" y="813" on="1"/>
        <pt x="115" y="-207" on="1"/>
      </contour>
    </TTGlyph>
    <TTGlyph name="bar.tab" xMin="33" yMin="-128" xMax="272" yMax="902">
      <contour>
        <pt x="33" y="-128" on="1"/>
        <pt x="186" y="890" on="1"/>
        <pt x="272" y="902" on="1"/>
        <pt x="120" y="-118" on="1"/>
      </contour>
    </TTGlyph>
    <TTGlyph name="braceleft" xMin="62" yMin="-105" xMax="521" yMax="784">
      <contour>
        <pt x="511" y="709" on="1"/>
        <pt x="412" y="709" on="1"/>
        <pt x="366" y="709" on="0"/>
        <pt x="327" y="658" on="0"/>
        <pt x="327" y="611" on="1"/>
        <pt x="327" y="523" on="1"/>
        <pt x="327" y="442" on="0"/>
        <pt x="256" y="353" on="0"/>
        <pt x="189" y="340" on="1"/>
        <pt x="189" y="337" on="1"/>
        <pt x="234" y="326" on="0"/>
        <pt x="282" y="279" on="0"/>
        <pt x="282" y="230" on="1"/>
        <pt x="282" y="207" on="0"/>
        <pt x="269" y="150" on="0"/>
        <pt x="253" y="92" on="0"/>
        <pt x="240" y="40" on="0"/>
        <pt x="240" y="23" on="1"/>
        <pt x="240" y="-30" on="0"/>
        <pt x="305" y="-30" on="1"/>
        <pt x="394" y="-30" on="1"/>
        <pt x="394" y="-105" on="1"/>
        <pt x="282" y="-105" on="1"/>
        <pt x="216" y="-105" on="0"/>
        <pt x="145" y="-51" on="0"/>
        <pt x="145" y="6" on="1"/>
        <pt x="145" y="31" on="0"/>
        <pt x="159" y="88" on="0"/>
        <pt x="175" y="145" on="0"/>
        <pt x="189" y="199" on="0"/>
        <pt x="189" y="222" on="1"/>
        <pt x="189" y="265" on="0"/>
        <pt x="140" y="303" on="0"/>
        <pt x="93" y="303" on="1"/>
        <pt x="62" y="303" on="1"/>
        <pt x="62" y="377" on="1"/>
        <pt x="109" y="377" on="1"/>
        <pt x="234" y="377" on="0"/>
        <pt x="234" y="523" on="1"/>
        <pt x="234" y="604" on="1"/>
        <pt x="234" y="694" on="0"/>
        <pt x="320" y="784" on="0"/>
        <pt x="417" y="784" on="1"/>
        <pt x="521" y="784" on="1"/>
      </contour>
    </TTGlyph>
    <TTGlyph name="braceleft.flat" xMin="55" yMin="-105" xMax="521" yMax="784">
      <contour>
        <pt x="511" y="709" on="1"/>
        <pt x="412" y="709" on="1"/>
        <pt x="366" y="709" on="0"/>
        <pt x="327" y="658" on="0"/>
        <pt x="327" y="611" on="1"/>
        <pt x="327" y="523" on="1"/>
        <pt x="327" y="442" on="0"/>
        <pt x="256" y="353" on="0"/>
        <pt x="189" y="340" on="1"/>
        <pt x="189" y="337" on="1"/>
        <pt x="234" y="326" on="0"/>
        <pt x="282" y="279" on="0"/>
        <pt x="282" y="230" on="1"/>
        <pt x="282" y="207" on="0"/>
        <pt x="269" y="150" on="0"/>
        <pt x="253" y="92" on="0"/>
        <pt x="240" y="40" on="0"/>
        <pt x="240" y="23" on="1"/>
        <pt x="240" y="-30" on="0"/>
        <pt x="305" y="-30" on="1"/>
        <pt x="400" y="-30" on="1"/>
        <pt x="389" y="-105" on="1"/>
        <pt x="282" y="-105" on="1"/>
        <pt x="216" y="-105" on="0"/>
        <pt x="145" y="-51" on="0"/>
        <pt x="145" y="6" on="1"/>
        <pt x="145" y="31" on="0"/>
        <pt x="159" y="88" on="0"/>
        <pt x="175" y="145" on="0"/>
        <pt x="189" y="199" on="0"/>
        <pt x="189" y="222" on="1"/>
        <pt x="189" y="265" on="0"/>
        <pt x="140" y="303" on="0"/>
        <pt x="93" y="303" on="1"/>
        <pt x="55" y="303" on="1"/>
        <pt x="66" y="377" on="1"/>
        <pt x="109" y="377" on="1"/>
        <pt x="234" y="377" on="0"/>
        <pt x="234" y="523" on="1"/>
        <pt x="234" y="604" on="1"/>
        <pt x="234" y="694" on="0"/>
        <pt x="320" y="784" on="0"/>
        <pt x="417" y="784" on="1"/>
        <pt x="521" y="784" on="1"/>
      </contour>
    </TTGlyph>
    <TTGlyph name="braceright" xMin="-4" yMin="-105" xMax="457" yMax="784">
      <contour>
        <pt x="8" y="-30" on="1"/>
        <pt x="107" y="-30" on="1"/>
        <pt x="152" y="-30" on="0"/>
        <pt x="192" y="22" on="0"/>
        <pt x="192" y="69" on="1"/>
        <pt x="192" y="157" on="1"/>
        <pt x="192" y="238" on="0"/>
        <pt x="263" y="327" on="0"/>
        <pt x="329" y="341" on="1"/>
        <pt x="329" y="343" on="1"/>
        <pt x="284" y="354" on="0"/>
        <pt x="236" y="401" on="0"/>
        <pt x="236" y="449" on="1"/>
        <pt x="236" y="472" on="0"/>
        <pt x="249" y="530" on="0"/>
        <pt x="266" y="588" on="0"/>
        <pt x="279" y="639" on="0"/>
        <pt x="279" y="656" on="1"/>
        <pt x="279" y="709" on="0"/>
        <pt x="214" y="709" on="1"/>
        <pt x="124" y="709" on="1"/>
        <pt x="124" y="784" on="1"/>
        <pt x="237" y="784" on="1"/>
        <pt x="303" y="784" on="0"/>
        <pt x="373" y="732" on="0"/>
        <pt x="373" y="675" on="1"/>
        <pt x="373" y="650" on="0"/>
        <pt x="360" y="593" on="0"/>
        <pt x="343" y="536" on="0"/>
        <pt x="330" y="480" on="0"/>
        <pt x="330" y="457" on="1"/>
        <pt x="330" y="415" on="0"/>
        <pt x="379" y="376" on="0"/>
        <pt x="425" y="376" on="1"/>
        <pt x="457" y="376" on="1"/>
        <pt x="457" y="302" on="1"/>
        <pt x="409" y="302" on="1"/>
        <pt x="285" y="302" on="0"/>
        <pt x="285" y="156" on="1"/>
        <pt x="285" y="77" on="1"/>
        <pt x="285" y="-14" on="0"/>
        <pt x="199" y="-105" on="0"/>
        <pt x="102" y="-105" on="1"/>
        <pt x="-4" y="-105" on="1"/>
      </contour>
    </TTGlyph>
    <TTGlyph name="braceright.flat" xMin="-4" yMin="-105" xMax="463" yMax="784">
      <contour>
        <pt x="8" y="-30" on="1"/>
        <pt x="107" y="-30" on="1"/>
        <pt x="152" y="-30" on="0"/>
        <pt x="192" y="22" on="0"/>
        <pt x="192" y="69" on="1"/>
        <pt x="192" y="157" on="1"/>
        <pt x="192" y="238" on="0"/>
        <pt x="263" y="327" on="0"/>
        <pt x="329" y="341" on="1"/>
        <pt x="329" y="343" on="1"/>
        <pt x="284" y="354" on="0"/>
        <pt x="236" y="401" on="0"/>
        <pt x="236" y="449" on="1"/>
        <pt x="236" y="472" on="0"/>
        <pt x="249" y="530" on="0"/>
        <pt x="266" y="588" on="0"/>
        <pt x="279" y="639" on="0"/>
        <pt x="279" y="656" on="1"/>
        <pt x="279" y="709" on="0"/>
        <pt x="214" y="709" on="1"/>
        <pt x="119" y="709" on="1"/>
        <pt x="130" y="784" on="1"/>
        <pt x="237" y="784" on="1"/>
        <pt x="303" y="784" on="0"/>
        <pt x="373" y="732" on="0"/>
        <pt x="373" y="675" on="1"/>
        <pt x="373" y="650" on="0"/>
        <pt x="360" y="593" on="0"/>
        <pt x="343" y="536" on="0"/>
        <pt x="330" y="480" on="0"/>
        <pt x="330" y="457" on="1"/>
        <pt x="330" y="415" on="0"/>
        <pt x="379" y="376" on="0"/>
        <pt x="425" y="376" on="1"/>
        <pt x="463" y="376" on="1"/>
        <pt x="451" y="302" on="1"/>
        <pt x="409" y="302" on="1"/>
        <pt x="285" y="302" on="0"/>
        <pt x="285" y="156" on="1"/>
        <pt x="285" y="77" on="1"/>
        <pt x="285" y="-14" on="0"/>
        <pt x="199" y="-105" on="0"/>
        <pt x="102" y="-105" on="1"/>
        <pt x="-4" y="-105" on="1"/>
      </contour>
    </TTGlyph>
    <TTGlyph name="bracketleft" xMin="48" yMin="-105" xMax="457" yMax="784">
      <contour>
        <pt x="446" y="708" on="1"/>
        <pt x="263" y="708" on="1"/>
        <pt x="151" y="-29" on="1"/>
        <pt x="329" y="-29" on="1"/>
        <pt x="329" y="-105" on="1"/>
        <pt x="48" y="-105" on="1"/>
        <pt x="181" y="784" on="1"/>
        <pt x="457" y="784" on="1"/>
      </contour>
    </TTGlyph>
    <TTGlyph name="bracketleft.flat" xMin="48" yMin="-105" xMax="457" yMax="784">
      <contour>
        <pt x="446" y="708" on="1"/>
        <pt x="263" y="708" on="1"/>
        <pt x="151" y="-29" on="1"/>
        <pt x="334" y="-29" on="1"/>
        <pt x="323" y="-105" on="1"/>
        <pt x="48" y="-105" on="1"/>
        <pt x="181" y="784" on="1"/>
        <pt x="457" y="784" on="1"/>
      </contour>
    </TTGlyph>
    <TTGlyph name="bracketright" xMin="-2" yMin="-105" xMax="407" yMax="784">
      <contour>
        <pt x="274" y="-105" on="1"/>
        <pt x="-2" y="-105" on="1"/>
        <pt x="10" y="-29" on="1"/>
        <pt x="193" y="-29" on="1"/>
        <pt x="304" y="709" on="1"/>
        <pt x="126" y="709" on="1"/>
        <pt x="126" y="784" on="1"/>
        <pt x="407" y="784" on="1"/>
      </contour>
    </TTGlyph>
    <TTGlyph name="bracketright.flat" xMin="-2" yMin="-105" xMax="407" yMax="784">
      <contour>
        <pt x="10" y="-29" on="1"/>
        <pt x="193" y="-29" on="1"/>
        <pt x="304" y="709" on="1"/>
        <pt x="121" y="709" on="1"/>
        <pt x="132" y="784" on="1"/>
        <pt x="407" y="784" on="1"/>
        <pt x="274" y="-105" on="1"/>
        <pt x="-2" y="-105" on="1"/>
      </contour>
    </TTGlyph>
    <TTGlyph name="breve" xMin="169" yMin="607" xMax="449" yMax="750">
      <contour>
        <pt x="449" y="737" on="1"/>
        <pt x="434" y="671" on="0"/>
        <pt x="354" y="607" on="0"/>
        <pt x="296" y="607" on="1"/>
        <pt x="235" y="607" on="0"/>
        <pt x="169" y="673" on="0"/>
        <pt x="171" y="736" on="1"/>
        <pt x="240" y="750" on="1"/>
        <pt x="242" y="715" on="0"/>
        <pt x="272" y="683" on="0"/>
        <pt x="301" y="683" on="1"/>
        <pt x="330" y="683" on="0"/>
        <pt x="372" y="715" on="0"/>
        <pt x="384" y="750" on="1"/>
      </contour>
    </TTGlyph>
    <TTGlyph name="breve.cap" xMin="158" yMin="569" xMax="422" yMax="704">
      <contour>
        <pt x="422" y="692" on="1"/>
        <pt x="408" y="629" on="0"/>
        <pt x="333" y="569" on="0"/>
        <pt x="278" y="569" on="1"/>
        <pt x="221" y="569" on="0"/>
        <pt x="158" y="631" on="0"/>
        <pt x="160" y="691" on="1"/>
        <pt x="226" y="704" on="1"/>
        <pt x="228" y="671" on="0"/>
        <pt x="257" y="642" on="0"/>
        <pt x="283" y="642" on="1"/>
        <pt x="309" y="642" on="0"/>
        <pt x="349" y="671" on="0"/>
        <pt x="360" y="704" on="1"/>
      </contour>
    </TTGlyph>
    <TTGlyph name="bullet" xMin="103" yMin="211" xMax="373" yMax="513">
      <contour>
        <pt x="353" y="230" on="1"/>
        <pt x="238" y="211" on="1"/>
        <pt x="124" y="230" on="1"/>
        <pt x="103" y="362" on="1"/>
        <pt x="124" y="495" on="1"/>
        <pt x="238" y="513" on="1"/>
        <pt x="353" y="495" on="1"/>
        <pt x="373" y="362" on="1"/>
      </contour>
    </TTGlyph>
    <TTGlyph name="c" xMin="41" yMin="-10" xMax="440" yMax="551">
      <contour>
        <pt x="412" y="421" on="1"/>
        <pt x="387" y="441" on="0"/>
        <pt x="337" y="466" on="0"/>
        <pt x="305" y="466" on="1"/>
        <pt x="270" y="466" on="0"/>
        <pt x="210" y="425" on="0"/>
        <pt x="166" y="358" on="0"/>
        <pt x="140" y="271" on="0"/>
        <pt x="140" y="226" on="1"/>
        <pt x="140" y="146" on="0"/>
        <pt x="203" y="75" on="0"/>
        <pt x="251" y="75" on="1"/>
        <pt x="284" y="75" on="0"/>
        <pt x="343" y="105" on="0"/>
        <pt x="372" y="125" on="1"/>
        <pt x="372" y="32" on="1"/>
        <pt x="345" y="14" on="0"/>
        <pt x="278" y="-10" on="0"/>
        <pt x="239" y="-10" on="1"/>
        <pt x="150" y="-10" on="0"/>
        <pt x="44" y="105" on="0"/>
        <pt x="42" y="216" on="1"/>
        <pt x="41" y="282" on="0"/>
        <pt x="82" y="404" on="0"/>
        <pt x="154" y="496" on="0"/>
        <pt x="253" y="551" on="0"/>
        <pt x="310" y="551" on="1"/>
        <pt x="350" y="551" on="0"/>
        <pt x="414" y="529" on="0"/>
        <pt x="440" y="510" on="1"/>
      </contour>
    </TTGlyph>
    <TTGlyph name="cacute" xMin="41" yMin="-10" xMax="491" yMax="772">
      <component glyphName="acute" x="77" y="0" flags="0x4"/>
      <component glyphName="c" x="0" y="0" flags="0x4"/>
    </TTGlyph>
    <TTGlyph name="caron" xMin="169" yMin="608" xMax="455" yMax="763">
      <contour>
        <pt x="231" y="763" on="1"/>
        <pt x="296" y="684" on="1"/>
        <pt x="387" y="763" on="1"/>
        <pt x="455" y="763" on="1"/>
        <pt x="332" y="608" on="1"/>
        <pt x="243" y="608" on="1"/>
        <pt x="169" y="763" on="1"/>
      </contour>
    </TTGlyph>
    <TTGlyph name="caron.alt" xMin="234" yMin="602" xMax="374" yMax="808">
      <contour>
        <pt x="361" y="808" on="1"/>
        <pt x="374" y="779" on="0"/>
        <pt x="374" y="752" on="1"/>
        <pt x="374" y="710" on="0"/>
        <pt x="325" y="636" on="0"/>
        <pt x="281" y="602" on="1"/>
        <pt x="234" y="612" on="1"/>
        <pt x="262" y="646" on="0"/>
        <pt x="286" y="699" on="0"/>
        <pt x="286" y="726" on="1"/>
        <pt x="286" y="742" on="0"/>
        <pt x="277" y="774" on="0"/>
        <pt x="270" y="794" on="1"/>
      </contour>
    </TTGlyph>
    <TTGlyph name="caron.alt.cap" xMin="221" yMin="564" xMax="354" yMax="758">
      <contour>
        <pt x="342" y="758" on="1"/>
        <pt x="354" y="732" on="0"/>
        <pt x="354" y="705" on="1"/>
        <pt x="354" y="667" on="0"/>
        <pt x="309" y="596" on="0"/>
        <pt x="267" y="564" on="1"/>
        <pt x="221" y="574" on="1"/>
        <pt x="247" y="606" on="0"/>
        <pt x="270" y="655" on="0"/>
        <pt x="270" y="680" on="1"/>
        <pt x="270" y="695" on="0"/>
        <pt x="262" y="727" on="0"/>
        <pt x="255" y="745" on="1"/>
      </contour>
    </TTGlyph>
    <TTGlyph name="caron.cap" xMin="158" yMin="571" xMax="429" yMax="716">
      <contour>
        <pt x="218" y="716" on="1"/>
        <pt x="278" y="642" on="1"/>
        <pt x="363" y="716" on="1"/>
        <pt x="429" y="716" on="1"/>
        <pt x="313" y="571" on="1"/>
        <pt x="228" y="571" on="1"/>
        <pt x="158" y="716" on="1"/>
      </contour>
    </TTGlyph>
    <TTGlyph name="ccaron" xMin="41" yMin="-10" xMax="480" yMax="763">
      <component glyphName="caron" x="25" y="0" flags="0x4"/>
      <component glyphName="c" x="0" y="0" flags="0x4"/>
    </TTGlyph>
    <TTGlyph name="ccedilla" xMin="41" yMin="-213" xMax="440" yMax="551">
      <component glyphName="c" x="0" y="0" flags="0x204"/>
      <component glyphName="cedilla" x="5" y="0" flags="0x4"/>
    </TTGlyph>
    <TTGlyph name="cdotaccent" xMin="41" yMin="-10" xMax="440" yMax="724">
      <component glyphName="c" x="0" y="0" flags="0x204"/>
      <component glyphName="dotaccent" x="24" y="0" flags="0x4"/>
    </TTGlyph>
    <TTGlyph name="cedilla" xMin="56" yMin="-213" xMax="265" yMax="-64">
      <contour>
        <pt x="121" y="-213" on="1"/>
        <pt x="56" y="-213" on="1"/>
        <pt x="155" y="-64" on="1"/>
        <pt x="265" y="-92" on="1"/>
      </contour>
    </TTGlyph>
    <TTGlyph name="cedilla.cap" xMin="52" yMin="-200" xMax="250" yMax="-60">
      <contour>
        <pt x="115" y="-200" on="1"/>
        <pt x="52" y="-200" on="1"/>
        <pt x="144" y="-60" on="1"/>
        <pt x="250" y="-87" on="1"/>
      </contour>
    </TTGlyph>
    <TTGlyph name="cent" xMin="60" yMin="-12" xMax="453" yMax="727">
      <contour>
        <pt x="386" y="603" on="1"/>
        <pt x="406" y="597" on="0"/>
        <pt x="439" y="579" on="0"/>
        <pt x="453" y="568" on="1"/>
        <pt x="429" y="485" on="1"/>
        <pt x="414" y="497" on="0"/>
        <pt x="380" y="518" on="0"/>
        <pt x="360" y="525" on="1"/>
        <pt x="254" y="181" on="1"/>
        <pt x="265" y="181" on="1"/>
        <pt x="300" y="181" on="0"/>
        <pt x="367" y="207" on="0"/>
        <pt x="395" y="225" on="1"/>
        <pt x="395" y="141" on="1"/>
        <pt x="371" y="127" on="0"/>
        <pt x="299" y="100" on="0"/>
        <pt x="252" y="100" on="1"/>
        <pt x="247" y="100" on="0"/>
        <pt x="237" y="100" on="0"/>
        <pt x="232" y="101" on="1"/>
        <pt x="197" y="-12" on="1"/>
        <pt x="131" y="4" on="1"/>
        <pt x="166" y="119" on="1"/>
        <pt x="118" y="142" on="0"/>
        <pt x="60" y="240" on="0"/>
        <pt x="60" y="312" on="1"/>
        <pt x="60" y="373" on="0"/>
        <pt x="95" y="483" on="0"/>
        <pt x="159" y="567" on="0"/>
        <pt x="250" y="616" on="0"/>
        <pt x="307" y="616" on="1"/>
        <pt x="321" y="616" on="1"/>
        <pt x="353" y="727" on="1"/>
        <pt x="420" y="712" on="1"/>
      </contour>
      <contour>
        <pt x="151" y="318" on="1"/>
        <pt x="151" y="273" on="0"/>
        <pt x="175" y="216" on="0"/>
        <pt x="195" y="201" on="1"/>
        <pt x="299" y="536" on="1"/>
        <pt x="290" y="536" on="0"/>
        <pt x="285" y="535" on="1"/>
        <pt x="254" y="531" on="0"/>
        <pt x="204" y="492" on="0"/>
        <pt x="170" y="433" on="0"/>
        <pt x="151" y="358" on="0"/>
      </contour>
    </TTGlyph>
    <TTGlyph name="cent.tab" xMin="85" yMin="-12" xMax="494" yMax="727">
      <contour>
        <pt x="417" y="605" on="1"/>
        <pt x="440" y="598" on="0"/>
        <pt x="478" y="578" on="0"/>
        <pt x="494" y="567" on="1"/>
        <pt x="471" y="485" on="1"/>
        <pt x="436" y="514" on="0"/>
        <pt x="392" y="527" on="1"/>
        <pt x="289" y="182" on="1"/>
        <pt x="299" y="182" on="1"/>
        <pt x="337" y="182" on="0"/>
        <pt x="403" y="206" on="0"/>
        <pt x="437" y="227" on="1"/>
        <pt x="437" y="144" on="1"/>
        <pt x="409" y="127" on="0"/>
        <pt x="336" y="102" on="0"/>
        <pt x="289" y="102" on="1"/>
        <pt x="284" y="102" on="0"/>
        <pt x="274" y="102" on="0"/>
        <pt x="269" y="103" on="1"/>
        <pt x="234" y="-12" on="1"/>
        <pt x="167" y="4" on="1"/>
        <pt x="201" y="118" on="1"/>
        <pt x="148" y="140" on="0"/>
        <pt x="85" y="237" on="0"/>
        <pt x="85" y="310" on="1"/>
        <pt x="85" y="371" on="0"/>
        <pt x="121" y="482" on="0"/>
        <pt x="189" y="566" on="0"/>
        <pt x="284" y="615" on="0"/>
        <pt x="343" y="615" on="1"/>
        <pt x="352" y="615" on="1"/>
        <pt x="383" y="727" on="1"/>
        <pt x="450" y="712" on="1"/>
      </contour>
      <contour>
        <pt x="175" y="319" on="1"/>
        <pt x="175" y="271" on="0"/>
        <pt x="202" y="212" on="0"/>
        <pt x="228" y="198" on="1"/>
        <pt x="330" y="535" on="1"/>
        <pt x="329" y="535" on="1"/>
        <pt x="293" y="535" on="0"/>
        <pt x="235" y="498" on="0"/>
        <pt x="196" y="438" on="0"/>
        <pt x="175" y="360" on="0"/>
      </contour>
    </TTGlyph>
    <TTGlyph name="circumflex" xMin="145" yMin="608" xMax="432" yMax="764">
      <contour>
        <pt x="369" y="608" on="1"/>
        <pt x="305" y="687" on="1"/>
        <pt x="213" y="608" on="1"/>
        <pt x="145" y="608" on="1"/>
        <pt x="268" y="764" on="1"/>
        <pt x="357" y="764" on="1"/>
        <pt x="432" y="608" on="1"/>
      </contour>
    </TTGlyph>
    <TTGlyph name="circumflex.cap" xMin="136" yMin="571" xMax="407" yMax="717">
      <contour>
        <pt x="346" y="571" on="1"/>
        <pt x="286" y="644" on="1"/>
        <pt x="201" y="571" on="1"/>
        <pt x="136" y="571" on="1"/>
        <pt x="251" y="717" on="1"/>
        <pt x="337" y="717" on="1"/>
        <pt x="407" y="571" on="1"/>
      </contour>
    </TTGlyph>
    <TTGlyph name="colon" xMin="23" yMin="0" xMax="212" yMax="540">
      <contour>
        <pt x="192" y="406" on="1"/>
        <pt x="84" y="406" on="1"/>
        <pt x="103" y="540" on="1"/>
        <pt x="212" y="540" on="1"/>
      </contour>
      <contour>
        <pt x="132" y="0" on="1"/>
        <pt x="23" y="0" on="1"/>
        <pt x="44" y="135" on="1"/>
        <pt x="152" y="135" on="1"/>
      </contour>
    </TTGlyph>
    <TTGlyph name="colon.tab" xMin="39" yMin="0" xMax="227" yMax="540">
      <contour>
        <pt x="99" y="406" on="1"/>
        <pt x="119" y="540" on="1"/>
        <pt x="227" y="540" on="1"/>
        <pt x="208" y="406" on="1"/>
      </contour>
      <contour>
        <pt x="39" y="0" on="1"/>
        <pt x="58" y="135" on="1"/>
        <pt x="167" y="135" on="1"/>
        <pt x="148" y="0" on="1"/>
      </contour>
    </TTGlyph>
    <TTGlyph name="colonmonetary" xMin="58" yMin="-123" xMax="588" yMax="809">
      <contour>
        <pt x="428" y="714" on="1"/>
        <pt x="459" y="706" on="0"/>
        <pt x="485" y="693" on="1"/>
        <pt x="521" y="809" on="1"/>
        <pt x="588" y="791" on="1"/>
        <pt x="375" y="85" on="1"/>
        <pt x="396" y="93" on="0"/>
        <pt x="435" y="114" on="0"/>
        <pt x="453" y="128" on="1"/>
        <pt x="453" y="39" on="1"/>
        <pt x="432" y="28" on="0"/>
        <pt x="381" y="6" on="0"/>
        <pt x="349" y="0" on="1"/>
        <pt x="313" y="-120" on="1"/>
        <pt x="247" y="-102" on="1"/>
        <pt x="276" y="-6" on="1"/>
        <pt x="245" y="-5" on="0"/>
        <pt x="213" y="5" on="1"/>
        <pt x="176" y="-123" on="1"/>
        <pt x="110" y="-105" on="1"/>
        <pt x="152" y="36" on="1"/>
        <pt x="110" y="67" on="0"/>
        <pt x="58" y="182" on="0"/>
        <pt x="58" y="274" on="1"/>
        <pt x="58" y="352" on="0"/>
        <pt x="95" y="505" on="0"/>
        <pt x="166" y="629" on="0"/>
        <pt x="270" y="713" on="0"/>
        <pt x="338" y="721" on="1"/>
        <pt x="343" y="721" on="0"/>
        <pt x="352" y="722" on="0"/>
        <pt x="357" y="722" on="1"/>
        <pt x="383" y="806" on="1"/>
        <pt x="450" y="787" on="1"/>
      </contour>
      <contour>
        <pt x="148" y="266" on="1"/>
        <pt x="148" y="215" on="0"/>
        <pt x="165" y="147" on="0"/>
        <pt x="181" y="125" on="1"/>
        <pt x="336" y="642" on="1"/>
        <pt x="292" y="634" on="0"/>
        <pt x="222" y="567" on="0"/>
        <pt x="174" y="465" on="0"/>
        <pt x="148" y="336" on="0"/>
      </contour>
      <contour>
        <pt x="309" y="72" on="1"/>
        <pt x="469" y="609" on="1"/>
        <pt x="455" y="620" on="0"/>
        <pt x="418" y="636" on="0"/>
        <pt x="397" y="640" on="1"/>
        <pt x="230" y="84" on="1"/>
        <pt x="246" y="77" on="0"/>
        <pt x="280" y="72" on="0"/>
        <pt x="298" y="72" on="1"/>
      </contour>
    </TTGlyph>
    <TTGlyph name="comma" xMin="-27" yMin="-141" xMax="172" yMax="135">
      <contour>
        <pt x="29" y="-141" on="1"/>
        <pt x="-27" y="-127" on="1"/>
        <pt x="56" y="135" on="1"/>
        <pt x="172" y="135" on="1"/>
      </contour>
    </TTGlyph>
    <TTGlyph name="comma.alt" xMin="-31" yMin="-144" xMax="148" yMax="135">
      <contour>
        <pt x="145" y="135" on="1"/>
        <pt x="147" y="124" on="0"/>
        <pt x="148" y="104" on="0"/>
        <pt x="148" y="93" on="1"/>
        <pt x="147" y="24" on="0"/>
        <pt x="81" y="-88" on="0"/>
        <pt x="24" y="-144" on="1"/>
        <pt x="-31" y="-119" on="1"/>
        <pt x="48" y="-15" on="0"/>
        <pt x="48" y="92" on="1"/>
        <pt x="48" y="104" on="0"/>
        <pt x="47" y="121" on="0"/>
        <pt x="45" y="135" on="1"/>
      </contour>
    </TTGlyph>
    <TTGlyph name="comma.tab" xMin="-7" yMin="-149" xMax="187" yMax="135">
      <contour>
        <pt x="50" y="-149" on="1"/>
        <pt x="-7" y="-135" on="1"/>
        <pt x="74" y="135" on="1"/>
        <pt x="187" y="135" on="1"/>
      </contour>
    </TTGlyph>
    <TTGlyph name="comma.tab_alt" xMin="-19" yMin="-149" xMax="161" yMax="135">
      <contour>
        <pt x="159" y="135" on="1"/>
        <pt x="160" y="124" on="0"/>
        <pt x="161" y="103" on="0"/>
        <pt x="161" y="92" on="1"/>
        <pt x="160" y="23" on="0"/>
        <pt x="92" y="-92" on="0"/>
        <pt x="35" y="-149" on="1"/>
        <pt x="-19" y="-124" on="1"/>
        <pt x="22" y="-69" on="0"/>
        <pt x="63" y="36" on="0"/>
        <pt x="63" y="91" on="1"/>
        <pt x="63" y="104" on="0"/>
        <pt x="61" y="121" on="0"/>
        <pt x="59" y="135" on="1"/>
      </contour>
    </TTGlyph>
    <TTGlyph name="commaaccent" xMin="113" yMin="-267" xMax="265" yMax="-64">
      <contour>
        <pt x="237" y="-64" on="1"/>
        <pt x="251" y="-81" on="0"/>
        <pt x="265" y="-114" on="0"/>
        <pt x="265" y="-131" on="1"/>
        <pt x="265" y="-162" on="0"/>
        <pt x="226" y="-225" on="0"/>
        <pt x="171" y="-267" on="1"/>
        <pt x="113" y="-252" on="1"/>
        <pt x="144" y="-217" on="0"/>
        <pt x="170" y="-168" on="0"/>
        <pt x="170" y="-147" on="1"/>
        <pt x="170" y="-132" on="0"/>
        <pt x="157" y="-106" on="0"/>
        <pt x="144" y="-89" on="1"/>
      </contour>
    </TTGlyph>
    <TTGlyph name="commaaccent.cap" xMin="107" yMin="-252" xMax="251" yMax="-60">
      <contour>
        <pt x="225" y="-60" on="1"/>
        <pt x="238" y="-77" on="0"/>
        <pt x="251" y="-106" on="0"/>
        <pt x="251" y="-123" on="1"/>
        <pt x="251" y="-152" on="0"/>
        <pt x="214" y="-211" on="0"/>
        <pt x="162" y="-252" on="1"/>
        <pt x="107" y="-237" on="1"/>
        <pt x="136" y="-205" on="0"/>
        <pt x="159" y="-158" on="0"/>
        <pt x="159" y="-138" on="1"/>
        <pt x="159" y="-124" on="0"/>
        <pt x="147" y="-99" on="0"/>
        <pt x="135" y="-83" on="1"/>
      </contour>
    </TTGlyph>
    <TTGlyph name="commaaccent.rot" xMin="280" yMin="606" xMax="432" yMax="809">
      <contour>
        <pt x="308" y="606" on="1"/>
        <pt x="280" y="642" on="0"/>
        <pt x="280" y="674" on="1"/>
        <pt x="280" y="705" on="0"/>
        <pt x="319" y="767" on="0"/>
        <pt x="374" y="809" on="1"/>
        <pt x="432" y="796" on="1"/>
        <pt x="401" y="760" on="0"/>
        <pt x="375" y="711" on="0"/>
        <pt x="375" y="689" on="1"/>
        <pt x="375" y="675" on="0"/>
        <pt x="388" y="648" on="0"/>
        <pt x="401" y="631" on="1"/>
      </contour>
    </TTGlyph>
    <TTGlyph name="copyright" xMin="75" yMin="-19" xMax="730" yMax="744">
      <contour>
        <pt x="730" y="363" on="1"/>
        <pt x="730" y="278" on="0"/>
        <pt x="682" y="137" on="0"/>
        <pt x="595" y="37" on="0"/>
        <pt x="475" y="-19" on="0"/>
        <pt x="402" y="-19" on="1"/>
        <pt x="328" y="-19" on="0"/>
        <pt x="207" y="36" on="0"/>
        <pt x="122" y="136" on="0"/>
        <pt x="75" y="276" on="0"/>
        <pt x="75" y="361" on="1"/>
        <pt x="75" y="447" on="0"/>
        <pt x="123" y="588" on="0"/>
        <pt x="209" y="689" on="0"/>
        <pt x="330" y="744" on="0"/>
        <pt x="403" y="744" on="1"/>
        <pt x="476" y="744" on="0"/>
        <pt x="597" y="689" on="0"/>
        <pt x="683" y="589" on="0"/>
        <pt x="730" y="448" on="0"/>
      </contour>
      <contour>
        <pt x="683" y="362" on="1"/>
        <pt x="683" y="444" on="0"/>
        <pt x="639" y="572" on="0"/>
        <pt x="563" y="659" on="0"/>
        <pt x="461" y="705" on="0"/>
        <pt x="403" y="705" on="1"/>
        <pt x="344" y="705" on="0"/>
        <pt x="241" y="659" on="0"/>
        <pt x="165" y="572" on="0"/>
        <pt x="122" y="444" on="0"/>
        <pt x="122" y="362" on="1"/>
        <pt x="122" y="280" on="0"/>
        <pt x="166" y="153" on="0"/>
        <pt x="242" y="66" on="0"/>
        <pt x="344" y="21" on="0"/>
        <pt x="403" y="21" on="1"/>
        <pt x="461" y="21" on="0"/>
        <pt x="564" y="66" on="0"/>
        <pt x="639" y="153" on="0"/>
        <pt x="683" y="280" on="0"/>
      </contour>
      <contour>
        <pt x="526" y="189" on="1"/>
        <pt x="503" y="171" on="0"/>
        <pt x="445" y="150" on="0"/>
        <pt x="413" y="150" on="1"/>
        <pt x="335" y="150" on="0"/>
        <pt x="241" y="264" on="0"/>
        <pt x="241" y="365" on="1"/>
        <pt x="241" y="414" on="0"/>
        <pt x="266" y="494" on="0"/>
        <pt x="312" y="550" on="0"/>
        <pt x="377" y="581" on="0"/>
        <pt x="417" y="581" on="1"/>
        <pt x="448" y="581" on="0"/>
        <pt x="496" y="565" on="0"/>
        <pt x="520" y="550" on="1"/>
        <pt x="509" y="479" on="1"/>
        <pt x="485" y="497" on="0"/>
        <pt x="442" y="513" on="0"/>
        <pt x="417" y="513" on="1"/>
        <pt x="369" y="513" on="0"/>
        <pt x="312" y="431" on="0"/>
        <pt x="312" y="365" on="1"/>
        <pt x="312" y="299" on="0"/>
        <pt x="368" y="218" on="0"/>
        <pt x="416" y="218" on="1"/>
        <pt x="442" y="218" on="0"/>
        <pt x="488" y="237" on="0"/>
        <pt x="516" y="257" on="1"/>
      </contour>
    </TTGlyph>
    <TTGlyph name="d" xMin="40" yMin="-11" xMax="535" yMax="809">
      <contour>
        <pt x="434" y="133" on="1"/>
        <pt x="434" y="0" on="1"/>
        <pt x="348" y="0" on="1"/>
        <pt x="342" y="76" on="1"/>
        <pt x="311" y="41" on="0"/>
        <pt x="233" y="-11" on="0"/>
        <pt x="188" y="-11" on="1"/>
        <pt x="157" y="-11" on="0"/>
        <pt x="103" y="14" on="0"/>
        <pt x="63" y="62" on="0"/>
        <pt x="40" y="135" on="0"/>
        <pt x="40" y="183" on="1"/>
        <pt x="40" y="265" on="0"/>
        <pt x="86" y="399" on="0"/>
        <pt x="163" y="495" on="0"/>
        <pt x="263" y="547" on="0"/>
        <pt x="317" y="547" on="1"/>
        <pt x="340" y="547" on="0"/>
        <pt x="381" y="539" on="0"/>
        <pt x="399" y="534" on="1"/>
        <pt x="437" y="793" on="1"/>
        <pt x="535" y="809" on="1"/>
      </contour>
      <contour>
        <pt x="385" y="449" on="1"/>
        <pt x="368" y="458" on="0"/>
        <pt x="337" y="464" on="0"/>
        <pt x="314" y="464" on="1"/>
        <pt x="281" y="464" on="0"/>
        <pt x="217" y="426" on="0"/>
        <pt x="168" y="354" on="0"/>
        <pt x="137" y="252" on="0"/>
        <pt x="137" y="188" on="1"/>
        <pt x="137" y="137" on="0"/>
        <pt x="171" y="75" on="0"/>
        <pt x="208" y="75" on="1"/>
        <pt x="242" y="75" on="0"/>
        <pt x="306" y="124" on="0"/>
        <pt x="342" y="163" on="1"/>
      </contour>
    </TTGlyph>
    <TTGlyph name="dagger" xMin="90" yMin="-103" xMax="499" yMax="725">
      <contour>
        <pt x="318" y="519" on="1"/>
        <pt x="284" y="519" on="1"/>
        <pt x="281" y="651" on="1"/>
        <pt x="293" y="725" on="1"/>
        <pt x="371" y="725" on="1"/>
        <pt x="360" y="651" on="1"/>
      </contour>
      <contour>
        <pt x="453" y="441" on="1"/>
        <pt x="332" y="462" on="1"/>
        <pt x="336" y="495" on="1"/>
        <pt x="464" y="518" on="1"/>
        <pt x="499" y="518" on="1"/>
        <pt x="487" y="441" on="1"/>
      </contour>
      <contour>
        <pt x="126" y="441" on="1"/>
        <pt x="90" y="441" on="1"/>
        <pt x="102" y="518" on="1"/>
        <pt x="137" y="518" on="1"/>
        <pt x="257" y="495" on="1"/>
        <pt x="252" y="462" on="1"/>
      </contour>
      <contour>
        <pt x="223" y="-103" on="1"/>
        <pt x="192" y="-103" on="1"/>
        <pt x="192" y="34" on="1"/>
        <pt x="234" y="313" on="1"/>
        <pt x="272" y="440" on="1"/>
        <pt x="306" y="440" on="1"/>
        <pt x="306" y="313" on="1"/>
        <pt x="264" y="34" on="1"/>
      </contour>
    </TTGlyph>
    <TTGlyph name="daggerdbl" xMin="36" yMin="-171" xMax="503" yMax="725">
      <contour>
        <pt x="323" y="519" on="1"/>
        <pt x="289" y="519" on="1"/>
        <pt x="287" y="651" on="1"/>
        <pt x="298" y="725" on="1"/>
        <pt x="376" y="725" on="1"/>
        <pt x="364" y="651" on="1"/>
      </contour>
      <contour>
        <pt x="457" y="441" on="1"/>
        <pt x="337" y="462" on="1"/>
        <pt x="342" y="495" on="1"/>
        <pt x="468" y="518" on="1"/>
        <pt x="503" y="518" on="1"/>
        <pt x="492" y="441" on="1"/>
      </contour>
      <contour>
        <pt x="130" y="441" on="1"/>
        <pt x="94" y="441" on="1"/>
        <pt x="106" y="518" on="1"/>
        <pt x="141" y="518" on="1"/>
        <pt x="262" y="495" on="1"/>
        <pt x="258" y="462" on="1"/>
      </contour>
      <contour>
        <pt x="263" y="115" on="1"/>
        <pt x="228" y="115" on="1"/>
        <pt x="228" y="242" on="1"/>
        <pt x="239" y="313" on="1"/>
        <pt x="276" y="440" on="1"/>
        <pt x="311" y="440" on="1"/>
        <pt x="310" y="313" on="1"/>
        <pt x="300" y="241" on="1"/>
      </contour>
      <contour>
        <pt x="398" y="37" on="1"/>
        <pt x="277" y="58" on="1"/>
        <pt x="281" y="93" on="1"/>
        <pt x="409" y="114" on="1"/>
        <pt x="445" y="114" on="1"/>
        <pt x="433" y="37" on="1"/>
      </contour>
      <contour>
        <pt x="70" y="37" on="1"/>
        <pt x="36" y="37" on="1"/>
        <pt x="48" y="114" on="1"/>
        <pt x="81" y="114" on="1"/>
        <pt x="201" y="93" on="1"/>
        <pt x="197" y="58" on="1"/>
      </contour>
      <contour>
        <pt x="163" y="-171" on="1"/>
        <pt x="175" y="-97" on="1"/>
        <pt x="215" y="36" on="1"/>
        <pt x="250" y="36" on="1"/>
        <pt x="252" y="-97" on="1"/>
        <pt x="242" y="-171" on="1"/>
      </contour>
    </TTGlyph>
    <TTGlyph name="dcaron" xMin="40" yMin="-11" xMax="677" yMax="809">
      <component glyphName="caron.alt" x="303" y="1" flags="0x4"/>
      <component glyphName="d" x="0" y="0" flags="0x4"/>
    </TTGlyph>
    <TTGlyph name="dcroat" xMin="40" yMin="-11" xMax="598" yMax="809">
      <contour>
        <pt x="521" y="714" on="1"/>
        <pt x="598" y="714" on="1"/>
        <pt x="586" y="634" on="1"/>
        <pt x="509" y="634" on="1"/>
        <pt x="434" y="133" on="1"/>
        <pt x="434" y="0" on="1"/>
        <pt x="348" y="0" on="1"/>
        <pt x="342" y="76" on="1"/>
        <pt x="311" y="41" on="0"/>
        <pt x="233" y="-11" on="0"/>
        <pt x="188" y="-11" on="1"/>
        <pt x="157" y="-11" on="0"/>
        <pt x="103" y="14" on="0"/>
        <pt x="63" y="62" on="0"/>
        <pt x="40" y="135" on="0"/>
        <pt x="40" y="183" on="1"/>
        <pt x="40" y="265" on="0"/>
        <pt x="86" y="399" on="0"/>
        <pt x="163" y="495" on="0"/>
        <pt x="263" y="547" on="0"/>
        <pt x="317" y="547" on="1"/>
        <pt x="340" y="547" on="0"/>
        <pt x="381" y="539" on="0"/>
        <pt x="399" y="534" on="1"/>
        <pt x="414" y="634" on="1"/>
        <pt x="301" y="634" on="1"/>
        <pt x="301" y="714" on="1"/>
        <pt x="425" y="714" on="1"/>
        <pt x="437" y="793" on="1"/>
        <pt x="535" y="809" on="1"/>
      </contour>
      <contour>
        <pt x="385" y="449" on="1"/>
        <pt x="368" y="458" on="0"/>
        <pt x="337" y="464" on="0"/>
        <pt x="314" y="464" on="1"/>
        <pt x="281" y="464" on="0"/>
        <pt x="217" y="426" on="0"/>
        <pt x="168" y="354" on="0"/>
        <pt x="137" y="252" on="0"/>
        <pt x="137" y="188" on="1"/>
        <pt x="137" y="137" on="0"/>
        <pt x="171" y="75" on="0"/>
        <pt x="208" y="75" on="1"/>
        <pt x="242" y="75" on="0"/>
        <pt x="306" y="124" on="0"/>
        <pt x="342" y="163" on="1"/>
      </contour>
    </TTGlyph>
    <TTGlyph name="dcroat.flat" xMin="40" yMin="-11" xMax="598" yMax="809">
      <contour>
        <pt x="521" y="714" on="1"/>
        <pt x="598" y="714" on="1"/>
        <pt x="586" y="634" on="1"/>
        <pt x="509" y="634" on="1"/>
        <pt x="434" y="133" on="1"/>
        <pt x="434" y="0" on="1"/>
        <pt x="348" y="0" on="1"/>
        <pt x="342" y="76" on="1"/>
        <pt x="311" y="41" on="0"/>
        <pt x="233" y="-11" on="0"/>
        <pt x="188" y="-11" on="1"/>
        <pt x="157" y="-11" on="0"/>
        <pt x="103" y="14" on="0"/>
        <pt x="63" y="62" on="0"/>
        <pt x="40" y="135" on="0"/>
        <pt x="40" y="183" on="1"/>
        <pt x="40" y="265" on="0"/>
        <pt x="86" y="399" on="0"/>
        <pt x="163" y="495" on="0"/>
        <pt x="263" y="547" on="0"/>
        <pt x="317" y="547" on="1"/>
        <pt x="340" y="547" on="0"/>
        <pt x="381" y="539" on="0"/>
        <pt x="399" y="534" on="1"/>
        <pt x="414" y="634" on="1"/>
        <pt x="294" y="634" on="1"/>
        <pt x="306" y="714" on="1"/>
        <pt x="425" y="714" on="1"/>
        <pt x="437" y="793" on="1"/>
        <pt x="535" y="809" on="1"/>
      </contour>
      <contour>
        <pt x="385" y="449" on="1"/>
        <pt x="368" y="458" on="0"/>
        <pt x="337" y="464" on="0"/>
        <pt x="314" y="464" on="1"/>
        <pt x="281" y="464" on="0"/>
        <pt x="217" y="426" on="0"/>
        <pt x="168" y="354" on="0"/>
        <pt x="137" y="252" on="0"/>
        <pt x="137" y="188" on="1"/>
        <pt x="137" y="137" on="0"/>
        <pt x="171" y="75" on="0"/>
        <pt x="208" y="75" on="1"/>
        <pt x="242" y="75" on="0"/>
        <pt x="306" y="124" on="0"/>
        <pt x="342" y="163" on="1"/>
      </contour>
    </TTGlyph>
    <TTGlyph name="degree" xMin="97" yMin="405" xMax="416" yMax="725">
      <contour>
        <pt x="416" y="564" on="1"/>
        <pt x="416" y="529" on="0"/>
        <pt x="392" y="471" on="0"/>
        <pt x="350" y="429" on="0"/>
        <pt x="291" y="405" on="0"/>
        <pt x="257" y="405" on="1"/>
        <pt x="222" y="405" on="0"/>
        <pt x="163" y="429" on="0"/>
        <pt x="121" y="471" on="0"/>
        <pt x="97" y="529" on="0"/>
        <pt x="97" y="564" on="1"/>
        <pt x="97" y="599" on="0"/>
        <pt x="121" y="658" on="0"/>
        <pt x="163" y="701" on="0"/>
        <pt x="222" y="725" on="0"/>
        <pt x="257" y="725" on="1"/>
        <pt x="291" y="725" on="0"/>
        <pt x="350" y="701" on="0"/>
        <pt x="392" y="658" on="0"/>
        <pt x="416" y="599" on="0"/>
      </contour>
      <contour>
        <pt x="348" y="564" on="1"/>
        <pt x="348" y="605" on="0"/>
        <pt x="296" y="659" on="0"/>
        <pt x="257" y="659" on="1"/>
        <pt x="216" y="659" on="0"/>
        <pt x="166" y="605" on="0"/>
        <pt x="166" y="564" on="1"/>
        <pt x="166" y="524" on="0"/>
        <pt x="217" y="472" on="0"/>
        <pt x="257" y="472" on="1"/>
        <pt x="297" y="472" on="0"/>
        <pt x="348" y="524" on="0"/>
      </contour>
    </TTGlyph>
    <TTGlyph name="degree.tab" xMin="125" yMin="368" xMax="484" yMax="726">
      <contour>
        <pt x="305" y="368" on="1"/>
        <pt x="266" y="368" on="0"/>
        <pt x="200" y="394" on="0"/>
        <pt x="152" y="442" on="0"/>
        <pt x="125" y="507" on="0"/>
        <pt x="125" y="546" on="1"/>
        <pt x="125" y="585" on="0"/>
        <pt x="152" y="651" on="0"/>
        <pt x="200" y="699" on="0"/>
        <pt x="266" y="726" on="0"/>
        <pt x="305" y="726" on="1"/>
        <pt x="344" y="726" on="0"/>
        <pt x="410" y="699" on="0"/>
        <pt x="458" y="651" on="0"/>
        <pt x="484" y="585" on="0"/>
        <pt x="484" y="546" on="1"/>
        <pt x="484" y="507" on="0"/>
        <pt x="458" y="442" on="0"/>
        <pt x="410" y="394" on="0"/>
        <pt x="344" y="368" on="0"/>
      </contour>
      <contour>
        <pt x="305" y="658" on="1"/>
        <pt x="257" y="658" on="0"/>
        <pt x="196" y="594" on="0"/>
        <pt x="196" y="546" on="1"/>
        <pt x="196" y="496" on="0"/>
        <pt x="257" y="435" on="0"/>
        <pt x="305" y="435" on="1"/>
        <pt x="351" y="435" on="0"/>
        <pt x="414" y="496" on="0"/>
        <pt x="414" y="546" on="1"/>
        <pt x="414" y="570" on="0"/>
        <pt x="397" y="611" on="0"/>
        <pt x="368" y="641" on="0"/>
        <pt x="328" y="658" on="0"/>
      </contour>
    </TTGlyph>
    <TTGlyph name="dieresis" xMin="148" yMin="613" xMax="448" yMax="724">
      <contour>
        <pt x="328" y="613" on="1"/>
        <pt x="345" y="724" on="1"/>
        <pt x="448" y="724" on="1"/>
        <pt x="431" y="613" on="1"/>
      </contour>
      <contour>
        <pt x="148" y="613" on="1"/>
        <pt x="165" y="724" on="1"/>
        <pt x="267" y="724" on="1"/>
        <pt x="250" y="613" on="1"/>
      </contour>
    </TTGlyph>
    <TTGlyph name="dieresis.cap" xMin="138" yMin="574" xMax="422" yMax="681">
      <contour>
        <pt x="307" y="574" on="1"/>
        <pt x="324" y="681" on="1"/>
        <pt x="422" y="681" on="1"/>
        <pt x="406" y="574" on="1"/>
      </contour>
      <contour>
        <pt x="138" y="574" on="1"/>
        <pt x="154" y="681" on="1"/>
        <pt x="251" y="681" on="1"/>
        <pt x="235" y="574" on="1"/>
      </contour>
    </TTGlyph>
    <TTGlyph name="divide" xMin="68" yMin="135" xMax="502" yMax="583">
      <contour>
        <pt x="255" y="477" on="1"/>
        <pt x="271" y="583" on="1"/>
        <pt x="367" y="583" on="1"/>
        <pt x="350" y="477" on="1"/>
      </contour>
      <contour>
        <pt x="68" y="320" on="1"/>
        <pt x="80" y="397" on="1"/>
        <pt x="502" y="397" on="1"/>
        <pt x="490" y="320" on="1"/>
      </contour>
      <contour>
        <pt x="204" y="135" on="1"/>
        <pt x="220" y="241" on="1"/>
        <pt x="315" y="241" on="1"/>
        <pt x="299" y="135" on="1"/>
      </contour>
    </TTGlyph>
    <TTGlyph name="divide.tab" xMin="56" yMin="125" xMax="505" yMax="594">
      <contour>
        <pt x="251" y="485" on="1"/>
        <pt x="267" y="594" on="1"/>
        <pt x="365" y="594" on="1"/>
        <pt x="349" y="485" on="1"/>
      </contour>
      <contour>
        <pt x="56" y="320" on="1"/>
        <pt x="67" y="399" on="1"/>
        <pt x="505" y="399" on="1"/>
        <pt x="493" y="320" on="1"/>
      </contour>
      <contour>
        <pt x="196" y="125" on="1"/>
        <pt x="213" y="233" on="1"/>
        <pt x="311" y="233" on="1"/>
        <pt x="294" y="125" on="1"/>
      </contour>
    </TTGlyph>
    <TTGlyph name="dollar" xMin="13" yMin="-129" xMax="508" yMax="805">
      <contour>
        <pt x="418" y="710" on="1"/>
        <pt x="445" y="702" on="0"/>
        <pt x="491" y="683" on="0"/>
        <pt x="508" y="672" on="1"/>
        <pt x="484" y="587" on="1"/>
        <pt x="464" y="600" on="0"/>
        <pt x="417" y="623" on="0"/>
        <pt x="391" y="631" on="1"/>
        <pt x="324" y="400" on="1"/>
        <pt x="395" y="353" on="0"/>
        <pt x="458" y="259" on="0"/>
        <pt x="458" y="201" on="1"/>
        <pt x="458" y="155" on="0"/>
        <pt x="424" y="79" on="0"/>
        <pt x="362" y="25" on="0"/>
        <pt x="278" y="-5" on="0"/>
        <pt x="228" y="-5" on="1"/>
        <pt x="223" y="-5" on="0"/>
        <pt x="213" y="-5" on="0"/>
        <pt x="208" y="-4" on="1"/>
        <pt x="170" y="-129" on="1"/>
        <pt x="106" y="-116" on="1"/>
        <pt x="142" y="6" on="1"/>
        <pt x="102" y="17" on="0"/>
        <pt x="36" y="48" on="0"/>
        <pt x="13" y="64" on="1"/>
        <pt x="37" y="150" on="1"/>
        <pt x="66" y="130" on="0"/>
        <pt x="132" y="95" on="0"/>
        <pt x="169" y="85" on="1"/>
        <pt x="244" y="344" on="1"/>
        <pt x="213" y="364" on="0"/>
        <pt x="163" y="404" on="0"/>
        <pt x="128" y="450" on="0"/>
        <pt x="109" y="503" on="0"/>
        <pt x="109" y="535" on="1"/>
        <pt x="109" y="574" on="0"/>
        <pt x="138" y="642" on="0"/>
        <pt x="192" y="693" on="0"/>
        <pt x="271" y="723" on="0"/>
        <pt x="321" y="723" on="1"/>
        <pt x="329" y="723" on="0"/>
        <pt x="344" y="723" on="0"/>
        <pt x="352" y="722" on="1"/>
        <pt x="377" y="805" on="1"/>
        <pt x="441" y="789" on="1"/>
      </contour>
      <contour>
        <pt x="368" y="192" on="1"/>
        <pt x="368" y="226" on="0"/>
        <pt x="337" y="279" on="0"/>
        <pt x="298" y="308" on="1"/>
        <pt x="231" y="76" on="1"/>
        <pt x="236" y="76" on="1"/>
        <pt x="264" y="76" on="0"/>
        <pt x="312" y="93" on="0"/>
        <pt x="348" y="124" on="0"/>
        <pt x="368" y="166" on="0"/>
      </contour>
      <contour>
        <pt x="198" y="543" on="1"/>
        <pt x="198" y="514" on="0"/>
        <pt x="229" y="467" on="0"/>
        <pt x="271" y="436" on="1"/>
        <pt x="331" y="642" on="1"/>
        <pt x="327" y="643" on="0"/>
        <pt x="319" y="643" on="0"/>
        <pt x="315" y="643" on="1"/>
        <pt x="260" y="643" on="0"/>
        <pt x="198" y="585" on="0"/>
      </contour>
    </TTGlyph>
    <TTGlyph name="dollar.tab" xMin="12" yMin="-129" xMax="519" yMax="805">
      <contour>
        <pt x="424" y="711" on="1"/>
        <pt x="453" y="704" on="0"/>
        <pt x="500" y="684" on="0"/>
        <pt x="519" y="673" on="1"/>
        <pt x="494" y="589" on="1"/>
        <pt x="472" y="603" on="0"/>
        <pt x="423" y="625" on="0"/>
        <pt x="397" y="633" on="1"/>
        <pt x="329" y="400" on="1"/>
        <pt x="367" y="375" on="0"/>
        <pt x="421" y="329" on="0"/>
        <pt x="454" y="282" on="0"/>
        <pt x="469" y="231" on="0"/>
        <pt x="469" y="202" on="1"/>
        <pt x="469" y="156" on="0"/>
        <pt x="434" y="80" on="0"/>
        <pt x="371" y="25" on="0"/>
        <pt x="284" y="-6" on="0"/>
        <pt x="232" y="-6" on="1"/>
        <pt x="227" y="-6" on="0"/>
        <pt x="218" y="-6" on="0"/>
        <pt x="213" y="-5" on="1"/>
        <pt x="176" y="-129" on="1"/>
        <pt x="110" y="-117" on="1"/>
        <pt x="146" y="5" on="1"/>
        <pt x="104" y="15" on="0"/>
        <pt x="36" y="47" on="0"/>
        <pt x="12" y="62" on="1"/>
        <pt x="38" y="147" on="1"/>
        <pt x="67" y="127" on="0"/>
        <pt x="134" y="92" on="0"/>
        <pt x="172" y="82" on="1"/>
        <pt x="248" y="346" on="1"/>
        <pt x="216" y="367" on="0"/>
        <pt x="164" y="408" on="0"/>
        <pt x="128" y="453" on="0"/>
        <pt x="108" y="504" on="0"/>
        <pt x="108" y="536" on="1"/>
        <pt x="108" y="575" on="0"/>
        <pt x="137" y="644" on="0"/>
        <pt x="193" y="694" on="0"/>
        <pt x="275" y="723" on="0"/>
        <pt x="328" y="723" on="1"/>
        <pt x="336" y="723" on="0"/>
        <pt x="349" y="723" on="0"/>
        <pt x="357" y="722" on="1"/>
        <pt x="381" y="805" on="1"/>
        <pt x="447" y="790" on="1"/>
      </contour>
      <contour>
        <pt x="381" y="193" on="1"/>
        <pt x="381" y="227" on="0"/>
        <pt x="346" y="277" on="0"/>
        <pt x="303" y="309" on="1"/>
        <pt x="235" y="74" on="1"/>
        <pt x="237" y="74" on="1"/>
        <pt x="268" y="74" on="0"/>
        <pt x="320" y="91" on="0"/>
        <pt x="359" y="122" on="0"/>
        <pt x="381" y="166" on="0"/>
      </contour>
      <contour>
        <pt x="196" y="545" on="1"/>
        <pt x="196" y="530" on="0"/>
        <pt x="203" y="504" on="0"/>
        <pt x="221" y="479" on="0"/>
        <pt x="251" y="452" on="0"/>
        <pt x="275" y="436" on="1"/>
        <pt x="335" y="644" on="1"/>
        <pt x="323" y="644" on="1"/>
        <pt x="263" y="644" on="0"/>
        <pt x="196" y="590" on="0"/>
      </contour>
    </TTGlyph>
    <TTGlyph name="dotaccent" xMin="237" yMin="613" xMax="359" yMax="724">
      <contour>
        <pt x="237" y="613" on="1"/>
        <pt x="254" y="724" on="1"/>
        <pt x="359" y="724" on="1"/>
        <pt x="342" y="613" on="1"/>
      </contour>
    </TTGlyph>
    <TTGlyph name="dotaccent.cap" xMin="222" yMin="575" xMax="338" yMax="681">
      <contour>
        <pt x="222" y="575" on="1"/>
        <pt x="238" y="681" on="1"/>
        <pt x="338" y="681" on="1"/>
        <pt x="322" y="575" on="1"/>
      </contour>
    </TTGlyph>
    <TTGlyph name="dotlessi" xMin="37" yMin="0" xMax="213" yMax="540">
      <contour>
        <pt x="133" y="0" on="1"/>
        <pt x="37" y="0" on="1"/>
        <pt x="116" y="540" on="1"/>
        <pt x="213" y="540" on="1"/>
      </contour>
    </TTGlyph>
    <TTGlyph name="e" xMin="41" yMin="-11" xMax="446" yMax="551">
      <contour>
        <pt x="245" y="73" on="1"/>
        <pt x="286" y="73" on="0"/>
        <pt x="360" y="107" on="0"/>
        <pt x="398" y="137" on="1"/>
        <pt x="398" y="44" on="1"/>
        <pt x="360" y="18" on="0"/>
        <pt x="281" y="-11" on="0"/>
        <pt x="233" y="-11" on="1"/>
        <pt x="142" y="-11" on="0"/>
        <pt x="41" y="107" on="0"/>
        <pt x="41" y="213" on="1"/>
        <pt x="41" y="280" on="0"/>
        <pt x="78" y="403" on="0"/>
        <pt x="143" y="496" on="0"/>
        <pt x="233" y="551" on="0"/>
        <pt x="286" y="551" on="1"/>
        <pt x="327" y="551" on="0"/>
        <pt x="387" y="521" on="0"/>
        <pt x="427" y="469" on="0"/>
        <pt x="446" y="398" on="0"/>
        <pt x="446" y="356" on="1"/>
        <pt x="446" y="327" on="0"/>
        <pt x="441" y="274" on="0"/>
        <pt x="436" y="251" on="1"/>
        <pt x="139" y="251" on="1"/>
        <pt x="138" y="241" on="0"/>
        <pt x="138" y="222" on="0"/>
        <pt x="138" y="213" on="1"/>
        <pt x="138" y="147" on="0"/>
        <pt x="194" y="73" on="0"/>
      </contour>
      <contour>
        <pt x="279" y="475" on="1"/>
        <pt x="237" y="475" on="0"/>
        <pt x="170" y="392" on="0"/>
        <pt x="152" y="327" on="1"/>
        <pt x="351" y="327" on="1"/>
        <pt x="352" y="336" on="0"/>
        <pt x="352" y="352" on="0"/>
        <pt x="352" y="360" on="1"/>
        <pt x="352" y="414" on="0"/>
        <pt x="318" y="475" on="0"/>
      </contour>
    </TTGlyph>
    <TTGlyph name="eacute" xMin="41" yMin="-11" xMax="478" yMax="772">
      <component glyphName="acute" x="64" y="0" flags="0x4"/>
      <component glyphName="e" x="0" y="0" flags="0x4"/>
    </TTGlyph>
    <TTGlyph name="ebreve" xMin="41" yMin="-11" xMax="455" yMax="750">
      <component glyphName="e" x="0" y="0" flags="0x204"/>
      <component glyphName="breve" x="6" y="0" flags="0x4"/>
    </TTGlyph>
    <TTGlyph name="ecaron" xMin="41" yMin="-11" xMax="466" yMax="763">
      <component glyphName="caron" x="11" y="0" flags="0x4"/>
      <component glyphName="e" x="0" y="0" flags="0x4"/>
    </TTGlyph>
    <TTGlyph name="ecircumflex" xMin="41" yMin="-11" xMax="446" yMax="764">
      <component glyphName="circumflex" x="9" y="0" flags="0x4"/>
      <component glyphName="e" x="0" y="0" flags="0x4"/>
    </TTGlyph>
    <TTGlyph name="edieresis" xMin="41" yMin="-11" xMax="459" yMax="724">
      <component glyphName="dieresis" x="11" y="0" flags="0x4"/>
      <component glyphName="e" x="0" y="0" flags="0x4"/>
    </TTGlyph>
    <TTGlyph name="edotaccent" xMin="41" yMin="-11" xMax="446" yMax="724">
      <component glyphName="e" x="0" y="0" flags="0x204"/>
      <component glyphName="dotaccent" x="11" y="0" flags="0x4"/>
    </TTGlyph>
    <TTGlyph name="egrave" xMin="41" yMin="-11" xMax="446" yMax="772">
      <component glyphName="e" x="0" y="0" flags="0x204"/>
      <component glyphName="grave" x="-49" y="0" flags="0x4"/>
    </TTGlyph>
</ttFont>
